<?xml version="1.0" encoding="utf-8" standalone="no"?>
<!DOCTYPE svg PUBLIC "-//W3C//DTD SVG 1.1//EN"
  "http://www.w3.org/Graphics/SVG/1.1/DTD/svg11.dtd">
<svg xmlns:xlink="http://www.w3.org/1999/xlink" width="576pt" height="360pt" viewBox="0 0 576 360" xmlns="http://www.w3.org/2000/svg" version="1.1">
 <metadata>
  <rdf:RDF xmlns:dc="http://purl.org/dc/elements/1.1/" xmlns:cc="http://creativecommons.org/ns#" xmlns:rdf="http://www.w3.org/1999/02/22-rdf-syntax-ns#">
   <cc:Work>
    <dc:type rdf:resource="http://purl.org/dc/dcmitype/StillImage"/>
    <dc:date>2025-05-07T10:46:32.444164</dc:date>
    <dc:format>image/svg+xml</dc:format>
    <dc:creator>
     <cc:Agent>
      <dc:title>Matplotlib v3.9.2, https://matplotlib.org/</dc:title>
     </cc:Agent>
    </dc:creator>
   </cc:Work>
  </rdf:RDF>
 </metadata>
 <defs>
  <style type="text/css">*{stroke-linejoin: round; stroke-linecap: butt}</style>
 </defs>
 <g id="figure_1">
  <g id="patch_1">
   <path d="M 0 360 
L 576 360 
L 576 0 
L 0 0 
z
" style="fill: #ffffff"/>
  </g>
  <g id="axes_1">
   <g id="patch_2">
    <path d="M 53.93 315.16 
L 565.2 315.16 
L 565.2 27.6 
L 53.93 27.6 
z
" style="fill: #ffffff"/>
   </g>
   <g id="PolyCollection_1">
    <defs>
     <path id="mc153db9539" d="M 77.169545 -44.852291 
L 77.169545 -44.84 
L 79.505178 -44.84 
L 81.840811 -44.84 
L 84.176444 -44.84 
L 86.512076 -44.84 
L 88.847709 -44.84 
L 91.183342 -44.84 
L 93.518974 -44.84 
L 95.854607 -44.84 
L 98.19024 -44.84 
L 100.525873 -44.84 
L 102.861505 -44.84 
L 105.197138 -44.84 
L 107.532771 -44.84 
L 109.868403 -44.84 
L 112.204036 -44.84 
L 114.539669 -44.84 
L 116.875302 -44.84 
L 119.210934 -44.84 
L 121.546567 -44.84 
L 123.8822 -44.84 
L 126.217832 -44.84 
L 128.553465 -44.84 
L 130.889098 -44.84 
L 133.22473 -44.84 
L 135.560363 -44.84 
L 137.895996 -44.84 
L 140.231629 -44.84 
L 142.567261 -44.84 
L 144.902894 -44.84 
L 147.238527 -44.84 
L 149.574159 -44.84 
L 151.909792 -44.84 
L 154.245425 -44.84 
L 156.581058 -44.84 
L 158.91669 -44.84 
L 161.252323 -44.84 
L 163.587956 -44.84 
L 165.923588 -44.84 
L 168.259221 -44.84 
L 170.594854 -44.84 
L 172.930487 -44.84 
L 175.266119 -44.84 
L 177.601752 -44.84 
L 179.937385 -44.84 
L 182.273017 -44.84 
L 184.60865 -44.84 
L 186.944283 -44.84 
L 189.279915 -44.84 
L 191.615548 -44.84 
L 193.951181 -44.84 
L 196.286814 -44.84 
L 198.622446 -44.84 
L 200.958079 -44.84 
L 203.293712 -44.84 
L 205.629344 -44.84 
L 207.964977 -44.84 
L 210.30061 -44.84 
L 212.636243 -44.84 
L 214.971875 -44.84 
L 217.307508 -44.84 
L 219.643141 -44.84 
L 221.978773 -44.84 
L 224.314406 -44.84 
L 226.650039 -44.84 
L 228.985672 -44.84 
L 231.321304 -44.84 
L 233.656937 -44.84 
L 235.99257 -44.84 
L 238.328202 -44.84 
L 240.663835 -44.84 
L 242.999468 -44.84 
L 245.335101 -44.84 
L 247.670733 -44.84 
L 250.006366 -44.84 
L 252.341999 -44.84 
L 254.677631 -44.84 
L 257.013264 -44.84 
L 259.348897 -44.84 
L 261.684529 -44.84 
L 264.020162 -44.84 
L 266.355795 -44.84 
L 268.691428 -44.84 
L 271.02706 -44.84 
L 273.362693 -44.84 
L 275.698326 -44.84 
L 278.033958 -44.84 
L 280.369591 -44.84 
L 282.705224 -44.84 
L 285.040857 -44.84 
L 287.376489 -44.84 
L 289.712122 -44.84 
L 292.047755 -44.84 
L 294.383387 -44.84 
L 296.71902 -44.84 
L 299.054653 -44.84 
L 301.390286 -44.84 
L 303.725918 -44.84 
L 306.061551 -44.84 
L 308.397184 -44.84 
L 310.732816 -44.84 
L 313.068449 -44.84 
L 315.404082 -44.84 
L 317.739714 -44.84 
L 320.075347 -44.84 
L 322.41098 -44.84 
L 324.746613 -44.84 
L 327.082245 -44.84 
L 329.417878 -44.84 
L 331.753511 -44.84 
L 334.089143 -44.84 
L 336.424776 -44.84 
L 338.760409 -44.84 
L 341.096042 -44.84 
L 343.431674 -44.84 
L 345.767307 -44.84 
L 348.10294 -44.84 
L 350.438572 -44.84 
L 352.774205 -44.84 
L 355.109838 -44.84 
L 357.445471 -44.84 
L 359.781103 -44.84 
L 362.116736 -44.84 
L 364.452369 -44.84 
L 366.788001 -44.84 
L 369.123634 -44.84 
L 371.459267 -44.84 
L 373.794899 -44.84 
L 376.130532 -44.84 
L 378.466165 -44.84 
L 380.801798 -44.84 
L 383.13743 -44.84 
L 385.473063 -44.84 
L 387.808696 -44.84 
L 390.144328 -44.84 
L 392.479961 -44.84 
L 394.815594 -44.84 
L 397.151227 -44.84 
L 399.486859 -44.84 
L 401.822492 -44.84 
L 404.158125 -44.84 
L 406.493757 -44.84 
L 408.82939 -44.84 
L 411.165023 -44.84 
L 413.500656 -44.84 
L 415.836288 -44.84 
L 418.171921 -44.84 
L 420.507554 -44.84 
L 422.843186 -44.84 
L 425.178819 -44.84 
L 427.514452 -44.84 
L 429.850085 -44.84 
L 432.185717 -44.84 
L 434.52135 -44.84 
L 436.856983 -44.84 
L 439.192615 -44.84 
L 441.528248 -44.84 
L 443.863881 -44.84 
L 446.199513 -44.84 
L 448.535146 -44.84 
L 450.870779 -44.84 
L 453.206412 -44.84 
L 455.542044 -44.84 
L 457.877677 -44.84 
L 460.21331 -44.84 
L 462.548942 -44.84 
L 464.884575 -44.84 
L 467.220208 -44.84 
L 469.555841 -44.84 
L 471.891473 -44.84 
L 474.227106 -44.84 
L 476.562739 -44.84 
L 478.898371 -44.84 
L 481.234004 -44.84 
L 483.569637 -44.84 
L 485.90527 -44.84 
L 488.240902 -44.84 
L 490.576535 -44.84 
L 492.912168 -44.84 
L 495.2478 -44.84 
L 497.583433 -44.84 
L 499.919066 -44.84 
L 502.254698 -44.84 
L 504.590331 -44.84 
L 506.925964 -44.84 
L 509.261597 -44.84 
L 511.597229 -44.84 
L 513.932862 -44.84 
L 516.268495 -44.84 
L 518.604127 -44.84 
L 520.93976 -44.84 
L 523.275393 -44.84 
L 525.611026 -44.84 
L 527.946658 -44.84 
L 530.282291 -44.84 
L 532.617924 -44.84 
L 534.953556 -44.84 
L 537.289189 -44.84 
L 539.624822 -44.84 
L 541.960455 -44.84 
L 541.960455 -44.849093 
L 541.960455 -44.849093 
L 539.624822 -44.852762 
L 537.289189 -44.857677 
L 534.953556 -44.864161 
L 532.617924 -44.872587 
L 530.282291 -44.883374 
L 527.946658 -44.896969 
L 525.611026 -44.913838 
L 523.275393 -44.934441 
L 520.93976 -44.959199 
L 518.604127 -44.988463 
L 516.268495 -45.022473 
L 513.932862 -45.061317 
L 511.597229 -45.104889 
L 509.261597 -45.152859 
L 506.925964 -45.204642 
L 504.590331 -45.259393 
L 502.254698 -45.316003 
L 499.919066 -45.373132 
L 497.583433 -45.429246 
L 495.2478 -45.482684 
L 492.912168 -45.531735 
L 490.576535 -45.574729 
L 488.240902 -45.610136 
L 485.90527 -45.636655 
L 483.569637 -45.653302 
L 481.234004 -45.659483 
L 478.898371 -45.655032 
L 476.562739 -45.640244 
L 474.227106 -45.615868 
L 471.891473 -45.58308 
L 469.555841 -45.543438 
L 467.220208 -45.498819 
L 464.884575 -45.451353 
L 462.548942 -45.403352 
L 460.21331 -45.35725 
L 457.877677 -45.315552 
L 455.542044 -45.280795 
L 453.206412 -45.255531 
L 450.870779 -45.242316 
L 448.535146 -45.243713 
L 446.199513 -45.262296 
L 443.863881 -45.300648 
L 441.528248 -45.361354 
L 439.192615 -45.446977 
L 436.856983 -45.560009 
L 434.52135 -45.702815 
L 432.185717 -45.877542 
L 429.850085 -46.086034 
L 427.514452 -46.329731 
L 425.178819 -46.609581 
L 422.843186 -46.925975 
L 420.507554 -47.278707 
L 418.171921 -47.666984 
L 415.836288 -48.089484 
L 413.500656 -48.544466 
L 411.165023 -49.029931 
L 408.82939 -49.543827 
L 406.493757 -50.084284 
L 404.158125 -50.649851 
L 401.822492 -51.23973 
L 399.486859 -51.853967 
L 397.151227 -52.493582 
L 394.815594 -53.160627 
L 392.479961 -53.858147 
L 390.144328 -54.590043 
L 387.808696 -55.360838 
L 385.473063 -56.175366 
L 383.13743 -57.038391 
L 380.801798 -57.954186 
L 378.466165 -58.926117 
L 376.130532 -59.956241 
L 373.794899 -61.04497 
L 371.459267 -62.190814 
L 369.123634 -63.390228 
L 366.788001 -64.637572 
L 364.452369 -65.925181 
L 362.116736 -67.243549 
L 359.781103 -68.581595 
L 357.445471 -69.927006 
L 355.109838 -71.266631 
L 352.774205 -72.586893 
L 350.438572 -73.874224 
L 348.10294 -75.115484 
L 345.767307 -76.298373 
L 343.431674 -77.411818 
L 341.096042 -78.44634 
L 338.760409 -79.394392 
L 336.424776 -80.250667 
L 334.089143 -81.012366 
L 331.753511 -81.679412 
L 329.417878 -82.254596 
L 327.082245 -82.743623 
L 324.746613 -83.155055 
L 322.41098 -83.500115 
L 320.075347 -83.792351 
L 317.739714 -84.047156 
L 315.404082 -84.28114 
L 313.068449 -84.511405 
L 310.732816 -84.754728 
L 308.397184 -85.026722 
L 306.061551 -85.341016 
L 303.725918 -85.708523 
L 301.390286 -86.136836 
L 299.054653 -86.629824 
L 296.71902 -87.187439 
L 294.383387 -87.805771 
L 292.047755 -88.477344 
L 289.712122 -89.191628 
L 287.376489 -89.93574 
L 285.040857 -90.695261 
L 282.705224 -91.455114 
L 280.369591 -92.200423 
L 278.033958 -92.917285 
L 275.698326 -93.593382 
L 273.362693 -94.218394 
L 271.02706 -94.784185 
L 268.691428 -95.284743 
L 266.355795 -95.715906 
L 264.020162 -96.074915 
L 261.684529 -96.359843 
L 259.348897 -96.568983 
L 257.013264 -96.700258 
L 254.677631 -96.750744 
L 252.341999 -96.716342 
L 250.006366 -96.591656 
L 247.670733 -96.370094 
L 245.335101 -96.044185 
L 242.999468 -95.606075 
L 240.663835 -95.048171 
L 238.328202 -94.363855 
L 235.99257 -93.548207 
L 233.656937 -92.598663 
L 231.321304 -91.515553 
L 228.985672 -90.302459 
L 226.650039 -88.966382 
L 224.314406 -87.517676 
L 221.978773 -85.969794 
L 219.643141 -84.338826 
L 217.307508 -82.642911 
L 214.971875 -80.901525 
L 212.636243 -79.134737 
L 210.30061 -77.362447 
L 207.964977 -75.603674 
L 205.629344 -73.875934 
L 203.293712 -72.194721 
L 200.958079 -70.573127 
L 198.622446 -69.021605 
L 196.286814 -67.547872 
L 193.951181 -66.156946 
L 191.615548 -64.851294 
L 189.279915 -63.631074 
L 186.944283 -62.494449 
L 184.60865 -61.437931 
L 182.273017 -60.45675 
L 179.937385 -59.545212 
L 177.601752 -58.697033 
L 175.266119 -57.905642 
L 172.930487 -57.164431 
L 170.594854 -56.466969 
L 168.259221 -55.80717 
L 165.923588 -55.179416 
L 163.587956 -54.578658 
L 161.252323 -54.000484 
L 158.91669 -53.441164 
L 156.581058 -52.897687 
L 154.245425 -52.367772 
L 151.909792 -51.849871 
L 149.574159 -51.343151 
L 147.238527 -50.847462 
L 144.902894 -50.363275 
L 142.567261 -49.89161 
L 140.231629 -49.433939 
L 137.895996 -48.992065 
L 135.560363 -48.568 
L 133.22473 -48.163831 
L 130.889098 -47.781578 
L 128.553465 -47.423078 
L 126.217832 -47.089869 
L 123.8822 -46.783104 
L 121.546567 -46.503489 
L 119.210934 -46.25125 
L 116.875302 -46.026129 
L 114.539669 -45.827406 
L 112.204036 -45.653945 
L 109.868403 -45.504258 
L 107.532771 -45.376579 
L 105.197138 -45.268948 
L 102.861505 -45.179293 
L 100.525873 -45.105506 
L 98.19024 -45.045512 
L 95.854607 -44.997326 
L 93.518974 -44.9591 
L 91.183342 -44.929148 
L 88.847709 -44.905971 
L 86.512076 -44.88826 
L 84.176444 -44.874896 
L 81.840811 -44.864938 
L 79.505178 -44.857612 
L 77.169545 -44.852291 
z
" style="stroke: #4169e1; stroke-width: 2"/>
    </defs>
    <g clip-path="url(#p242136c2ca)">
     <use xlink:href="#mc153db9539" x="0" y="360" style="fill: #4169e1; fill-opacity: 0.4; stroke: #4169e1; stroke-width: 2"/>
    </g>
   </g>
   <g id="PolyCollection_2">
    <defs>
     <path id="m62ab1444a8" d="M 124.165422 -44.87695 
L 124.165422 -44.84 
L 124.685376 -44.84 
L 125.205331 -44.84 
L 125.725285 -44.84 
L 126.245239 -44.84 
L 126.765193 -44.84 
L 127.285147 -44.84 
L 127.805102 -44.84 
L 128.325056 -44.84 
L 128.84501 -44.84 
L 129.364964 -44.84 
L 129.884918 -44.84 
L 130.404872 -44.84 
L 130.924827 -44.84 
L 131.444781 -44.84 
L 131.964735 -44.84 
L 132.484689 -44.84 
L 133.004643 -44.84 
L 133.524598 -44.84 
L 134.044552 -44.84 
L 134.564506 -44.84 
L 135.08446 -44.84 
L 135.604414 -44.84 
L 136.124369 -44.84 
L 136.644323 -44.84 
L 137.164277 -44.84 
L 137.684231 -44.84 
L 138.204185 -44.84 
L 138.72414 -44.84 
L 139.244094 -44.84 
L 139.764048 -44.84 
L 140.284002 -44.84 
L 140.803956 -44.84 
L 141.323911 -44.84 
L 141.843865 -44.84 
L 142.363819 -44.84 
L 142.883773 -44.84 
L 143.403727 -44.84 
L 143.923682 -44.84 
L 144.443636 -44.84 
L 144.96359 -44.84 
L 145.483544 -44.84 
L 146.003498 -44.84 
L 146.523453 -44.84 
L 147.043407 -44.84 
L 147.563361 -44.84 
L 148.083315 -44.84 
L 148.603269 -44.84 
L 149.123224 -44.84 
L 149.643178 -44.84 
L 150.163132 -44.84 
L 150.683086 -44.84 
L 151.20304 -44.84 
L 151.722995 -44.84 
L 152.242949 -44.84 
L 152.762903 -44.84 
L 153.282857 -44.84 
L 153.802811 -44.84 
L 154.322766 -44.84 
L 154.84272 -44.84 
L 155.362674 -44.84 
L 155.882628 -44.84 
L 156.402582 -44.84 
L 156.922537 -44.84 
L 157.442491 -44.84 
L 157.962445 -44.84 
L 158.482399 -44.84 
L 159.002353 -44.84 
L 159.522308 -44.84 
L 160.042262 -44.84 
L 160.562216 -44.84 
L 161.08217 -44.84 
L 161.602124 -44.84 
L 162.122078 -44.84 
L 162.642033 -44.84 
L 163.161987 -44.84 
L 163.681941 -44.84 
L 164.201895 -44.84 
L 164.721849 -44.84 
L 165.241804 -44.84 
L 165.761758 -44.84 
L 166.281712 -44.84 
L 166.801666 -44.84 
L 167.32162 -44.84 
L 167.841575 -44.84 
L 168.361529 -44.84 
L 168.881483 -44.84 
L 169.401437 -44.84 
L 169.921391 -44.84 
L 170.441346 -44.84 
L 170.9613 -44.84 
L 171.481254 -44.84 
L 172.001208 -44.84 
L 172.521162 -44.84 
L 173.041117 -44.84 
L 173.561071 -44.84 
L 174.081025 -44.84 
L 174.600979 -44.84 
L 175.120933 -44.84 
L 175.640888 -44.84 
L 176.160842 -44.84 
L 176.680796 -44.84 
L 177.20075 -44.84 
L 177.720704 -44.84 
L 178.240659 -44.84 
L 178.760613 -44.84 
L 179.280567 -44.84 
L 179.800521 -44.84 
L 180.320475 -44.84 
L 180.84043 -44.84 
L 181.360384 -44.84 
L 181.880338 -44.84 
L 182.400292 -44.84 
L 182.920246 -44.84 
L 183.440201 -44.84 
L 183.960155 -44.84 
L 184.480109 -44.84 
L 185.000063 -44.84 
L 185.520017 -44.84 
L 186.039972 -44.84 
L 186.559926 -44.84 
L 187.07988 -44.84 
L 187.599834 -44.84 
L 188.119788 -44.84 
L 188.639743 -44.84 
L 189.159697 -44.84 
L 189.679651 -44.84 
L 190.199605 -44.84 
L 190.719559 -44.84 
L 191.239513 -44.84 
L 191.759468 -44.84 
L 192.279422 -44.84 
L 192.799376 -44.84 
L 193.31933 -44.84 
L 193.839284 -44.84 
L 194.359239 -44.84 
L 194.879193 -44.84 
L 195.399147 -44.84 
L 195.919101 -44.84 
L 196.439055 -44.84 
L 196.95901 -44.84 
L 197.478964 -44.84 
L 197.998918 -44.84 
L 198.518872 -44.84 
L 199.038826 -44.84 
L 199.558781 -44.84 
L 200.078735 -44.84 
L 200.598689 -44.84 
L 201.118643 -44.84 
L 201.638597 -44.84 
L 202.158552 -44.84 
L 202.678506 -44.84 
L 203.19846 -44.84 
L 203.718414 -44.84 
L 204.238368 -44.84 
L 204.758323 -44.84 
L 205.278277 -44.84 
L 205.798231 -44.84 
L 206.318185 -44.84 
L 206.838139 -44.84 
L 207.358094 -44.84 
L 207.878048 -44.84 
L 208.398002 -44.84 
L 208.917956 -44.84 
L 209.43791 -44.84 
L 209.957865 -44.84 
L 210.477819 -44.84 
L 210.997773 -44.84 
L 211.517727 -44.84 
L 212.037681 -44.84 
L 212.557636 -44.84 
L 213.07759 -44.84 
L 213.597544 -44.84 
L 214.117498 -44.84 
L 214.637452 -44.84 
L 215.157407 -44.84 
L 215.677361 -44.84 
L 216.197315 -44.84 
L 216.717269 -44.84 
L 217.237223 -44.84 
L 217.757178 -44.84 
L 218.277132 -44.84 
L 218.797086 -44.84 
L 219.31704 -44.84 
L 219.836994 -44.84 
L 220.356949 -44.84 
L 220.876903 -44.84 
L 221.396857 -44.84 
L 221.916811 -44.84 
L 222.436765 -44.84 
L 222.956719 -44.84 
L 223.476674 -44.84 
L 223.996628 -44.84 
L 224.516582 -44.84 
L 225.036536 -44.84 
L 225.55649 -44.84 
L 226.076445 -44.84 
L 226.596399 -44.84 
L 227.116353 -44.84 
L 227.636307 -44.84 
L 227.636307 -45.446577 
L 227.636307 -45.446577 
L 227.116353 -45.679785 
L 226.596399 -45.991246 
L 226.076445 -46.402785 
L 225.55649 -46.940762 
L 225.036536 -47.636514 
L 224.516582 -48.526691 
L 223.996628 -49.653432 
L 223.476674 -51.064314 
L 222.956719 -52.81202 
L 222.436765 -54.953675 
L 221.916811 -57.549801 
L 221.396857 -60.662863 
L 220.876903 -64.355405 
L 220.356949 -68.687806 
L 219.836994 -73.715691 
L 219.31704 -79.487116 
L 218.797086 -86.039625 
L 218.277132 -93.397357 
L 217.757178 -101.568353 
L 217.237223 -110.54226 
L 216.717269 -120.288619 
L 216.197315 -130.755882 
L 215.677361 -141.8713 
L 215.157407 -153.541757 
L 214.637452 -165.655578 
L 214.117498 -178.08526 
L 213.597544 -190.691026 
L 213.07759 -203.325022 
L 212.557636 -215.835953 
L 212.037681 -228.073883 
L 211.517727 -239.894946 
L 210.997773 -251.1657 
L 210.477819 -261.766879 
L 209.957865 -271.596372 
L 209.43791 -280.571286 
L 208.917956 -288.629048 
L 208.398002 -295.727546 
L 207.878048 -301.844412 
L 207.358094 -306.975562 
L 206.838139 -311.133188 
L 206.318185 -314.343394 
L 205.798231 -316.643679 
L 205.278277 -318.080441 
L 204.758323 -318.706667 
L 204.238368 -318.5799 
L 203.718414 -317.760551 
L 203.19846 -316.310553 
L 202.678506 -314.292336 
L 202.158552 -311.768051 
L 201.638597 -308.798965 
L 201.118643 -305.44494 
L 200.598689 -301.763923 
L 200.078735 -297.811393 
L 199.558781 -293.639733 
L 199.038826 -289.29754 
L 198.518872 -284.828901 
L 197.998918 -280.272685 
L 197.478964 -275.661928 
L 196.95901 -271.023371 
L 196.439055 -266.377224 
L 195.919101 -261.737187 
L 195.399147 -257.110765 
L 194.879193 -252.499849 
L 194.359239 -247.901553 
L 193.839284 -243.309226 
L 193.31933 -238.713585 
L 192.799376 -234.103876 
L 192.279422 -229.468992 
L 191.759468 -224.798468 
L 191.239513 -220.083312 
L 190.719559 -215.316635 
L 190.199605 -210.494062 
L 189.679651 -205.613954 
L 189.159697 -200.677442 
L 188.639743 -195.688337 
L 188.119788 -190.652937 
L 187.599834 -185.579787 
L 187.07988 -180.479418 
L 186.559926 -175.364091 
L 186.039972 -170.247558 
L 185.520017 -165.144839 
L 185.000063 -160.072007 
L 184.480109 -155.045967 
L 183.960155 -150.084213 
L 183.440201 -145.204542 
L 182.920246 -140.424731 
L 182.400292 -135.762171 
L 181.880338 -131.233465 
L 181.360384 -126.854018 
L 180.84043 -122.637642 
L 180.320475 -118.596201 
L 179.800521 -114.73933 
L 179.280567 -111.074251 
L 178.760613 -107.605706 
L 178.240659 -104.336 
L 177.720704 -101.265166 
L 177.20075 -98.391226 
L 176.680796 -95.710514 
L 176.160842 -93.218045 
L 175.640888 -90.907871 
L 175.120933 -88.773407 
L 174.600979 -86.807687 
L 174.081025 -85.003519 
L 173.561071 -83.353557 
L 173.041117 -81.850255 
L 172.521162 -80.485755 
L 172.001208 -79.251712 
L 171.481254 -78.139106 
L 170.9613 -77.138075 
L 170.441346 -76.237811 
L 169.921391 -75.426561 
L 169.401437 -74.691749 
L 168.881483 -74.020231 
L 168.361529 -73.398686 
L 167.841575 -72.814117 
L 167.32162 -72.254425 
L 166.801666 -71.709009 
L 166.281712 -71.169328 
L 165.761758 -70.629381 
L 165.241804 -70.086034 
L 164.721849 -69.539162 
L 164.201895 -68.991566 
L 163.681941 -68.448664 
L 163.161987 -67.917969 
L 162.642033 -67.408379 
L 162.122078 -66.929334 
L 161.602124 -66.489921 
L 161.08217 -66.09797 
L 160.562216 -65.759259 
L 160.042262 -65.476853 
L 159.522308 -65.250677 
L 159.002353 -65.077329 
L 158.482399 -64.95017 
L 157.962445 -64.859668 
L 157.442491 -64.793986 
L 156.922537 -64.739739 
L 156.402582 -64.682877 
L 155.882628 -64.609602 
L 155.362674 -64.507251 
L 154.84272 -64.365077 
L 154.322766 -64.174857 
L 153.802811 -63.931297 
L 153.282857 -63.632199 
L 152.762903 -63.278401 
L 152.242949 -62.873498 
L 151.722995 -62.423387 
L 151.20304 -61.935686 
L 150.683086 -61.419071 
L 150.163132 -60.882616 
L 149.643178 -60.335161 
L 149.123224 -59.784774 
L 148.603269 -59.238333 
L 148.083315 -58.70125 
L 147.563361 -58.177339 
L 147.043407 -57.668821 
L 146.523453 -57.176449 
L 146.003498 -56.699717 
L 145.483544 -56.237135 
L 144.96359 -55.786525 
L 144.443636 -55.345323 
L 143.923682 -54.910849 
L 143.403727 -54.480544 
L 142.883773 -54.052153 
L 142.363819 -53.623856 
L 141.843865 -53.19435 
L 141.323911 -52.762889 
L 140.803956 -52.329286 
L 140.284002 -51.893888 
L 139.764048 -51.457535 
L 139.244094 -51.021507 
L 138.72414 -50.587457 
L 138.204185 -50.157349 
L 137.684231 -49.733381 
L 137.164277 -49.317909 
L 136.644323 -48.913373 
L 136.124369 -48.522207 
L 135.604414 -48.146766 
L 135.08446 -47.789235 
L 134.564506 -47.451564 
L 134.044552 -47.135392 
L 133.524598 -46.841997 
L 133.004643 -46.572257 
L 132.484689 -46.326627 
L 131.964735 -46.105137 
L 131.444781 -45.90741 
L 130.924827 -45.732694 
L 130.404872 -45.579906 
L 129.884918 -45.447695 
L 129.364964 -45.334503 
L 128.84501 -45.238629 
L 128.325056 -45.158299 
L 127.805102 -45.091724 
L 127.285147 -45.037148 
L 126.765193 -44.9929 
L 126.245239 -44.957417 
L 125.725285 -44.929277 
L 125.205331 -44.907205 
L 124.685376 -44.890084 
L 124.165422 -44.87695 
z
" style="stroke: #ff4500; stroke-width: 2"/>
    </defs>
    <g clip-path="url(#p242136c2ca)">
     <use xlink:href="#m62ab1444a8" x="0" y="360" style="fill: #ff4500; fill-opacity: 0.4; stroke: #ff4500; stroke-width: 2"/>
    </g>
   </g>
   <g id="matplotlib.axis_1">
    <g id="xtick_1">
     <g id="line2d_1">
      <path d="M 85.021956 315.16 
L 85.021956 27.6 
" clip-path="url(#p242136c2ca)" style="fill: none; stroke-dasharray: 2.96,1.28; stroke-dashoffset: 0; stroke: #b0b0b0; stroke-opacity: 0.5; stroke-width: 0.8"/>
     </g>
     <g id="line2d_2">
      <defs>
       <path id="m138bdb3f2c" d="M 0 0 
L 0 3.5 
" style="stroke: #000000; stroke-width: 0.8"/>
      </defs>
      <g>
       <use xlink:href="#m138bdb3f2c" x="85.021956" y="315.16" style="stroke: #000000; stroke-width: 0.8"/>
      </g>
     </g>
     <g id="text_1">
      <!-- 0.02 -->
      <g transform="translate(73.889143 329.758438) scale(0.1 -0.1)">
       <defs>
        <path id="DejaVuSans-30" d="M 2034 4250 
Q 1547 4250 1301 3770 
Q 1056 3291 1056 2328 
Q 1056 1369 1301 889 
Q 1547 409 2034 409 
Q 2525 409 2770 889 
Q 3016 1369 3016 2328 
Q 3016 3291 2770 3770 
Q 2525 4250 2034 4250 
z
M 2034 4750 
Q 2819 4750 3233 4129 
Q 3647 3509 3647 2328 
Q 3647 1150 3233 529 
Q 2819 -91 2034 -91 
Q 1250 -91 836 529 
Q 422 1150 422 2328 
Q 422 3509 836 4129 
Q 1250 4750 2034 4750 
z
" transform="scale(0.015625)"/>
        <path id="DejaVuSans-2e" d="M 684 794 
L 1344 794 
L 1344 0 
L 684 0 
L 684 794 
z
" transform="scale(0.015625)"/>
        <path id="DejaVuSans-32" d="M 1228 531 
L 3431 531 
L 3431 0 
L 469 0 
L 469 531 
Q 828 903 1448 1529 
Q 2069 2156 2228 2338 
Q 2531 2678 2651 2914 
Q 2772 3150 2772 3378 
Q 2772 3750 2511 3984 
Q 2250 4219 1831 4219 
Q 1534 4219 1204 4116 
Q 875 4013 500 3803 
L 500 4441 
Q 881 4594 1212 4672 
Q 1544 4750 1819 4750 
Q 2544 4750 2975 4387 
Q 3406 4025 3406 3419 
Q 3406 3131 3298 2873 
Q 3191 2616 2906 2266 
Q 2828 2175 2409 1742 
Q 1991 1309 1228 531 
z
" transform="scale(0.015625)"/>
       </defs>
       <use xlink:href="#DejaVuSans-30"/>
       <use xlink:href="#DejaVuSans-2e" x="63.623047"/>
       <use xlink:href="#DejaVuSans-30" x="95.410156"/>
       <use xlink:href="#DejaVuSans-32" x="159.033203"/>
      </g>
     </g>
    </g>
    <g id="xtick_2">
     <g id="line2d_3">
      <path d="M 148.713076 315.16 
L 148.713076 27.6 
" clip-path="url(#p242136c2ca)" style="fill: none; stroke-dasharray: 2.96,1.28; stroke-dashoffset: 0; stroke: #b0b0b0; stroke-opacity: 0.5; stroke-width: 0.8"/>
     </g>
     <g id="line2d_4">
      <g>
       <use xlink:href="#m138bdb3f2c" x="148.713076" y="315.16" style="stroke: #000000; stroke-width: 0.8"/>
      </g>
     </g>
     <g id="text_2">
      <!-- 0.04 -->
      <g transform="translate(137.580264 329.758438) scale(0.1 -0.1)">
       <defs>
        <path id="DejaVuSans-34" d="M 2419 4116 
L 825 1625 
L 2419 1625 
L 2419 4116 
z
M 2253 4666 
L 3047 4666 
L 3047 1625 
L 3713 1625 
L 3713 1100 
L 3047 1100 
L 3047 0 
L 2419 0 
L 2419 1100 
L 313 1100 
L 313 1709 
L 2253 4666 
z
" transform="scale(0.015625)"/>
       </defs>
       <use xlink:href="#DejaVuSans-30"/>
       <use xlink:href="#DejaVuSans-2e" x="63.623047"/>
       <use xlink:href="#DejaVuSans-30" x="95.410156"/>
       <use xlink:href="#DejaVuSans-34" x="159.033203"/>
      </g>
     </g>
    </g>
    <g id="xtick_3">
     <g id="line2d_5">
      <path d="M 212.404196 315.16 
L 212.404196 27.6 
" clip-path="url(#p242136c2ca)" style="fill: none; stroke-dasharray: 2.96,1.28; stroke-dashoffset: 0; stroke: #b0b0b0; stroke-opacity: 0.5; stroke-width: 0.8"/>
     </g>
     <g id="line2d_6">
      <g>
       <use xlink:href="#m138bdb3f2c" x="212.404196" y="315.16" style="stroke: #000000; stroke-width: 0.8"/>
      </g>
     </g>
     <g id="text_3">
      <!-- 0.06 -->
      <g transform="translate(201.271384 329.758438) scale(0.1 -0.1)">
       <defs>
        <path id="DejaVuSans-36" d="M 2113 2584 
Q 1688 2584 1439 2293 
Q 1191 2003 1191 1497 
Q 1191 994 1439 701 
Q 1688 409 2113 409 
Q 2538 409 2786 701 
Q 3034 994 3034 1497 
Q 3034 2003 2786 2293 
Q 2538 2584 2113 2584 
z
M 3366 4563 
L 3366 3988 
Q 3128 4100 2886 4159 
Q 2644 4219 2406 4219 
Q 1781 4219 1451 3797 
Q 1122 3375 1075 2522 
Q 1259 2794 1537 2939 
Q 1816 3084 2150 3084 
Q 2853 3084 3261 2657 
Q 3669 2231 3669 1497 
Q 3669 778 3244 343 
Q 2819 -91 2113 -91 
Q 1303 -91 875 529 
Q 447 1150 447 2328 
Q 447 3434 972 4092 
Q 1497 4750 2381 4750 
Q 2619 4750 2861 4703 
Q 3103 4656 3366 4563 
z
" transform="scale(0.015625)"/>
       </defs>
       <use xlink:href="#DejaVuSans-30"/>
       <use xlink:href="#DejaVuSans-2e" x="63.623047"/>
       <use xlink:href="#DejaVuSans-30" x="95.410156"/>
       <use xlink:href="#DejaVuSans-36" x="159.033203"/>
      </g>
     </g>
    </g>
    <g id="xtick_4">
     <g id="line2d_7">
      <path d="M 276.095316 315.16 
L 276.095316 27.6 
" clip-path="url(#p242136c2ca)" style="fill: none; stroke-dasharray: 2.96,1.28; stroke-dashoffset: 0; stroke: #b0b0b0; stroke-opacity: 0.5; stroke-width: 0.8"/>
     </g>
     <g id="line2d_8">
      <g>
       <use xlink:href="#m138bdb3f2c" x="276.095316" y="315.16" style="stroke: #000000; stroke-width: 0.8"/>
      </g>
     </g>
     <g id="text_4">
      <!-- 0.08 -->
      <g transform="translate(264.962504 329.758438) scale(0.1 -0.1)">
       <defs>
        <path id="DejaVuSans-38" d="M 2034 2216 
Q 1584 2216 1326 1975 
Q 1069 1734 1069 1313 
Q 1069 891 1326 650 
Q 1584 409 2034 409 
Q 2484 409 2743 651 
Q 3003 894 3003 1313 
Q 3003 1734 2745 1975 
Q 2488 2216 2034 2216 
z
M 1403 2484 
Q 997 2584 770 2862 
Q 544 3141 544 3541 
Q 544 4100 942 4425 
Q 1341 4750 2034 4750 
Q 2731 4750 3128 4425 
Q 3525 4100 3525 3541 
Q 3525 3141 3298 2862 
Q 3072 2584 2669 2484 
Q 3125 2378 3379 2068 
Q 3634 1759 3634 1313 
Q 3634 634 3220 271 
Q 2806 -91 2034 -91 
Q 1263 -91 848 271 
Q 434 634 434 1313 
Q 434 1759 690 2068 
Q 947 2378 1403 2484 
z
M 1172 3481 
Q 1172 3119 1398 2916 
Q 1625 2713 2034 2713 
Q 2441 2713 2670 2916 
Q 2900 3119 2900 3481 
Q 2900 3844 2670 4047 
Q 2441 4250 2034 4250 
Q 1625 4250 1398 4047 
Q 1172 3844 1172 3481 
z
" transform="scale(0.015625)"/>
       </defs>
       <use xlink:href="#DejaVuSans-30"/>
       <use xlink:href="#DejaVuSans-2e" x="63.623047"/>
       <use xlink:href="#DejaVuSans-30" x="95.410156"/>
       <use xlink:href="#DejaVuSans-38" x="159.033203"/>
      </g>
     </g>
    </g>
    <g id="xtick_5">
     <g id="line2d_9">
      <path d="M 339.786437 315.16 
L 339.786437 27.6 
" clip-path="url(#p242136c2ca)" style="fill: none; stroke-dasharray: 2.96,1.28; stroke-dashoffset: 0; stroke: #b0b0b0; stroke-opacity: 0.5; stroke-width: 0.8"/>
     </g>
     <g id="line2d_10">
      <g>
       <use xlink:href="#m138bdb3f2c" x="339.786437" y="315.16" style="stroke: #000000; stroke-width: 0.8"/>
      </g>
     </g>
     <g id="text_5">
      <!-- 0.10 -->
      <g transform="translate(328.653624 329.758438) scale(0.1 -0.1)">
       <defs>
        <path id="DejaVuSans-31" d="M 794 531 
L 1825 531 
L 1825 4091 
L 703 3866 
L 703 4441 
L 1819 4666 
L 2450 4666 
L 2450 531 
L 3481 531 
L 3481 0 
L 794 0 
L 794 531 
z
" transform="scale(0.015625)"/>
       </defs>
       <use xlink:href="#DejaVuSans-30"/>
       <use xlink:href="#DejaVuSans-2e" x="63.623047"/>
       <use xlink:href="#DejaVuSans-31" x="95.410156"/>
       <use xlink:href="#DejaVuSans-30" x="159.033203"/>
      </g>
     </g>
    </g>
    <g id="xtick_6">
     <g id="line2d_11">
      <path d="M 403.477557 315.16 
L 403.477557 27.6 
" clip-path="url(#p242136c2ca)" style="fill: none; stroke-dasharray: 2.96,1.28; stroke-dashoffset: 0; stroke: #b0b0b0; stroke-opacity: 0.5; stroke-width: 0.8"/>
     </g>
     <g id="line2d_12">
      <g>
       <use xlink:href="#m138bdb3f2c" x="403.477557" y="315.16" style="stroke: #000000; stroke-width: 0.8"/>
      </g>
     </g>
     <g id="text_6">
      <!-- 0.12 -->
      <g transform="translate(392.344744 329.758438) scale(0.1 -0.1)">
       <use xlink:href="#DejaVuSans-30"/>
       <use xlink:href="#DejaVuSans-2e" x="63.623047"/>
       <use xlink:href="#DejaVuSans-31" x="95.410156"/>
       <use xlink:href="#DejaVuSans-32" x="159.033203"/>
      </g>
     </g>
    </g>
    <g id="xtick_7">
     <g id="line2d_13">
      <path d="M 467.168677 315.16 
L 467.168677 27.6 
" clip-path="url(#p242136c2ca)" style="fill: none; stroke-dasharray: 2.96,1.28; stroke-dashoffset: 0; stroke: #b0b0b0; stroke-opacity: 0.5; stroke-width: 0.8"/>
     </g>
     <g id="line2d_14">
      <g>
       <use xlink:href="#m138bdb3f2c" x="467.168677" y="315.16" style="stroke: #000000; stroke-width: 0.8"/>
      </g>
     </g>
     <g id="text_7">
      <!-- 0.14 -->
      <g transform="translate(456.035864 329.758438) scale(0.1 -0.1)">
       <use xlink:href="#DejaVuSans-30"/>
       <use xlink:href="#DejaVuSans-2e" x="63.623047"/>
       <use xlink:href="#DejaVuSans-31" x="95.410156"/>
       <use xlink:href="#DejaVuSans-34" x="159.033203"/>
      </g>
     </g>
    </g>
    <g id="xtick_8">
     <g id="line2d_15">
      <path d="M 530.859797 315.16 
L 530.859797 27.6 
" clip-path="url(#p242136c2ca)" style="fill: none; stroke-dasharray: 2.96,1.28; stroke-dashoffset: 0; stroke: #b0b0b0; stroke-opacity: 0.5; stroke-width: 0.8"/>
     </g>
     <g id="line2d_16">
      <g>
       <use xlink:href="#m138bdb3f2c" x="530.859797" y="315.16" style="stroke: #000000; stroke-width: 0.8"/>
      </g>
     </g>
     <g id="text_8">
      <!-- 0.16 -->
      <g transform="translate(519.726984 329.758438) scale(0.1 -0.1)">
       <use xlink:href="#DejaVuSans-30"/>
       <use xlink:href="#DejaVuSans-2e" x="63.623047"/>
       <use xlink:href="#DejaVuSans-31" x="95.410156"/>
       <use xlink:href="#DejaVuSans-36" x="159.033203"/>
      </g>
     </g>
    </g>
    <g id="text_9">
     <!-- Gap Energy (Hartree) -->
     <g transform="translate(239.840312 345.716094) scale(0.13 -0.13)">
      <defs>
       <path id="DejaVuSans-47" d="M 3809 666 
L 3809 1919 
L 2778 1919 
L 2778 2438 
L 4434 2438 
L 4434 434 
Q 4069 175 3628 42 
Q 3188 -91 2688 -91 
Q 1594 -91 976 548 
Q 359 1188 359 2328 
Q 359 3472 976 4111 
Q 1594 4750 2688 4750 
Q 3144 4750 3555 4637 
Q 3966 4525 4313 4306 
L 4313 3634 
Q 3963 3931 3569 4081 
Q 3175 4231 2741 4231 
Q 1884 4231 1454 3753 
Q 1025 3275 1025 2328 
Q 1025 1384 1454 906 
Q 1884 428 2741 428 
Q 3075 428 3337 486 
Q 3600 544 3809 666 
z
" transform="scale(0.015625)"/>
       <path id="DejaVuSans-61" d="M 2194 1759 
Q 1497 1759 1228 1600 
Q 959 1441 959 1056 
Q 959 750 1161 570 
Q 1363 391 1709 391 
Q 2188 391 2477 730 
Q 2766 1069 2766 1631 
L 2766 1759 
L 2194 1759 
z
M 3341 1997 
L 3341 0 
L 2766 0 
L 2766 531 
Q 2569 213 2275 61 
Q 1981 -91 1556 -91 
Q 1019 -91 701 211 
Q 384 513 384 1019 
Q 384 1609 779 1909 
Q 1175 2209 1959 2209 
L 2766 2209 
L 2766 2266 
Q 2766 2663 2505 2880 
Q 2244 3097 1772 3097 
Q 1472 3097 1187 3025 
Q 903 2953 641 2809 
L 641 3341 
Q 956 3463 1253 3523 
Q 1550 3584 1831 3584 
Q 2591 3584 2966 3190 
Q 3341 2797 3341 1997 
z
" transform="scale(0.015625)"/>
       <path id="DejaVuSans-70" d="M 1159 525 
L 1159 -1331 
L 581 -1331 
L 581 3500 
L 1159 3500 
L 1159 2969 
Q 1341 3281 1617 3432 
Q 1894 3584 2278 3584 
Q 2916 3584 3314 3078 
Q 3713 2572 3713 1747 
Q 3713 922 3314 415 
Q 2916 -91 2278 -91 
Q 1894 -91 1617 61 
Q 1341 213 1159 525 
z
M 3116 1747 
Q 3116 2381 2855 2742 
Q 2594 3103 2138 3103 
Q 1681 3103 1420 2742 
Q 1159 2381 1159 1747 
Q 1159 1113 1420 752 
Q 1681 391 2138 391 
Q 2594 391 2855 752 
Q 3116 1113 3116 1747 
z
" transform="scale(0.015625)"/>
       <path id="DejaVuSans-20" transform="scale(0.015625)"/>
       <path id="DejaVuSans-45" d="M 628 4666 
L 3578 4666 
L 3578 4134 
L 1259 4134 
L 1259 2753 
L 3481 2753 
L 3481 2222 
L 1259 2222 
L 1259 531 
L 3634 531 
L 3634 0 
L 628 0 
L 628 4666 
z
" transform="scale(0.015625)"/>
       <path id="DejaVuSans-6e" d="M 3513 2113 
L 3513 0 
L 2938 0 
L 2938 2094 
Q 2938 2591 2744 2837 
Q 2550 3084 2163 3084 
Q 1697 3084 1428 2787 
Q 1159 2491 1159 1978 
L 1159 0 
L 581 0 
L 581 3500 
L 1159 3500 
L 1159 2956 
Q 1366 3272 1645 3428 
Q 1925 3584 2291 3584 
Q 2894 3584 3203 3211 
Q 3513 2838 3513 2113 
z
" transform="scale(0.015625)"/>
       <path id="DejaVuSans-65" d="M 3597 1894 
L 3597 1613 
L 953 1613 
Q 991 1019 1311 708 
Q 1631 397 2203 397 
Q 2534 397 2845 478 
Q 3156 559 3463 722 
L 3463 178 
Q 3153 47 2828 -22 
Q 2503 -91 2169 -91 
Q 1331 -91 842 396 
Q 353 884 353 1716 
Q 353 2575 817 3079 
Q 1281 3584 2069 3584 
Q 2775 3584 3186 3129 
Q 3597 2675 3597 1894 
z
M 3022 2063 
Q 3016 2534 2758 2815 
Q 2500 3097 2075 3097 
Q 1594 3097 1305 2825 
Q 1016 2553 972 2059 
L 3022 2063 
z
" transform="scale(0.015625)"/>
       <path id="DejaVuSans-72" d="M 2631 2963 
Q 2534 3019 2420 3045 
Q 2306 3072 2169 3072 
Q 1681 3072 1420 2755 
Q 1159 2438 1159 1844 
L 1159 0 
L 581 0 
L 581 3500 
L 1159 3500 
L 1159 2956 
Q 1341 3275 1631 3429 
Q 1922 3584 2338 3584 
Q 2397 3584 2469 3576 
Q 2541 3569 2628 3553 
L 2631 2963 
z
" transform="scale(0.015625)"/>
       <path id="DejaVuSans-67" d="M 2906 1791 
Q 2906 2416 2648 2759 
Q 2391 3103 1925 3103 
Q 1463 3103 1205 2759 
Q 947 2416 947 1791 
Q 947 1169 1205 825 
Q 1463 481 1925 481 
Q 2391 481 2648 825 
Q 2906 1169 2906 1791 
z
M 3481 434 
Q 3481 -459 3084 -895 
Q 2688 -1331 1869 -1331 
Q 1566 -1331 1297 -1286 
Q 1028 -1241 775 -1147 
L 775 -588 
Q 1028 -725 1275 -790 
Q 1522 -856 1778 -856 
Q 2344 -856 2625 -561 
Q 2906 -266 2906 331 
L 2906 616 
Q 2728 306 2450 153 
Q 2172 0 1784 0 
Q 1141 0 747 490 
Q 353 981 353 1791 
Q 353 2603 747 3093 
Q 1141 3584 1784 3584 
Q 2172 3584 2450 3431 
Q 2728 3278 2906 2969 
L 2906 3500 
L 3481 3500 
L 3481 434 
z
" transform="scale(0.015625)"/>
       <path id="DejaVuSans-79" d="M 2059 -325 
Q 1816 -950 1584 -1140 
Q 1353 -1331 966 -1331 
L 506 -1331 
L 506 -850 
L 844 -850 
Q 1081 -850 1212 -737 
Q 1344 -625 1503 -206 
L 1606 56 
L 191 3500 
L 800 3500 
L 1894 763 
L 2988 3500 
L 3597 3500 
L 2059 -325 
z
" transform="scale(0.015625)"/>
       <path id="DejaVuSans-28" d="M 1984 4856 
Q 1566 4138 1362 3434 
Q 1159 2731 1159 2009 
Q 1159 1288 1364 580 
Q 1569 -128 1984 -844 
L 1484 -844 
Q 1016 -109 783 600 
Q 550 1309 550 2009 
Q 550 2706 781 3412 
Q 1013 4119 1484 4856 
L 1984 4856 
z
" transform="scale(0.015625)"/>
       <path id="DejaVuSans-48" d="M 628 4666 
L 1259 4666 
L 1259 2753 
L 3553 2753 
L 3553 4666 
L 4184 4666 
L 4184 0 
L 3553 0 
L 3553 2222 
L 1259 2222 
L 1259 0 
L 628 0 
L 628 4666 
z
" transform="scale(0.015625)"/>
       <path id="DejaVuSans-74" d="M 1172 4494 
L 1172 3500 
L 2356 3500 
L 2356 3053 
L 1172 3053 
L 1172 1153 
Q 1172 725 1289 603 
Q 1406 481 1766 481 
L 2356 481 
L 2356 0 
L 1766 0 
Q 1100 0 847 248 
Q 594 497 594 1153 
L 594 3053 
L 172 3053 
L 172 3500 
L 594 3500 
L 594 4494 
L 1172 4494 
z
" transform="scale(0.015625)"/>
       <path id="DejaVuSans-29" d="M 513 4856 
L 1013 4856 
Q 1481 4119 1714 3412 
Q 1947 2706 1947 2009 
Q 1947 1309 1714 600 
Q 1481 -109 1013 -844 
L 513 -844 
Q 928 -128 1133 580 
Q 1338 1288 1338 2009 
Q 1338 2731 1133 3434 
Q 928 4138 513 4856 
z
" transform="scale(0.015625)"/>
      </defs>
      <use xlink:href="#DejaVuSans-47"/>
      <use xlink:href="#DejaVuSans-61" x="77.490234"/>
      <use xlink:href="#DejaVuSans-70" x="138.769531"/>
      <use xlink:href="#DejaVuSans-20" x="202.246094"/>
      <use xlink:href="#DejaVuSans-45" x="234.033203"/>
      <use xlink:href="#DejaVuSans-6e" x="297.216797"/>
      <use xlink:href="#DejaVuSans-65" x="360.595703"/>
      <use xlink:href="#DejaVuSans-72" x="422.119141"/>
      <use xlink:href="#DejaVuSans-67" x="461.482422"/>
      <use xlink:href="#DejaVuSans-79" x="524.958984"/>
      <use xlink:href="#DejaVuSans-20" x="584.138672"/>
      <use xlink:href="#DejaVuSans-28" x="615.925781"/>
      <use xlink:href="#DejaVuSans-48" x="654.939453"/>
      <use xlink:href="#DejaVuSans-61" x="730.134766"/>
      <use xlink:href="#DejaVuSans-72" x="791.414062"/>
      <use xlink:href="#DejaVuSans-74" x="832.527344"/>
      <use xlink:href="#DejaVuSans-72" x="871.736328"/>
      <use xlink:href="#DejaVuSans-65" x="910.599609"/>
      <use xlink:href="#DejaVuSans-65" x="972.123047"/>
      <use xlink:href="#DejaVuSans-29" x="1033.646484"/>
     </g>
    </g>
   </g>
   <g id="matplotlib.axis_2">
    <g id="ytick_1">
     <g id="line2d_17">
      <path d="M 53.93 315.16 
L 565.2 315.16 
" clip-path="url(#p242136c2ca)" style="fill: none; stroke-dasharray: 2.96,1.28; stroke-dashoffset: 0; stroke: #b0b0b0; stroke-opacity: 0.5; stroke-width: 0.8"/>
     </g>
     <g id="line2d_18">
      <defs>
       <path id="m2c0ea9d03b" d="M 0 0 
L -3.5 0 
" style="stroke: #000000; stroke-width: 0.8"/>
      </defs>
      <g>
       <use xlink:href="#m2c0ea9d03b" x="53.93" y="315.16" style="stroke: #000000; stroke-width: 0.8"/>
      </g>
     </g>
     <g id="text_10">
      <!-- 0 -->
      <g transform="translate(40.5675 318.959219) scale(0.1 -0.1)">
       <use xlink:href="#DejaVuSans-30"/>
      </g>
     </g>
    </g>
    <g id="ytick_2">
     <g id="line2d_19">
      <path d="M 53.93 263.96765 
L 565.2 263.96765 
" clip-path="url(#p242136c2ca)" style="fill: none; stroke-dasharray: 2.96,1.28; stroke-dashoffset: 0; stroke: #b0b0b0; stroke-opacity: 0.5; stroke-width: 0.8"/>
     </g>
     <g id="line2d_20">
      <g>
       <use xlink:href="#m2c0ea9d03b" x="53.93" y="263.96765" style="stroke: #000000; stroke-width: 0.8"/>
      </g>
     </g>
     <g id="text_11">
      <!-- 20 -->
      <g transform="translate(34.205 267.766869) scale(0.1 -0.1)">
       <use xlink:href="#DejaVuSans-32"/>
       <use xlink:href="#DejaVuSans-30" x="63.623047"/>
      </g>
     </g>
    </g>
    <g id="ytick_3">
     <g id="line2d_21">
      <path d="M 53.93 212.7753 
L 565.2 212.7753 
" clip-path="url(#p242136c2ca)" style="fill: none; stroke-dasharray: 2.96,1.28; stroke-dashoffset: 0; stroke: #b0b0b0; stroke-opacity: 0.5; stroke-width: 0.8"/>
     </g>
     <g id="line2d_22">
      <g>
       <use xlink:href="#m2c0ea9d03b" x="53.93" y="212.7753" style="stroke: #000000; stroke-width: 0.8"/>
      </g>
     </g>
     <g id="text_12">
      <!-- 40 -->
      <g transform="translate(34.205 216.574519) scale(0.1 -0.1)">
       <use xlink:href="#DejaVuSans-34"/>
       <use xlink:href="#DejaVuSans-30" x="63.623047"/>
      </g>
     </g>
    </g>
    <g id="ytick_4">
     <g id="line2d_23">
      <path d="M 53.93 161.58295 
L 565.2 161.58295 
" clip-path="url(#p242136c2ca)" style="fill: none; stroke-dasharray: 2.96,1.28; stroke-dashoffset: 0; stroke: #b0b0b0; stroke-opacity: 0.5; stroke-width: 0.8"/>
     </g>
     <g id="line2d_24">
      <g>
       <use xlink:href="#m2c0ea9d03b" x="53.93" y="161.58295" style="stroke: #000000; stroke-width: 0.8"/>
      </g>
     </g>
     <g id="text_13">
      <!-- 60 -->
      <g transform="translate(34.205 165.382169) scale(0.1 -0.1)">
       <use xlink:href="#DejaVuSans-36"/>
       <use xlink:href="#DejaVuSans-30" x="63.623047"/>
      </g>
     </g>
    </g>
    <g id="ytick_5">
     <g id="line2d_25">
      <path d="M 53.93 110.3906 
L 565.2 110.3906 
" clip-path="url(#p242136c2ca)" style="fill: none; stroke-dasharray: 2.96,1.28; stroke-dashoffset: 0; stroke: #b0b0b0; stroke-opacity: 0.5; stroke-width: 0.8"/>
     </g>
     <g id="line2d_26">
      <g>
       <use xlink:href="#m2c0ea9d03b" x="53.93" y="110.3906" style="stroke: #000000; stroke-width: 0.8"/>
      </g>
     </g>
     <g id="text_14">
      <!-- 80 -->
      <g transform="translate(34.205 114.189819) scale(0.1 -0.1)">
       <use xlink:href="#DejaVuSans-38"/>
       <use xlink:href="#DejaVuSans-30" x="63.623047"/>
      </g>
     </g>
    </g>
    <g id="ytick_6">
     <g id="line2d_27">
      <path d="M 53.93 59.19825 
L 565.2 59.19825 
" clip-path="url(#p242136c2ca)" style="fill: none; stroke-dasharray: 2.96,1.28; stroke-dashoffset: 0; stroke: #b0b0b0; stroke-opacity: 0.5; stroke-width: 0.8"/>
     </g>
     <g id="line2d_28">
      <g>
       <use xlink:href="#m2c0ea9d03b" x="53.93" y="59.19825" style="stroke: #000000; stroke-width: 0.8"/>
      </g>
     </g>
     <g id="text_15">
      <!-- 100 -->
      <g transform="translate(27.8425 62.997469) scale(0.1 -0.1)">
       <use xlink:href="#DejaVuSans-31"/>
       <use xlink:href="#DejaVuSans-30" x="63.623047"/>
       <use xlink:href="#DejaVuSans-30" x="127.246094"/>
      </g>
     </g>
    </g>
    <g id="text_16">
     <!-- Density -->
     <g transform="translate(21.138906 196.091172) rotate(-90) scale(0.13 -0.13)">
      <defs>
       <path id="DejaVuSans-44" d="M 1259 4147 
L 1259 519 
L 2022 519 
Q 2988 519 3436 956 
Q 3884 1394 3884 2338 
Q 3884 3275 3436 3711 
Q 2988 4147 2022 4147 
L 1259 4147 
z
M 628 4666 
L 1925 4666 
Q 3281 4666 3915 4102 
Q 4550 3538 4550 2338 
Q 4550 1131 3912 565 
Q 3275 0 1925 0 
L 628 0 
L 628 4666 
z
" transform="scale(0.015625)"/>
       <path id="DejaVuSans-73" d="M 2834 3397 
L 2834 2853 
Q 2591 2978 2328 3040 
Q 2066 3103 1784 3103 
Q 1356 3103 1142 2972 
Q 928 2841 928 2578 
Q 928 2378 1081 2264 
Q 1234 2150 1697 2047 
L 1894 2003 
Q 2506 1872 2764 1633 
Q 3022 1394 3022 966 
Q 3022 478 2636 193 
Q 2250 -91 1575 -91 
Q 1294 -91 989 -36 
Q 684 19 347 128 
L 347 722 
Q 666 556 975 473 
Q 1284 391 1588 391 
Q 1994 391 2212 530 
Q 2431 669 2431 922 
Q 2431 1156 2273 1281 
Q 2116 1406 1581 1522 
L 1381 1569 
Q 847 1681 609 1914 
Q 372 2147 372 2553 
Q 372 3047 722 3315 
Q 1072 3584 1716 3584 
Q 2034 3584 2315 3537 
Q 2597 3491 2834 3397 
z
" transform="scale(0.015625)"/>
       <path id="DejaVuSans-69" d="M 603 3500 
L 1178 3500 
L 1178 0 
L 603 0 
L 603 3500 
z
M 603 4863 
L 1178 4863 
L 1178 4134 
L 603 4134 
L 603 4863 
z
" transform="scale(0.015625)"/>
      </defs>
      <use xlink:href="#DejaVuSans-44"/>
      <use xlink:href="#DejaVuSans-65" x="77.001953"/>
      <use xlink:href="#DejaVuSans-6e" x="138.525391"/>
      <use xlink:href="#DejaVuSans-73" x="201.904297"/>
      <use xlink:href="#DejaVuSans-69" x="254.003906"/>
      <use xlink:href="#DejaVuSans-74" x="281.787109"/>
      <use xlink:href="#DejaVuSans-79" x="320.996094"/>
     </g>
    </g>
   </g>
   <g id="line2d_29">
    <path d="M 276.214087 315.16 
L 276.214087 27.6 
" clip-path="url(#p242136c2ca)" style="fill: none; stroke-dasharray: 5.55,2.4; stroke-dashoffset: 0; stroke: #4169e1; stroke-width: 1.5"/>
   </g>
   <g id="line2d_30">
    <path d="M 195.990943 315.16 
L 195.990943 27.6 
" clip-path="url(#p242136c2ca)" style="fill: none; stroke-dasharray: 5.55,2.4; stroke-dashoffset: 0; stroke: #ff4500; stroke-width: 1.5"/>
   </g>
   <g id="patch_3">
    <path d="M 53.93 315.16 
L 53.93 27.6 
" style="fill: none; stroke: #000000; stroke-width: 0.8; stroke-linejoin: miter; stroke-linecap: square"/>
   </g>
   <g id="patch_4">
    <path d="M 565.2 315.16 
L 565.2 27.6 
" style="fill: none; stroke: #000000; stroke-width: 0.8; stroke-linejoin: miter; stroke-linecap: square"/>
   </g>
   <g id="patch_5">
    <path d="M 53.93 315.16 
L 565.2 315.16 
" style="fill: none; stroke: #000000; stroke-width: 0.8; stroke-linejoin: miter; stroke-linecap: square"/>
   </g>
   <g id="patch_6">
    <path d="M 53.93 27.6 
L 565.2 27.6 
" style="fill: none; stroke: #000000; stroke-width: 0.8; stroke-linejoin: miter; stroke-linecap: square"/>
   </g>
   <g id="text_17">
    <!-- Mean DFT: 0.080 -->
    <g style="fill: #4169e1" transform="translate(64.1554 50.336281) scale(0.11 -0.11)">
     <defs>
      <path id="DejaVuSans-4d" d="M 628 4666 
L 1569 4666 
L 2759 1491 
L 3956 4666 
L 4897 4666 
L 4897 0 
L 4281 0 
L 4281 4097 
L 3078 897 
L 2444 897 
L 1241 4097 
L 1241 0 
L 628 0 
L 628 4666 
z
" transform="scale(0.015625)"/>
      <path id="DejaVuSans-46" d="M 628 4666 
L 3309 4666 
L 3309 4134 
L 1259 4134 
L 1259 2759 
L 3109 2759 
L 3109 2228 
L 1259 2228 
L 1259 0 
L 628 0 
L 628 4666 
z
" transform="scale(0.015625)"/>
      <path id="DejaVuSans-54" d="M -19 4666 
L 3928 4666 
L 3928 4134 
L 2272 4134 
L 2272 0 
L 1638 0 
L 1638 4134 
L -19 4134 
L -19 4666 
z
" transform="scale(0.015625)"/>
      <path id="DejaVuSans-3a" d="M 750 794 
L 1409 794 
L 1409 0 
L 750 0 
L 750 794 
z
M 750 3309 
L 1409 3309 
L 1409 2516 
L 750 2516 
L 750 3309 
z
" transform="scale(0.015625)"/>
     </defs>
     <use xlink:href="#DejaVuSans-4d"/>
     <use xlink:href="#DejaVuSans-65" x="86.279297"/>
     <use xlink:href="#DejaVuSans-61" x="147.802734"/>
     <use xlink:href="#DejaVuSans-6e" x="209.082031"/>
     <use xlink:href="#DejaVuSans-20" x="272.460938"/>
     <use xlink:href="#DejaVuSans-44" x="304.248047"/>
     <use xlink:href="#DejaVuSans-46" x="381.25"/>
     <use xlink:href="#DejaVuSans-54" x="437.019531"/>
     <use xlink:href="#DejaVuSans-3a" x="487.103516"/>
     <use xlink:href="#DejaVuSans-20" x="520.794922"/>
     <use xlink:href="#DejaVuSans-30" x="552.582031"/>
     <use xlink:href="#DejaVuSans-2e" x="616.205078"/>
     <use xlink:href="#DejaVuSans-30" x="647.992188"/>
     <use xlink:href="#DejaVuSans-38" x="711.615234"/>
     <use xlink:href="#DejaVuSans-30" x="775.238281"/>
    </g>
   </g>
   <g id="text_18">
    <!-- Mean Pred: 0.055 -->
    <g style="fill: #ff4500" transform="translate(64.1554 70.465481) scale(0.11 -0.11)">
     <defs>
      <path id="DejaVuSans-50" d="M 1259 4147 
L 1259 2394 
L 2053 2394 
Q 2494 2394 2734 2622 
Q 2975 2850 2975 3272 
Q 2975 3691 2734 3919 
Q 2494 4147 2053 4147 
L 1259 4147 
z
M 628 4666 
L 2053 4666 
Q 2838 4666 3239 4311 
Q 3641 3956 3641 3272 
Q 3641 2581 3239 2228 
Q 2838 1875 2053 1875 
L 1259 1875 
L 1259 0 
L 628 0 
L 628 4666 
z
" transform="scale(0.015625)"/>
      <path id="DejaVuSans-64" d="M 2906 2969 
L 2906 4863 
L 3481 4863 
L 3481 0 
L 2906 0 
L 2906 525 
Q 2725 213 2448 61 
Q 2172 -91 1784 -91 
Q 1150 -91 751 415 
Q 353 922 353 1747 
Q 353 2572 751 3078 
Q 1150 3584 1784 3584 
Q 2172 3584 2448 3432 
Q 2725 3281 2906 2969 
z
M 947 1747 
Q 947 1113 1208 752 
Q 1469 391 1925 391 
Q 2381 391 2643 752 
Q 2906 1113 2906 1747 
Q 2906 2381 2643 2742 
Q 2381 3103 1925 3103 
Q 1469 3103 1208 2742 
Q 947 2381 947 1747 
z
" transform="scale(0.015625)"/>
      <path id="DejaVuSans-35" d="M 691 4666 
L 3169 4666 
L 3169 4134 
L 1269 4134 
L 1269 2991 
Q 1406 3038 1543 3061 
Q 1681 3084 1819 3084 
Q 2600 3084 3056 2656 
Q 3513 2228 3513 1497 
Q 3513 744 3044 326 
Q 2575 -91 1722 -91 
Q 1428 -91 1123 -41 
Q 819 9 494 109 
L 494 744 
Q 775 591 1075 516 
Q 1375 441 1709 441 
Q 2250 441 2565 725 
Q 2881 1009 2881 1497 
Q 2881 1984 2565 2268 
Q 2250 2553 1709 2553 
Q 1456 2553 1204 2497 
Q 953 2441 691 2322 
L 691 4666 
z
" transform="scale(0.015625)"/>
     </defs>
     <use xlink:href="#DejaVuSans-4d"/>
     <use xlink:href="#DejaVuSans-65" x="86.279297"/>
     <use xlink:href="#DejaVuSans-61" x="147.802734"/>
     <use xlink:href="#DejaVuSans-6e" x="209.082031"/>
     <use xlink:href="#DejaVuSans-20" x="272.460938"/>
     <use xlink:href="#DejaVuSans-50" x="304.248047"/>
     <use xlink:href="#DejaVuSans-72" x="362.800781"/>
     <use xlink:href="#DejaVuSans-65" x="401.664062"/>
     <use xlink:href="#DejaVuSans-64" x="463.1875"/>
     <use xlink:href="#DejaVuSans-3a" x="526.664062"/>
     <use xlink:href="#DejaVuSans-20" x="560.355469"/>
     <use xlink:href="#DejaVuSans-30" x="592.142578"/>
     <use xlink:href="#DejaVuSans-2e" x="655.765625"/>
     <use xlink:href="#DejaVuSans-30" x="687.552734"/>
     <use xlink:href="#DejaVuSans-35" x="751.175781"/>
     <use xlink:href="#DejaVuSans-35" x="814.798828"/>
    </g>
   </g>
   <g id="text_19">
    <!-- Density Distribution: DFT vs Predicted Gap -->
    <g transform="translate(160.260469 21.6) scale(0.14 -0.14)">
     <defs>
      <path id="DejaVuSans-62" d="M 3116 1747 
Q 3116 2381 2855 2742 
Q 2594 3103 2138 3103 
Q 1681 3103 1420 2742 
Q 1159 2381 1159 1747 
Q 1159 1113 1420 752 
Q 1681 391 2138 391 
Q 2594 391 2855 752 
Q 3116 1113 3116 1747 
z
M 1159 2969 
Q 1341 3281 1617 3432 
Q 1894 3584 2278 3584 
Q 2916 3584 3314 3078 
Q 3713 2572 3713 1747 
Q 3713 922 3314 415 
Q 2916 -91 2278 -91 
Q 1894 -91 1617 61 
Q 1341 213 1159 525 
L 1159 0 
L 581 0 
L 581 4863 
L 1159 4863 
L 1159 2969 
z
" transform="scale(0.015625)"/>
      <path id="DejaVuSans-75" d="M 544 1381 
L 544 3500 
L 1119 3500 
L 1119 1403 
Q 1119 906 1312 657 
Q 1506 409 1894 409 
Q 2359 409 2629 706 
Q 2900 1003 2900 1516 
L 2900 3500 
L 3475 3500 
L 3475 0 
L 2900 0 
L 2900 538 
Q 2691 219 2414 64 
Q 2138 -91 1772 -91 
Q 1169 -91 856 284 
Q 544 659 544 1381 
z
M 1991 3584 
L 1991 3584 
z
" transform="scale(0.015625)"/>
      <path id="DejaVuSans-6f" d="M 1959 3097 
Q 1497 3097 1228 2736 
Q 959 2375 959 1747 
Q 959 1119 1226 758 
Q 1494 397 1959 397 
Q 2419 397 2687 759 
Q 2956 1122 2956 1747 
Q 2956 2369 2687 2733 
Q 2419 3097 1959 3097 
z
M 1959 3584 
Q 2709 3584 3137 3096 
Q 3566 2609 3566 1747 
Q 3566 888 3137 398 
Q 2709 -91 1959 -91 
Q 1206 -91 779 398 
Q 353 888 353 1747 
Q 353 2609 779 3096 
Q 1206 3584 1959 3584 
z
" transform="scale(0.015625)"/>
      <path id="DejaVuSans-76" d="M 191 3500 
L 800 3500 
L 1894 563 
L 2988 3500 
L 3597 3500 
L 2284 0 
L 1503 0 
L 191 3500 
z
" transform="scale(0.015625)"/>
      <path id="DejaVuSans-63" d="M 3122 3366 
L 3122 2828 
Q 2878 2963 2633 3030 
Q 2388 3097 2138 3097 
Q 1578 3097 1268 2742 
Q 959 2388 959 1747 
Q 959 1106 1268 751 
Q 1578 397 2138 397 
Q 2388 397 2633 464 
Q 2878 531 3122 666 
L 3122 134 
Q 2881 22 2623 -34 
Q 2366 -91 2075 -91 
Q 1284 -91 818 406 
Q 353 903 353 1747 
Q 353 2603 823 3093 
Q 1294 3584 2113 3584 
Q 2378 3584 2631 3529 
Q 2884 3475 3122 3366 
z
" transform="scale(0.015625)"/>
     </defs>
     <use xlink:href="#DejaVuSans-44"/>
     <use xlink:href="#DejaVuSans-65" x="77.001953"/>
     <use xlink:href="#DejaVuSans-6e" x="138.525391"/>
     <use xlink:href="#DejaVuSans-73" x="201.904297"/>
     <use xlink:href="#DejaVuSans-69" x="254.003906"/>
     <use xlink:href="#DejaVuSans-74" x="281.787109"/>
     <use xlink:href="#DejaVuSans-79" x="320.996094"/>
     <use xlink:href="#DejaVuSans-20" x="380.175781"/>
     <use xlink:href="#DejaVuSans-44" x="411.962891"/>
     <use xlink:href="#DejaVuSans-69" x="488.964844"/>
     <use xlink:href="#DejaVuSans-73" x="516.748047"/>
     <use xlink:href="#DejaVuSans-74" x="568.847656"/>
     <use xlink:href="#DejaVuSans-72" x="608.056641"/>
     <use xlink:href="#DejaVuSans-69" x="649.169922"/>
     <use xlink:href="#DejaVuSans-62" x="676.953125"/>
     <use xlink:href="#DejaVuSans-75" x="740.429688"/>
     <use xlink:href="#DejaVuSans-74" x="803.808594"/>
     <use xlink:href="#DejaVuSans-69" x="843.017578"/>
     <use xlink:href="#DejaVuSans-6f" x="870.800781"/>
     <use xlink:href="#DejaVuSans-6e" x="931.982422"/>
     <use xlink:href="#DejaVuSans-3a" x="995.361328"/>
     <use xlink:href="#DejaVuSans-20" x="1029.052734"/>
     <use xlink:href="#DejaVuSans-44" x="1060.839844"/>
     <use xlink:href="#DejaVuSans-46" x="1137.841797"/>
     <use xlink:href="#DejaVuSans-54" x="1193.611328"/>
     <use xlink:href="#DejaVuSans-20" x="1254.695312"/>
     <use xlink:href="#DejaVuSans-76" x="1286.482422"/>
     <use xlink:href="#DejaVuSans-73" x="1345.662109"/>
     <use xlink:href="#DejaVuSans-20" x="1397.761719"/>
     <use xlink:href="#DejaVuSans-50" x="1429.548828"/>
     <use xlink:href="#DejaVuSans-72" x="1488.101562"/>
     <use xlink:href="#DejaVuSans-65" x="1526.964844"/>
     <use xlink:href="#DejaVuSans-64" x="1588.488281"/>
     <use xlink:href="#DejaVuSans-69" x="1651.964844"/>
     <use xlink:href="#DejaVuSans-63" x="1679.748047"/>
     <use xlink:href="#DejaVuSans-74" x="1734.728516"/>
     <use xlink:href="#DejaVuSans-65" x="1773.9375"/>
     <use xlink:href="#DejaVuSans-64" x="1835.460938"/>
     <use xlink:href="#DejaVuSans-20" x="1898.9375"/>
     <use xlink:href="#DejaVuSans-47" x="1930.724609"/>
     <use xlink:href="#DejaVuSans-61" x="2008.214844"/>
     <use xlink:href="#DejaVuSans-70" x="2069.494141"/>
    </g>
   </g>
   <g id="legend_1">
    <g id="patch_7">
     <path d="M 435.6675 72.4275 
L 556.8 72.4275 
Q 559.2 72.4275 559.2 70.0275 
L 559.2 36 
Q 559.2 33.6 556.8 33.6 
L 435.6675 33.6 
Q 433.2675 33.6 433.2675 36 
L 433.2675 70.0275 
Q 433.2675 72.4275 435.6675 72.4275 
z
" style="fill: #ffffff; opacity: 0.8; stroke: #cccccc; stroke-linejoin: miter"/>
    </g>
    <g id="patch_8">
     <path d="M 438.0675 47.518125 
L 462.0675 47.518125 
L 462.0675 39.118125 
L 438.0675 39.118125 
z
" style="fill: #4169e1; fill-opacity: 0.4; stroke: #4169e1; stroke-width: 2; stroke-linejoin: miter"/>
    </g>
    <g id="text_20">
     <!-- DFT gap -->
     <g transform="translate(471.6675 47.518125) scale(0.12 -0.12)">
      <use xlink:href="#DejaVuSans-44"/>
      <use xlink:href="#DejaVuSans-46" x="77.001953"/>
      <use xlink:href="#DejaVuSans-54" x="132.771484"/>
      <use xlink:href="#DejaVuSans-20" x="193.855469"/>
      <use xlink:href="#DejaVuSans-67" x="225.642578"/>
      <use xlink:href="#DejaVuSans-61" x="289.119141"/>
      <use xlink:href="#DejaVuSans-70" x="350.398438"/>
     </g>
    </g>
    <g id="patch_9">
     <path d="M 438.0675 65.131875 
L 462.0675 65.131875 
L 462.0675 56.731875 
L 438.0675 56.731875 
z
" style="fill: #ff4500; fill-opacity: 0.4; stroke: #ff4500; stroke-width: 2; stroke-linejoin: miter"/>
    </g>
    <g id="text_21">
     <!-- Predicted gap -->
     <g transform="translate(471.6675 65.131875) scale(0.12 -0.12)">
      <use xlink:href="#DejaVuSans-50"/>
      <use xlink:href="#DejaVuSans-72" x="58.552734"/>
      <use xlink:href="#DejaVuSans-65" x="97.416016"/>
      <use xlink:href="#DejaVuSans-64" x="158.939453"/>
      <use xlink:href="#DejaVuSans-69" x="222.416016"/>
      <use xlink:href="#DejaVuSans-63" x="250.199219"/>
      <use xlink:href="#DejaVuSans-74" x="305.179688"/>
      <use xlink:href="#DejaVuSans-65" x="344.388672"/>
      <use xlink:href="#DejaVuSans-64" x="405.912109"/>
      <use xlink:href="#DejaVuSans-20" x="469.388672"/>
      <use xlink:href="#DejaVuSans-67" x="501.175781"/>
      <use xlink:href="#DejaVuSans-61" x="564.652344"/>
      <use xlink:href="#DejaVuSans-70" x="625.931641"/>
     </g>
    </g>
   </g>
  </g>
 </g>
 <defs>
  <clipPath id="p242136c2ca">
   <rect x="53.93" y="27.6" width="511.27" height="287.56"/>
  </clipPath>
 </defs>
</svg>
