<?xml version="1.0" encoding="utf-8" standalone="no"?>
<!DOCTYPE svg PUBLIC "-//W3C//DTD SVG 1.1//EN"
  "http://www.w3.org/Graphics/SVG/1.1/DTD/svg11.dtd">
<svg xmlns:xlink="http://www.w3.org/1999/xlink" width="576pt" height="360pt" viewBox="0 0 576 360" xmlns="http://www.w3.org/2000/svg" version="1.1">
 <metadata>
  <rdf:RDF xmlns:dc="http://purl.org/dc/elements/1.1/" xmlns:cc="http://creativecommons.org/ns#" xmlns:rdf="http://www.w3.org/1999/02/22-rdf-syntax-ns#">
   <cc:Work>
    <dc:type rdf:resource="http://purl.org/dc/dcmitype/StillImage"/>
    <dc:date>2025-05-06T16:13:47.201954</dc:date>
    <dc:format>image/svg+xml</dc:format>
    <dc:creator>
     <cc:Agent>
      <dc:title>Matplotlib v3.9.2, https://matplotlib.org/</dc:title>
     </cc:Agent>
    </dc:creator>
   </cc:Work>
  </rdf:RDF>
 </metadata>
 <defs>
  <style type="text/css">*{stroke-linejoin: round; stroke-linecap: butt}</style>
 </defs>
 <g id="figure_1">
  <g id="patch_1">
   <path d="M 0 360 
L 576 360 
L 576 0 
L 0 0 
z
" style="fill: #ffffff"/>
  </g>
  <g id="axes_1">
   <g id="patch_2">
    <path d="M 47.54 315.16 
L 547.115021 315.16 
L 547.115021 27.6 
L 47.54 27.6 
z
" style="fill: #ffffff"/>
   </g>
   <g id="PolyCollection_1">
    <defs>
     <path id="me3d879173a" d="M 70.247956 -44.872694 
L 70.247956 -44.84 
L 72.530162 -44.84 
L 74.812369 -44.84 
L 77.094575 -44.84 
L 79.376782 -44.84 
L 81.658988 -44.84 
L 83.941195 -44.84 
L 86.223402 -44.84 
L 88.505608 -44.84 
L 90.787815 -44.84 
L 93.070021 -44.84 
L 95.352228 -44.84 
L 97.634435 -44.84 
L 99.916641 -44.84 
L 102.198848 -44.84 
L 104.481054 -44.84 
L 106.763261 -44.84 
L 109.045467 -44.84 
L 111.327674 -44.84 
L 113.609881 -44.84 
L 115.892087 -44.84 
L 118.174294 -44.84 
L 120.4565 -44.84 
L 122.738707 -44.84 
L 125.020914 -44.84 
L 127.30312 -44.84 
L 129.585327 -44.84 
L 131.867533 -44.84 
L 134.14974 -44.84 
L 136.431946 -44.84 
L 138.714153 -44.84 
L 140.99636 -44.84 
L 143.278566 -44.84 
L 145.560773 -44.84 
L 147.842979 -44.84 
L 150.125186 -44.84 
L 152.407393 -44.84 
L 154.689599 -44.84 
L 156.971806 -44.84 
L 159.254012 -44.84 
L 161.536219 -44.84 
L 163.818425 -44.84 
L 166.100632 -44.84 
L 168.382839 -44.84 
L 170.665045 -44.84 
L 172.947252 -44.84 
L 175.229458 -44.84 
L 177.511665 -44.84 
L 179.793872 -44.84 
L 182.076078 -44.84 
L 184.358285 -44.84 
L 186.640491 -44.84 
L 188.922698 -44.84 
L 191.204904 -44.84 
L 193.487111 -44.84 
L 195.769318 -44.84 
L 198.051524 -44.84 
L 200.333731 -44.84 
L 202.615937 -44.84 
L 204.898144 -44.84 
L 207.180351 -44.84 
L 209.462557 -44.84 
L 211.744764 -44.84 
L 214.02697 -44.84 
L 216.309177 -44.84 
L 218.591383 -44.84 
L 220.87359 -44.84 
L 223.155797 -44.84 
L 225.438003 -44.84 
L 227.72021 -44.84 
L 230.002416 -44.84 
L 232.284623 -44.84 
L 234.56683 -44.84 
L 236.849036 -44.84 
L 239.131243 -44.84 
L 241.413449 -44.84 
L 243.695656 -44.84 
L 245.977862 -44.84 
L 248.260069 -44.84 
L 250.542276 -44.84 
L 252.824482 -44.84 
L 255.106689 -44.84 
L 257.388895 -44.84 
L 259.671102 -44.84 
L 261.953309 -44.84 
L 264.235515 -44.84 
L 266.517722 -44.84 
L 268.799928 -44.84 
L 271.082135 -44.84 
L 273.364341 -44.84 
L 275.646548 -44.84 
L 277.928755 -44.84 
L 280.210961 -44.84 
L 282.493168 -44.84 
L 284.775374 -44.84 
L 287.057581 -44.84 
L 289.339788 -44.84 
L 291.621994 -44.84 
L 293.904201 -44.84 
L 296.186407 -44.84 
L 298.468614 -44.84 
L 300.75082 -44.84 
L 303.033027 -44.84 
L 305.315234 -44.84 
L 307.59744 -44.84 
L 309.879647 -44.84 
L 312.161853 -44.84 
L 314.44406 -44.84 
L 316.726267 -44.84 
L 319.008473 -44.84 
L 321.29068 -44.84 
L 323.572886 -44.84 
L 325.855093 -44.84 
L 328.137299 -44.84 
L 330.419506 -44.84 
L 332.701713 -44.84 
L 334.983919 -44.84 
L 337.266126 -44.84 
L 339.548332 -44.84 
L 341.830539 -44.84 
L 344.112746 -44.84 
L 346.394952 -44.84 
L 348.677159 -44.84 
L 350.959365 -44.84 
L 353.241572 -44.84 
L 355.523778 -44.84 
L 357.805985 -44.84 
L 360.088192 -44.84 
L 362.370398 -44.84 
L 364.652605 -44.84 
L 366.934811 -44.84 
L 369.217018 -44.84 
L 371.499225 -44.84 
L 373.781431 -44.84 
L 376.063638 -44.84 
L 378.345844 -44.84 
L 380.628051 -44.84 
L 382.910258 -44.84 
L 385.192464 -44.84 
L 387.474671 -44.84 
L 389.756877 -44.84 
L 392.039084 -44.84 
L 394.32129 -44.84 
L 396.603497 -44.84 
L 398.885704 -44.84 
L 401.16791 -44.84 
L 403.450117 -44.84 
L 405.732323 -44.84 
L 408.01453 -44.84 
L 410.296737 -44.84 
L 412.578943 -44.84 
L 414.86115 -44.84 
L 417.143356 -44.84 
L 419.425563 -44.84 
L 421.707769 -44.84 
L 423.989976 -44.84 
L 426.272183 -44.84 
L 428.554389 -44.84 
L 430.836596 -44.84 
L 433.118802 -44.84 
L 435.401009 -44.84 
L 437.683216 -44.84 
L 439.965422 -44.84 
L 442.247629 -44.84 
L 444.529835 -44.84 
L 446.812042 -44.84 
L 449.094248 -44.84 
L 451.376455 -44.84 
L 453.658662 -44.84 
L 455.940868 -44.84 
L 458.223075 -44.84 
L 460.505281 -44.84 
L 462.787488 -44.84 
L 465.069695 -44.84 
L 467.351901 -44.84 
L 469.634108 -44.84 
L 471.916314 -44.84 
L 474.198521 -44.84 
L 476.480727 -44.84 
L 478.762934 -44.84 
L 481.045141 -44.84 
L 483.327347 -44.84 
L 485.609554 -44.84 
L 487.89176 -44.84 
L 490.173967 -44.84 
L 492.456174 -44.84 
L 494.73838 -44.84 
L 497.020587 -44.84 
L 499.302793 -44.84 
L 501.585 -44.84 
L 503.867206 -44.84 
L 506.149413 -44.84 
L 508.43162 -44.84 
L 510.713826 -44.84 
L 512.996033 -44.84 
L 515.278239 -44.84 
L 517.560446 -44.84 
L 519.842653 -44.84 
L 522.124859 -44.84 
L 524.407066 -44.84 
L 524.407066 -44.871275 
L 524.407066 -44.871275 
L 522.124859 -44.882628 
L 519.842653 -44.897465 
L 517.560446 -44.916619 
L 515.278239 -44.941039 
L 512.996033 -44.971784 
L 510.713826 -45.010006 
L 508.43162 -45.056921 
L 506.149413 -45.113768 
L 503.867206 -45.181758 
L 501.585 -45.262011 
L 499.302793 -45.355487 
L 497.020587 -45.462909 
L 494.73838 -45.584695 
L 492.456174 -45.720892 
L 490.173967 -45.871129 
L 487.89176 -46.034605 
L 485.609554 -46.210104 
L 483.327347 -46.396061 
L 481.045141 -46.590684 
L 478.762934 -46.792132 
L 476.480727 -46.998755 
L 474.198521 -47.20939 
L 471.916314 -47.423718 
L 469.634108 -47.642649 
L 467.351901 -47.868735 
L 465.069695 -48.106589 
L 462.787488 -48.363267 
L 460.505281 -48.64861 
L 458.223075 -48.975487 
L 455.940868 -49.359934 
L 453.658662 -49.821139 
L 451.376455 -50.381269 
L 449.094248 -51.065093 
L 446.812042 -51.899423 
L 444.529835 -52.912345 
L 442.247629 -54.132271 
L 439.965422 -55.586836 
L 437.683216 -57.301678 
L 435.401009 -59.299159 
L 433.118802 -61.597109 
L 430.836596 -64.207656 
L 428.554389 -67.136235 
L 426.272183 -70.380866 
L 423.989976 -73.931771 
L 421.707769 -77.771386 
L 419.425563 -81.874821 
L 417.143356 -86.210764 
L 414.86115 -90.742809 
L 412.578943 -95.431149 
L 410.296737 -100.234534 
L 408.01453 -105.112384 
L 405.732323 -110.026894 
L 403.450117 -114.945001 
L 401.16791 -119.840038 
L 398.885704 -124.692963 
L 396.603497 -129.493041 
L 394.32129 -134.237927 
L 392.039084 -138.933114 
L 389.756877 -143.590793 
L 387.474671 -148.228181 
L 385.192464 -152.865454 
L 382.910258 -157.523418 
L 380.628051 -162.221094 
L 378.345844 -166.973394 
L 376.063638 -171.789047 
L 373.781431 -176.668925 
L 371.499225 -181.604894 
L 369.217018 -186.579242 
L 366.934811 -191.564759 
L 364.652605 -196.525419 
L 362.370398 -201.417653 
L 360.088192 -206.192102 
L 357.805985 -210.795755 
L 355.523778 -215.174326 
L 353.241572 -219.274727 
L 350.959365 -223.047489 
L 348.677159 -226.448977 
L 346.394952 -229.443282 
L 344.112746 -232.003661 
L 341.830539 -234.113465 
L 339.548332 -235.766486 
L 337.266126 -236.966733 
L 334.983919 -237.72764 
L 332.701713 -238.070778 
L 330.419506 -238.024169 
L 328.137299 -237.620307 
L 325.855093 -236.894029 
L 323.572886 -235.88038 
L 321.29068 -234.612618 
L 319.008473 -233.120474 
L 316.726267 -231.428801 
L 314.44406 -229.556664 
L 312.161853 -227.516944 
L 309.879647 -225.316452 
L 307.59744 -222.956526 
L 305.315234 -220.434062 
L 303.033027 -217.74289 
L 300.75082 -214.875379 
L 298.468614 -211.824164 
L 296.186407 -208.583853 
L 293.904201 -205.152617 
L 291.621994 -201.533525 
L 289.339788 -197.735561 
L 287.057581 -193.774241 
L 284.775374 -189.671791 
L 282.493168 -185.456895 
L 280.210961 -181.164001 
L 277.928755 -176.832263 
L 275.646548 -172.504166 
L 273.364341 -168.223934 
L 271.082135 -164.035806 
L 268.799928 -159.982294 
L 266.517722 -156.102525 
L 264.235515 -152.430741 
L 261.953309 -148.995058 
L 259.671102 -145.816517 
L 257.388895 -142.908493 
L 255.106689 -140.276443 
L 252.824482 -137.918009 
L 250.542276 -135.823446 
L 248.260069 -133.976325 
L 245.977862 -132.354457 
L 243.695656 -130.930987 
L 241.413449 -129.675592 
L 239.131243 -128.555718 
L 236.849036 -127.5378 
L 234.56683 -126.588425 
L 232.284623 -125.675394 
L 230.002416 -124.76864 
L 227.72021 -123.841002 
L 225.438003 -122.868822 
L 223.155797 -121.83236 
L 220.87359 -120.71604 
L 218.591383 -119.508514 
L 216.309177 -118.202568 
L 214.02697 -116.794884 
L 211.744764 -115.285675 
L 209.462557 -113.678219 
L 207.180351 -111.978327 
L 204.898144 -110.193762 
L 202.615937 -108.333654 
L 200.333731 -106.407931 
L 198.051524 -104.4268 
L 195.769318 -102.400302 
L 193.487111 -100.337949 
L 191.204904 -98.248477 
L 188.922698 -96.139693 
L 186.640491 -94.018438 
L 184.358285 -91.890642 
L 182.076078 -89.761459 
L 179.793872 -87.635464 
L 177.511665 -85.516883 
L 175.229458 -83.409837 
L 172.947252 -81.318572 
L 170.665045 -79.24764 
L 168.382839 -77.202042 
L 166.100632 -75.187288 
L 163.818425 -73.209385 
L 161.536219 -71.274755 
L 159.254012 -69.390085 
L 156.971806 -67.56212 
L 154.689599 -65.797433 
L 152.407393 -64.102171 
L 150.125186 -62.481821 
L 147.842979 -60.941001 
L 145.560773 -59.483297 
L 143.278566 -58.111162 
L 140.99636 -56.825874 
L 138.714153 -55.627564 
L 136.431946 -54.515296 
L 134.14974 -53.487196 
L 131.867533 -52.540609 
L 129.585327 -51.672278 
L 127.30312 -50.878517 
L 125.020914 -50.155384 
L 122.738707 -49.498814 
L 120.4565 -48.904737 
L 118.174294 -48.369161 
L 115.892087 -47.888217 
L 113.609881 -47.458186 
L 111.327674 -47.0755 
L 109.045467 -46.73673 
L 106.763261 -46.438566 
L 104.481054 -46.1778 
L 102.198848 -45.951306 
L 99.916641 -45.756034 
L 97.634435 -45.589009 
L 95.352228 -45.447338 
L 93.070021 -45.328228 
L 90.787815 -45.229004 
L 88.505608 -45.147132 
L 86.223402 -45.080239 
L 83.941195 -45.026134 
L 81.658988 -44.982824 
L 79.376782 -44.948519 
L 77.094575 -44.921634 
L 74.812369 -44.900793 
L 72.530162 -44.884813 
L 70.247956 -44.872694 
z
" style="stroke: #4169e1; stroke-width: 2"/>
    </defs>
    <g clip-path="url(#p96e492717c)">
     <use xlink:href="#me3d879173a" x="0" y="360" style="fill: #4169e1; fill-opacity: 0.4; stroke: #4169e1; stroke-width: 2"/>
    </g>
   </g>
   <g id="PolyCollection_2">
    <defs>
     <path id="mae02dded87" d="M 207.88231 -44.94953 
L 207.88231 -44.84 
L 209.28916 -44.84 
L 210.696011 -44.84 
L 212.102861 -44.84 
L 213.509712 -44.84 
L 214.916562 -44.84 
L 216.323413 -44.84 
L 217.730263 -44.84 
L 219.137113 -44.84 
L 220.543964 -44.84 
L 221.950814 -44.84 
L 223.357665 -44.84 
L 224.764515 -44.84 
L 226.171366 -44.84 
L 227.578216 -44.84 
L 228.985066 -44.84 
L 230.391917 -44.84 
L 231.798767 -44.84 
L 233.205618 -44.84 
L 234.612468 -44.84 
L 236.019319 -44.84 
L 237.426169 -44.84 
L 238.833019 -44.84 
L 240.23987 -44.84 
L 241.64672 -44.84 
L 243.053571 -44.84 
L 244.460421 -44.84 
L 245.867272 -44.84 
L 247.274122 -44.84 
L 248.680972 -44.84 
L 250.087823 -44.84 
L 251.494673 -44.84 
L 252.901524 -44.84 
L 254.308374 -44.84 
L 255.715225 -44.84 
L 257.122075 -44.84 
L 258.528925 -44.84 
L 259.935776 -44.84 
L 261.342626 -44.84 
L 262.749477 -44.84 
L 264.156327 -44.84 
L 265.563178 -44.84 
L 266.970028 -44.84 
L 268.376878 -44.84 
L 269.783729 -44.84 
L 271.190579 -44.84 
L 272.59743 -44.84 
L 274.00428 -44.84 
L 275.411131 -44.84 
L 276.817981 -44.84 
L 278.224831 -44.84 
L 279.631682 -44.84 
L 281.038532 -44.84 
L 282.445383 -44.84 
L 283.852233 -44.84 
L 285.259083 -44.84 
L 286.665934 -44.84 
L 288.072784 -44.84 
L 289.479635 -44.84 
L 290.886485 -44.84 
L 292.293336 -44.84 
L 293.700186 -44.84 
L 295.107036 -44.84 
L 296.513887 -44.84 
L 297.920737 -44.84 
L 299.327588 -44.84 
L 300.734438 -44.84 
L 302.141289 -44.84 
L 303.548139 -44.84 
L 304.954989 -44.84 
L 306.36184 -44.84 
L 307.76869 -44.84 
L 309.175541 -44.84 
L 310.582391 -44.84 
L 311.989242 -44.84 
L 313.396092 -44.84 
L 314.802942 -44.84 
L 316.209793 -44.84 
L 317.616643 -44.84 
L 319.023494 -44.84 
L 320.430344 -44.84 
L 321.837195 -44.84 
L 323.244045 -44.84 
L 324.650895 -44.84 
L 326.057746 -44.84 
L 327.464596 -44.84 
L 328.871447 -44.84 
L 330.278297 -44.84 
L 331.685148 -44.84 
L 333.091998 -44.84 
L 334.498848 -44.84 
L 335.905699 -44.84 
L 337.312549 -44.84 
L 338.7194 -44.84 
L 340.12625 -44.84 
L 341.533101 -44.84 
L 342.939951 -44.84 
L 344.346801 -44.84 
L 345.753652 -44.84 
L 347.160502 -44.84 
L 348.567353 -44.84 
L 349.974203 -44.84 
L 351.381054 -44.84 
L 352.787904 -44.84 
L 354.194754 -44.84 
L 355.601605 -44.84 
L 357.008455 -44.84 
L 358.415306 -44.84 
L 359.822156 -44.84 
L 361.229007 -44.84 
L 362.635857 -44.84 
L 364.042707 -44.84 
L 365.449558 -44.84 
L 366.856408 -44.84 
L 368.263259 -44.84 
L 369.670109 -44.84 
L 371.07696 -44.84 
L 372.48381 -44.84 
L 373.89066 -44.84 
L 375.297511 -44.84 
L 376.704361 -44.84 
L 378.111212 -44.84 
L 379.518062 -44.84 
L 380.924912 -44.84 
L 382.331763 -44.84 
L 383.738613 -44.84 
L 385.145464 -44.84 
L 386.552314 -44.84 
L 387.959165 -44.84 
L 389.366015 -44.84 
L 390.772865 -44.84 
L 392.179716 -44.84 
L 393.586566 -44.84 
L 394.993417 -44.84 
L 396.400267 -44.84 
L 397.807118 -44.84 
L 399.213968 -44.84 
L 400.620818 -44.84 
L 402.027669 -44.84 
L 403.434519 -44.84 
L 404.84137 -44.84 
L 406.24822 -44.84 
L 407.655071 -44.84 
L 409.061921 -44.84 
L 410.468771 -44.84 
L 411.875622 -44.84 
L 413.282472 -44.84 
L 414.689323 -44.84 
L 416.096173 -44.84 
L 417.503024 -44.84 
L 418.909874 -44.84 
L 420.316724 -44.84 
L 421.723575 -44.84 
L 423.130425 -44.84 
L 424.537276 -44.84 
L 425.944126 -44.84 
L 427.350977 -44.84 
L 428.757827 -44.84 
L 430.164677 -44.84 
L 431.571528 -44.84 
L 432.978378 -44.84 
L 434.385229 -44.84 
L 435.792079 -44.84 
L 437.19893 -44.84 
L 438.60578 -44.84 
L 440.01263 -44.84 
L 441.419481 -44.84 
L 442.826331 -44.84 
L 444.233182 -44.84 
L 445.640032 -44.84 
L 447.046883 -44.84 
L 448.453733 -44.84 
L 449.860583 -44.84 
L 451.267434 -44.84 
L 452.674284 -44.84 
L 454.081135 -44.84 
L 455.487985 -44.84 
L 456.894836 -44.84 
L 458.301686 -44.84 
L 459.708536 -44.84 
L 461.115387 -44.84 
L 462.522237 -44.84 
L 463.929088 -44.84 
L 465.335938 -44.84 
L 466.742789 -44.84 
L 468.149639 -44.84 
L 469.556489 -44.84 
L 470.96334 -44.84 
L 472.37019 -44.84 
L 473.777041 -44.84 
L 475.183891 -44.84 
L 476.590741 -44.84 
L 477.997592 -44.84 
L 479.404442 -44.84 
L 480.811293 -44.84 
L 482.218143 -44.84 
L 483.624994 -44.84 
L 485.031844 -44.84 
L 486.438694 -44.84 
L 487.845545 -44.84 
L 487.845545 -44.890067 
L 487.845545 -44.890067 
L 486.438694 -44.907483 
L 485.031844 -44.930093 
L 483.624994 -44.959142 
L 482.218143 -44.996079 
L 480.811293 -45.042559 
L 479.404442 -45.100448 
L 477.997592 -45.171807 
L 476.590741 -45.258872 
L 475.183891 -45.364025 
L 473.777041 -45.489752 
L 472.37019 -45.638585 
L 470.96334 -45.813048 
L 469.556489 -46.015588 
L 468.149639 -46.248512 
L 466.742789 -46.513927 
L 465.335938 -46.813689 
L 463.929088 -47.149372 
L 462.522237 -47.522254 
L 461.115387 -47.933331 
L 459.708536 -48.383363 
L 458.301686 -48.872941 
L 456.894836 -49.402591 
L 455.487985 -49.972887 
L 454.081135 -50.584587 
L 452.674284 -51.238767 
L 451.267434 -51.936946 
L 449.860583 -52.681188 
L 448.453733 -53.474162 
L 447.046883 -54.319161 
L 445.640032 -55.220057 
L 444.233182 -56.181188 
L 442.826331 -57.207189 
L 441.419481 -58.302755 
L 440.01263 -59.472361 
L 438.60578 -60.71994 
L 437.19893 -62.048558 
L 435.792079 -63.460099 
L 434.385229 -64.954983 
L 432.978378 -66.531965 
L 431.571528 -68.188007 
L 430.164677 -69.918284 
L 428.757827 -71.716303 
L 427.350977 -73.574166 
L 425.944126 -75.482971 
L 424.537276 -77.433332 
L 423.130425 -79.416019 
L 421.723575 -81.422669 
L 420.316724 -83.446545 
L 418.909874 -85.483303 
L 417.503024 -87.53172 
L 416.096173 -89.594332 
L 414.689323 -91.677949 
L 413.282472 -93.793997 
L 411.875622 -95.958656 
L 410.468771 -98.192768 
L 409.061921 -100.521496 
L 407.655071 -102.973734 
L 406.24822 -105.581277 
L 404.84137 -108.377764 
L 403.434519 -111.397444 
L 402.027669 -114.673798 
L 400.620818 -118.238093 
L 399.213968 -122.117909 
L 397.807118 -126.335744 
L 396.400267 -130.907743 
L 394.993417 -135.842641 
L 393.586566 -141.14097 
L 392.179716 -146.794595 
L 390.772865 -152.786608 
L 389.366015 -159.091597 
L 387.959165 -165.676292 
L 386.552314 -172.500552 
L 385.145464 -179.518658 
L 383.738613 -186.680829 
L 382.331763 -193.934896 
L 380.924912 -201.228033 
L 379.518062 -208.508445 
L 378.111212 -215.726937 
L 376.704361 -222.83826 
L 375.297511 -229.802183 
L 373.89066 -236.584229 
L 372.48381 -243.156056 
L 371.07696 -249.495476 
L 369.670109 -255.586139 
L 368.263259 -261.416912 
L 366.856408 -266.981029 
L 365.449558 -272.275081 
L 364.042707 -277.297917 
L 362.635857 -282.04957 
L 361.229007 -286.530255 
L 359.822156 -290.739541 
L 358.415306 -294.675739 
L 357.008455 -298.33555 
L 355.601605 -301.714002 
L 354.194754 -304.804652 
L 352.787904 -307.600055 
L 351.381054 -310.092421 
L 349.974203 -312.274431 
L 348.567353 -314.140098 
L 347.160502 -315.685621 
L 345.753652 -316.910124 
L 344.346801 -317.816212 
L 342.939951 -318.410279 
L 341.533101 -318.702528 
L 340.12625 -318.706667 
L 338.7194 -318.439309 
L 337.312549 -317.919097 
L 335.905699 -317.165608 
L 334.498848 -316.198138 
L 333.091998 -315.034427 
L 331.685148 -313.689462 
L 330.278297 -312.174424 
L 328.871447 -310.49589 
L 327.464596 -308.655353 
L 326.057746 -306.649107 
L 324.650895 -304.468536 
L 323.244045 -302.100776 
L 321.837195 -299.529753 
L 320.430344 -296.737502 
L 319.023494 -293.705733 
L 317.616643 -290.417509 
L 316.209793 -286.858969 
L 314.802942 -283.020971 
L 313.396092 -278.900568 
L 311.989242 -274.50221 
L 310.582391 -269.838607 
L 309.175541 -264.93119 
L 307.76869 -259.810126 
L 306.36184 -254.513881 
L 304.954989 -249.088331 
L 303.548139 -243.585455 
L 302.141289 -238.061681 
L 300.734438 -232.57593 
L 299.327588 -227.187474 
L 297.920737 -221.9537 
L 296.513887 -216.927883 
L 295.107036 -212.157084 
L 293.700186 -207.680258 
L 292.293336 -203.526685 
L 290.886485 -199.714767 
L 289.479635 -196.25127 
L 288.072784 -193.131021 
L 286.665934 -190.337085 
L 285.259083 -187.841388 
L 283.852233 -185.605767 
L 282.445383 -183.583377 
L 281.038532 -181.720408 
L 279.631682 -179.958014 
L 278.224831 -178.23439 
L 276.817981 -176.486906 
L 275.411131 -174.654224 
L 274.00428 -172.678323 
L 272.59743 -170.506369 
L 271.190579 -168.09237 
L 269.783729 -165.398572 
L 268.376878 -162.396564 
L 266.970028 -159.068051 
L 265.563178 -155.405299 
L 264.156327 -151.411225 
L 262.749477 -147.099145 
L 261.342626 -142.4922 
L 259.935776 -137.622463 
L 258.528925 -132.529786 
L 257.122075 -127.260408 
L 255.715225 -121.865397 
L 254.308374 -116.398972 
L 252.901524 -110.916775 
L 251.494673 -105.474164 
L 250.087823 -100.124581 
L 248.680972 -94.918077 
L 247.274122 -89.900023 
L 245.867272 -85.110066 
L 244.460421 -80.581356 
L 243.053571 -76.340051 
L 241.64672 -72.405113 
L 240.23987 -68.788375 
L 238.833019 -65.494842 
L 237.426169 -62.523217 
L 236.019319 -59.866582 
L 234.612468 -57.513199 
L 233.205618 -55.447392 
L 231.798767 -53.650442 
L 230.391917 -52.10148 
L 228.985066 -50.778317 
L 227.578216 -49.658212 
L 226.171366 -48.718525 
L 224.764515 -47.937278 
L 223.357665 -47.293588 
L 221.950814 -46.767997 
L 220.543964 -46.342693 
L 219.137113 -46.001635 
L 217.730263 -45.730595 
L 216.323413 -45.517141 
L 214.916562 -45.350555 
L 213.509712 -45.221723 
L 212.102861 -45.122991 
L 210.696011 -45.048014 
L 209.28916 -44.991596 
L 207.88231 -44.94953 
z
" style="stroke: #ff4500; stroke-width: 2"/>
    </defs>
    <g clip-path="url(#p96e492717c)">
     <use xlink:href="#mae02dded87" x="0" y="360" style="fill: #ff4500; fill-opacity: 0.4; stroke: #ff4500; stroke-width: 2"/>
    </g>
   </g>
   <g id="matplotlib.axis_1">
    <g id="xtick_1">
     <g id="line2d_1">
      <path d="M 67.592947 315.16 
L 67.592947 27.6 
" clip-path="url(#p96e492717c)" style="fill: none; stroke-dasharray: 2.96,1.28; stroke-dashoffset: 0; stroke: #b0b0b0; stroke-opacity: 0.5; stroke-width: 0.8"/>
     </g>
     <g id="line2d_2">
      <defs>
       <path id="m436cafc967" d="M 0 0 
L 0 3.5 
" style="stroke: #000000; stroke-width: 0.8"/>
      </defs>
      <g>
       <use xlink:href="#m436cafc967" x="67.592947" y="315.16" style="stroke: #000000; stroke-width: 0.8"/>
      </g>
     </g>
     <g id="text_1">
      <!-- −0.300 -->
      <g transform="translate(49.089041 329.758438) scale(0.1 -0.1)">
       <defs>
        <path id="DejaVuSans-2212" d="M 678 2272 
L 4684 2272 
L 4684 1741 
L 678 1741 
L 678 2272 
z
" transform="scale(0.015625)"/>
        <path id="DejaVuSans-30" d="M 2034 4250 
Q 1547 4250 1301 3770 
Q 1056 3291 1056 2328 
Q 1056 1369 1301 889 
Q 1547 409 2034 409 
Q 2525 409 2770 889 
Q 3016 1369 3016 2328 
Q 3016 3291 2770 3770 
Q 2525 4250 2034 4250 
z
M 2034 4750 
Q 2819 4750 3233 4129 
Q 3647 3509 3647 2328 
Q 3647 1150 3233 529 
Q 2819 -91 2034 -91 
Q 1250 -91 836 529 
Q 422 1150 422 2328 
Q 422 3509 836 4129 
Q 1250 4750 2034 4750 
z
" transform="scale(0.015625)"/>
        <path id="DejaVuSans-2e" d="M 684 794 
L 1344 794 
L 1344 0 
L 684 0 
L 684 794 
z
" transform="scale(0.015625)"/>
        <path id="DejaVuSans-33" d="M 2597 2516 
Q 3050 2419 3304 2112 
Q 3559 1806 3559 1356 
Q 3559 666 3084 287 
Q 2609 -91 1734 -91 
Q 1441 -91 1130 -33 
Q 819 25 488 141 
L 488 750 
Q 750 597 1062 519 
Q 1375 441 1716 441 
Q 2309 441 2620 675 
Q 2931 909 2931 1356 
Q 2931 1769 2642 2001 
Q 2353 2234 1838 2234 
L 1294 2234 
L 1294 2753 
L 1863 2753 
Q 2328 2753 2575 2939 
Q 2822 3125 2822 3475 
Q 2822 3834 2567 4026 
Q 2313 4219 1838 4219 
Q 1578 4219 1281 4162 
Q 984 4106 628 3988 
L 628 4550 
Q 988 4650 1302 4700 
Q 1616 4750 1894 4750 
Q 2613 4750 3031 4423 
Q 3450 4097 3450 3541 
Q 3450 3153 3228 2886 
Q 3006 2619 2597 2516 
z
" transform="scale(0.015625)"/>
       </defs>
       <use xlink:href="#DejaVuSans-2212"/>
       <use xlink:href="#DejaVuSans-30" x="83.789062"/>
       <use xlink:href="#DejaVuSans-2e" x="147.412109"/>
       <use xlink:href="#DejaVuSans-33" x="179.199219"/>
       <use xlink:href="#DejaVuSans-30" x="242.822266"/>
       <use xlink:href="#DejaVuSans-30" x="306.445312"/>
      </g>
     </g>
    </g>
    <g id="xtick_2">
     <g id="line2d_3">
      <path d="M 136.023355 315.16 
L 136.023355 27.6 
" clip-path="url(#p96e492717c)" style="fill: none; stroke-dasharray: 2.96,1.28; stroke-dashoffset: 0; stroke: #b0b0b0; stroke-opacity: 0.5; stroke-width: 0.8"/>
     </g>
     <g id="line2d_4">
      <g>
       <use xlink:href="#m436cafc967" x="136.023355" y="315.16" style="stroke: #000000; stroke-width: 0.8"/>
      </g>
     </g>
     <g id="text_2">
      <!-- −0.275 -->
      <g transform="translate(117.519448 329.758438) scale(0.1 -0.1)">
       <defs>
        <path id="DejaVuSans-32" d="M 1228 531 
L 3431 531 
L 3431 0 
L 469 0 
L 469 531 
Q 828 903 1448 1529 
Q 2069 2156 2228 2338 
Q 2531 2678 2651 2914 
Q 2772 3150 2772 3378 
Q 2772 3750 2511 3984 
Q 2250 4219 1831 4219 
Q 1534 4219 1204 4116 
Q 875 4013 500 3803 
L 500 4441 
Q 881 4594 1212 4672 
Q 1544 4750 1819 4750 
Q 2544 4750 2975 4387 
Q 3406 4025 3406 3419 
Q 3406 3131 3298 2873 
Q 3191 2616 2906 2266 
Q 2828 2175 2409 1742 
Q 1991 1309 1228 531 
z
" transform="scale(0.015625)"/>
        <path id="DejaVuSans-37" d="M 525 4666 
L 3525 4666 
L 3525 4397 
L 1831 0 
L 1172 0 
L 2766 4134 
L 525 4134 
L 525 4666 
z
" transform="scale(0.015625)"/>
        <path id="DejaVuSans-35" d="M 691 4666 
L 3169 4666 
L 3169 4134 
L 1269 4134 
L 1269 2991 
Q 1406 3038 1543 3061 
Q 1681 3084 1819 3084 
Q 2600 3084 3056 2656 
Q 3513 2228 3513 1497 
Q 3513 744 3044 326 
Q 2575 -91 1722 -91 
Q 1428 -91 1123 -41 
Q 819 9 494 109 
L 494 744 
Q 775 591 1075 516 
Q 1375 441 1709 441 
Q 2250 441 2565 725 
Q 2881 1009 2881 1497 
Q 2881 1984 2565 2268 
Q 2250 2553 1709 2553 
Q 1456 2553 1204 2497 
Q 953 2441 691 2322 
L 691 4666 
z
" transform="scale(0.015625)"/>
       </defs>
       <use xlink:href="#DejaVuSans-2212"/>
       <use xlink:href="#DejaVuSans-30" x="83.789062"/>
       <use xlink:href="#DejaVuSans-2e" x="147.412109"/>
       <use xlink:href="#DejaVuSans-32" x="179.199219"/>
       <use xlink:href="#DejaVuSans-37" x="242.822266"/>
       <use xlink:href="#DejaVuSans-35" x="306.445312"/>
      </g>
     </g>
    </g>
    <g id="xtick_3">
     <g id="line2d_5">
      <path d="M 204.453762 315.16 
L 204.453762 27.6 
" clip-path="url(#p96e492717c)" style="fill: none; stroke-dasharray: 2.96,1.28; stroke-dashoffset: 0; stroke: #b0b0b0; stroke-opacity: 0.5; stroke-width: 0.8"/>
     </g>
     <g id="line2d_6">
      <g>
       <use xlink:href="#m436cafc967" x="204.453762" y="315.16" style="stroke: #000000; stroke-width: 0.8"/>
      </g>
     </g>
     <g id="text_3">
      <!-- −0.250 -->
      <g transform="translate(185.949856 329.758438) scale(0.1 -0.1)">
       <use xlink:href="#DejaVuSans-2212"/>
       <use xlink:href="#DejaVuSans-30" x="83.789062"/>
       <use xlink:href="#DejaVuSans-2e" x="147.412109"/>
       <use xlink:href="#DejaVuSans-32" x="179.199219"/>
       <use xlink:href="#DejaVuSans-35" x="242.822266"/>
       <use xlink:href="#DejaVuSans-30" x="306.445312"/>
      </g>
     </g>
    </g>
    <g id="xtick_4">
     <g id="line2d_7">
      <path d="M 272.884169 315.16 
L 272.884169 27.6 
" clip-path="url(#p96e492717c)" style="fill: none; stroke-dasharray: 2.96,1.28; stroke-dashoffset: 0; stroke: #b0b0b0; stroke-opacity: 0.5; stroke-width: 0.8"/>
     </g>
     <g id="line2d_8">
      <g>
       <use xlink:href="#m436cafc967" x="272.884169" y="315.16" style="stroke: #000000; stroke-width: 0.8"/>
      </g>
     </g>
     <g id="text_4">
      <!-- −0.225 -->
      <g transform="translate(254.380263 329.758438) scale(0.1 -0.1)">
       <use xlink:href="#DejaVuSans-2212"/>
       <use xlink:href="#DejaVuSans-30" x="83.789062"/>
       <use xlink:href="#DejaVuSans-2e" x="147.412109"/>
       <use xlink:href="#DejaVuSans-32" x="179.199219"/>
       <use xlink:href="#DejaVuSans-32" x="242.822266"/>
       <use xlink:href="#DejaVuSans-35" x="306.445312"/>
      </g>
     </g>
    </g>
    <g id="xtick_5">
     <g id="line2d_9">
      <path d="M 341.314576 315.16 
L 341.314576 27.6 
" clip-path="url(#p96e492717c)" style="fill: none; stroke-dasharray: 2.96,1.28; stroke-dashoffset: 0; stroke: #b0b0b0; stroke-opacity: 0.5; stroke-width: 0.8"/>
     </g>
     <g id="line2d_10">
      <g>
       <use xlink:href="#m436cafc967" x="341.314576" y="315.16" style="stroke: #000000; stroke-width: 0.8"/>
      </g>
     </g>
     <g id="text_5">
      <!-- −0.200 -->
      <g transform="translate(322.81067 329.758438) scale(0.1 -0.1)">
       <use xlink:href="#DejaVuSans-2212"/>
       <use xlink:href="#DejaVuSans-30" x="83.789062"/>
       <use xlink:href="#DejaVuSans-2e" x="147.412109"/>
       <use xlink:href="#DejaVuSans-32" x="179.199219"/>
       <use xlink:href="#DejaVuSans-30" x="242.822266"/>
       <use xlink:href="#DejaVuSans-30" x="306.445312"/>
      </g>
     </g>
    </g>
    <g id="xtick_6">
     <g id="line2d_11">
      <path d="M 409.744984 315.16 
L 409.744984 27.6 
" clip-path="url(#p96e492717c)" style="fill: none; stroke-dasharray: 2.96,1.28; stroke-dashoffset: 0; stroke: #b0b0b0; stroke-opacity: 0.5; stroke-width: 0.8"/>
     </g>
     <g id="line2d_12">
      <g>
       <use xlink:href="#m436cafc967" x="409.744984" y="315.16" style="stroke: #000000; stroke-width: 0.8"/>
      </g>
     </g>
     <g id="text_6">
      <!-- −0.175 -->
      <g transform="translate(391.241077 329.758438) scale(0.1 -0.1)">
       <defs>
        <path id="DejaVuSans-31" d="M 794 531 
L 1825 531 
L 1825 4091 
L 703 3866 
L 703 4441 
L 1819 4666 
L 2450 4666 
L 2450 531 
L 3481 531 
L 3481 0 
L 794 0 
L 794 531 
z
" transform="scale(0.015625)"/>
       </defs>
       <use xlink:href="#DejaVuSans-2212"/>
       <use xlink:href="#DejaVuSans-30" x="83.789062"/>
       <use xlink:href="#DejaVuSans-2e" x="147.412109"/>
       <use xlink:href="#DejaVuSans-31" x="179.199219"/>
       <use xlink:href="#DejaVuSans-37" x="242.822266"/>
       <use xlink:href="#DejaVuSans-35" x="306.445312"/>
      </g>
     </g>
    </g>
    <g id="xtick_7">
     <g id="line2d_13">
      <path d="M 478.175391 315.16 
L 478.175391 27.6 
" clip-path="url(#p96e492717c)" style="fill: none; stroke-dasharray: 2.96,1.28; stroke-dashoffset: 0; stroke: #b0b0b0; stroke-opacity: 0.5; stroke-width: 0.8"/>
     </g>
     <g id="line2d_14">
      <g>
       <use xlink:href="#m436cafc967" x="478.175391" y="315.16" style="stroke: #000000; stroke-width: 0.8"/>
      </g>
     </g>
     <g id="text_7">
      <!-- −0.150 -->
      <g transform="translate(459.671485 329.758438) scale(0.1 -0.1)">
       <use xlink:href="#DejaVuSans-2212"/>
       <use xlink:href="#DejaVuSans-30" x="83.789062"/>
       <use xlink:href="#DejaVuSans-2e" x="147.412109"/>
       <use xlink:href="#DejaVuSans-31" x="179.199219"/>
       <use xlink:href="#DejaVuSans-35" x="242.822266"/>
       <use xlink:href="#DejaVuSans-30" x="306.445312"/>
      </g>
     </g>
    </g>
    <g id="xtick_8">
     <g id="line2d_15">
      <path d="M 546.605798 315.16 
L 546.605798 27.6 
" clip-path="url(#p96e492717c)" style="fill: none; stroke-dasharray: 2.96,1.28; stroke-dashoffset: 0; stroke: #b0b0b0; stroke-opacity: 0.5; stroke-width: 0.8"/>
     </g>
     <g id="line2d_16">
      <g>
       <use xlink:href="#m436cafc967" x="546.605798" y="315.16" style="stroke: #000000; stroke-width: 0.8"/>
      </g>
     </g>
     <g id="text_8">
      <!-- −0.125 -->
      <g transform="translate(528.101892 329.758438) scale(0.1 -0.1)">
       <use xlink:href="#DejaVuSans-2212"/>
       <use xlink:href="#DejaVuSans-30" x="83.789062"/>
       <use xlink:href="#DejaVuSans-2e" x="147.412109"/>
       <use xlink:href="#DejaVuSans-31" x="179.199219"/>
       <use xlink:href="#DejaVuSans-32" x="242.822266"/>
       <use xlink:href="#DejaVuSans-35" x="306.445312"/>
      </g>
     </g>
    </g>
    <g id="text_9">
     <!-- HOMO Energy (Hartree) -->
     <g transform="translate(220.019151 345.716094) scale(0.13 -0.13)">
      <defs>
       <path id="DejaVuSans-48" d="M 628 4666 
L 1259 4666 
L 1259 2753 
L 3553 2753 
L 3553 4666 
L 4184 4666 
L 4184 0 
L 3553 0 
L 3553 2222 
L 1259 2222 
L 1259 0 
L 628 0 
L 628 4666 
z
" transform="scale(0.015625)"/>
       <path id="DejaVuSans-4f" d="M 2522 4238 
Q 1834 4238 1429 3725 
Q 1025 3213 1025 2328 
Q 1025 1447 1429 934 
Q 1834 422 2522 422 
Q 3209 422 3611 934 
Q 4013 1447 4013 2328 
Q 4013 3213 3611 3725 
Q 3209 4238 2522 4238 
z
M 2522 4750 
Q 3503 4750 4090 4092 
Q 4678 3434 4678 2328 
Q 4678 1225 4090 567 
Q 3503 -91 2522 -91 
Q 1538 -91 948 565 
Q 359 1222 359 2328 
Q 359 3434 948 4092 
Q 1538 4750 2522 4750 
z
" transform="scale(0.015625)"/>
       <path id="DejaVuSans-4d" d="M 628 4666 
L 1569 4666 
L 2759 1491 
L 3956 4666 
L 4897 4666 
L 4897 0 
L 4281 0 
L 4281 4097 
L 3078 897 
L 2444 897 
L 1241 4097 
L 1241 0 
L 628 0 
L 628 4666 
z
" transform="scale(0.015625)"/>
       <path id="DejaVuSans-20" transform="scale(0.015625)"/>
       <path id="DejaVuSans-45" d="M 628 4666 
L 3578 4666 
L 3578 4134 
L 1259 4134 
L 1259 2753 
L 3481 2753 
L 3481 2222 
L 1259 2222 
L 1259 531 
L 3634 531 
L 3634 0 
L 628 0 
L 628 4666 
z
" transform="scale(0.015625)"/>
       <path id="DejaVuSans-6e" d="M 3513 2113 
L 3513 0 
L 2938 0 
L 2938 2094 
Q 2938 2591 2744 2837 
Q 2550 3084 2163 3084 
Q 1697 3084 1428 2787 
Q 1159 2491 1159 1978 
L 1159 0 
L 581 0 
L 581 3500 
L 1159 3500 
L 1159 2956 
Q 1366 3272 1645 3428 
Q 1925 3584 2291 3584 
Q 2894 3584 3203 3211 
Q 3513 2838 3513 2113 
z
" transform="scale(0.015625)"/>
       <path id="DejaVuSans-65" d="M 3597 1894 
L 3597 1613 
L 953 1613 
Q 991 1019 1311 708 
Q 1631 397 2203 397 
Q 2534 397 2845 478 
Q 3156 559 3463 722 
L 3463 178 
Q 3153 47 2828 -22 
Q 2503 -91 2169 -91 
Q 1331 -91 842 396 
Q 353 884 353 1716 
Q 353 2575 817 3079 
Q 1281 3584 2069 3584 
Q 2775 3584 3186 3129 
Q 3597 2675 3597 1894 
z
M 3022 2063 
Q 3016 2534 2758 2815 
Q 2500 3097 2075 3097 
Q 1594 3097 1305 2825 
Q 1016 2553 972 2059 
L 3022 2063 
z
" transform="scale(0.015625)"/>
       <path id="DejaVuSans-72" d="M 2631 2963 
Q 2534 3019 2420 3045 
Q 2306 3072 2169 3072 
Q 1681 3072 1420 2755 
Q 1159 2438 1159 1844 
L 1159 0 
L 581 0 
L 581 3500 
L 1159 3500 
L 1159 2956 
Q 1341 3275 1631 3429 
Q 1922 3584 2338 3584 
Q 2397 3584 2469 3576 
Q 2541 3569 2628 3553 
L 2631 2963 
z
" transform="scale(0.015625)"/>
       <path id="DejaVuSans-67" d="M 2906 1791 
Q 2906 2416 2648 2759 
Q 2391 3103 1925 3103 
Q 1463 3103 1205 2759 
Q 947 2416 947 1791 
Q 947 1169 1205 825 
Q 1463 481 1925 481 
Q 2391 481 2648 825 
Q 2906 1169 2906 1791 
z
M 3481 434 
Q 3481 -459 3084 -895 
Q 2688 -1331 1869 -1331 
Q 1566 -1331 1297 -1286 
Q 1028 -1241 775 -1147 
L 775 -588 
Q 1028 -725 1275 -790 
Q 1522 -856 1778 -856 
Q 2344 -856 2625 -561 
Q 2906 -266 2906 331 
L 2906 616 
Q 2728 306 2450 153 
Q 2172 0 1784 0 
Q 1141 0 747 490 
Q 353 981 353 1791 
Q 353 2603 747 3093 
Q 1141 3584 1784 3584 
Q 2172 3584 2450 3431 
Q 2728 3278 2906 2969 
L 2906 3500 
L 3481 3500 
L 3481 434 
z
" transform="scale(0.015625)"/>
       <path id="DejaVuSans-79" d="M 2059 -325 
Q 1816 -950 1584 -1140 
Q 1353 -1331 966 -1331 
L 506 -1331 
L 506 -850 
L 844 -850 
Q 1081 -850 1212 -737 
Q 1344 -625 1503 -206 
L 1606 56 
L 191 3500 
L 800 3500 
L 1894 763 
L 2988 3500 
L 3597 3500 
L 2059 -325 
z
" transform="scale(0.015625)"/>
       <path id="DejaVuSans-28" d="M 1984 4856 
Q 1566 4138 1362 3434 
Q 1159 2731 1159 2009 
Q 1159 1288 1364 580 
Q 1569 -128 1984 -844 
L 1484 -844 
Q 1016 -109 783 600 
Q 550 1309 550 2009 
Q 550 2706 781 3412 
Q 1013 4119 1484 4856 
L 1984 4856 
z
" transform="scale(0.015625)"/>
       <path id="DejaVuSans-61" d="M 2194 1759 
Q 1497 1759 1228 1600 
Q 959 1441 959 1056 
Q 959 750 1161 570 
Q 1363 391 1709 391 
Q 2188 391 2477 730 
Q 2766 1069 2766 1631 
L 2766 1759 
L 2194 1759 
z
M 3341 1997 
L 3341 0 
L 2766 0 
L 2766 531 
Q 2569 213 2275 61 
Q 1981 -91 1556 -91 
Q 1019 -91 701 211 
Q 384 513 384 1019 
Q 384 1609 779 1909 
Q 1175 2209 1959 2209 
L 2766 2209 
L 2766 2266 
Q 2766 2663 2505 2880 
Q 2244 3097 1772 3097 
Q 1472 3097 1187 3025 
Q 903 2953 641 2809 
L 641 3341 
Q 956 3463 1253 3523 
Q 1550 3584 1831 3584 
Q 2591 3584 2966 3190 
Q 3341 2797 3341 1997 
z
" transform="scale(0.015625)"/>
       <path id="DejaVuSans-74" d="M 1172 4494 
L 1172 3500 
L 2356 3500 
L 2356 3053 
L 1172 3053 
L 1172 1153 
Q 1172 725 1289 603 
Q 1406 481 1766 481 
L 2356 481 
L 2356 0 
L 1766 0 
Q 1100 0 847 248 
Q 594 497 594 1153 
L 594 3053 
L 172 3053 
L 172 3500 
L 594 3500 
L 594 4494 
L 1172 4494 
z
" transform="scale(0.015625)"/>
       <path id="DejaVuSans-29" d="M 513 4856 
L 1013 4856 
Q 1481 4119 1714 3412 
Q 1947 2706 1947 2009 
Q 1947 1309 1714 600 
Q 1481 -109 1013 -844 
L 513 -844 
Q 928 -128 1133 580 
Q 1338 1288 1338 2009 
Q 1338 2731 1133 3434 
Q 928 4138 513 4856 
z
" transform="scale(0.015625)"/>
      </defs>
      <use xlink:href="#DejaVuSans-48"/>
      <use xlink:href="#DejaVuSans-4f" x="75.195312"/>
      <use xlink:href="#DejaVuSans-4d" x="153.90625"/>
      <use xlink:href="#DejaVuSans-4f" x="240.185547"/>
      <use xlink:href="#DejaVuSans-20" x="318.896484"/>
      <use xlink:href="#DejaVuSans-45" x="350.683594"/>
      <use xlink:href="#DejaVuSans-6e" x="413.867188"/>
      <use xlink:href="#DejaVuSans-65" x="477.246094"/>
      <use xlink:href="#DejaVuSans-72" x="538.769531"/>
      <use xlink:href="#DejaVuSans-67" x="578.132812"/>
      <use xlink:href="#DejaVuSans-79" x="641.609375"/>
      <use xlink:href="#DejaVuSans-20" x="700.789062"/>
      <use xlink:href="#DejaVuSans-28" x="732.576172"/>
      <use xlink:href="#DejaVuSans-48" x="771.589844"/>
      <use xlink:href="#DejaVuSans-61" x="846.785156"/>
      <use xlink:href="#DejaVuSans-72" x="908.064453"/>
      <use xlink:href="#DejaVuSans-74" x="949.177734"/>
      <use xlink:href="#DejaVuSans-72" x="988.386719"/>
      <use xlink:href="#DejaVuSans-65" x="1027.25"/>
      <use xlink:href="#DejaVuSans-65" x="1088.773438"/>
      <use xlink:href="#DejaVuSans-29" x="1150.296875"/>
     </g>
    </g>
   </g>
   <g id="matplotlib.axis_2">
    <g id="ytick_1">
     <g id="line2d_17">
      <path d="M 47.54 315.16 
L 547.115021 315.16 
" clip-path="url(#p96e492717c)" style="fill: none; stroke-dasharray: 2.96,1.28; stroke-dashoffset: 0; stroke: #b0b0b0; stroke-opacity: 0.5; stroke-width: 0.8"/>
     </g>
     <g id="line2d_18">
      <defs>
       <path id="mf735373ad9" d="M 0 0 
L -3.5 0 
" style="stroke: #000000; stroke-width: 0.8"/>
      </defs>
      <g>
       <use xlink:href="#mf735373ad9" x="47.54" y="315.16" style="stroke: #000000; stroke-width: 0.8"/>
      </g>
     </g>
     <g id="text_10">
      <!-- 0 -->
      <g transform="translate(34.1775 318.959219) scale(0.1 -0.1)">
       <use xlink:href="#DejaVuSans-30"/>
      </g>
     </g>
    </g>
    <g id="ytick_2">
     <g id="line2d_19">
      <path d="M 47.54 260.283419 
L 547.115021 260.283419 
" clip-path="url(#p96e492717c)" style="fill: none; stroke-dasharray: 2.96,1.28; stroke-dashoffset: 0; stroke: #b0b0b0; stroke-opacity: 0.5; stroke-width: 0.8"/>
     </g>
     <g id="line2d_20">
      <g>
       <use xlink:href="#mf735373ad9" x="47.54" y="260.283419" style="stroke: #000000; stroke-width: 0.8"/>
      </g>
     </g>
     <g id="text_11">
      <!-- 5 -->
      <g transform="translate(34.1775 264.082638) scale(0.1 -0.1)">
       <use xlink:href="#DejaVuSans-35"/>
      </g>
     </g>
    </g>
    <g id="ytick_3">
     <g id="line2d_21">
      <path d="M 47.54 205.406839 
L 547.115021 205.406839 
" clip-path="url(#p96e492717c)" style="fill: none; stroke-dasharray: 2.96,1.28; stroke-dashoffset: 0; stroke: #b0b0b0; stroke-opacity: 0.5; stroke-width: 0.8"/>
     </g>
     <g id="line2d_22">
      <g>
       <use xlink:href="#mf735373ad9" x="47.54" y="205.406839" style="stroke: #000000; stroke-width: 0.8"/>
      </g>
     </g>
     <g id="text_12">
      <!-- 10 -->
      <g transform="translate(27.815 209.206058) scale(0.1 -0.1)">
       <use xlink:href="#DejaVuSans-31"/>
       <use xlink:href="#DejaVuSans-30" x="63.623047"/>
      </g>
     </g>
    </g>
    <g id="ytick_4">
     <g id="line2d_23">
      <path d="M 47.54 150.530258 
L 547.115021 150.530258 
" clip-path="url(#p96e492717c)" style="fill: none; stroke-dasharray: 2.96,1.28; stroke-dashoffset: 0; stroke: #b0b0b0; stroke-opacity: 0.5; stroke-width: 0.8"/>
     </g>
     <g id="line2d_24">
      <g>
       <use xlink:href="#mf735373ad9" x="47.54" y="150.530258" style="stroke: #000000; stroke-width: 0.8"/>
      </g>
     </g>
     <g id="text_13">
      <!-- 15 -->
      <g transform="translate(27.815 154.329477) scale(0.1 -0.1)">
       <use xlink:href="#DejaVuSans-31"/>
       <use xlink:href="#DejaVuSans-35" x="63.623047"/>
      </g>
     </g>
    </g>
    <g id="ytick_5">
     <g id="line2d_25">
      <path d="M 47.54 95.653678 
L 547.115021 95.653678 
" clip-path="url(#p96e492717c)" style="fill: none; stroke-dasharray: 2.96,1.28; stroke-dashoffset: 0; stroke: #b0b0b0; stroke-opacity: 0.5; stroke-width: 0.8"/>
     </g>
     <g id="line2d_26">
      <g>
       <use xlink:href="#mf735373ad9" x="47.54" y="95.653678" style="stroke: #000000; stroke-width: 0.8"/>
      </g>
     </g>
     <g id="text_14">
      <!-- 20 -->
      <g transform="translate(27.815 99.452896) scale(0.1 -0.1)">
       <use xlink:href="#DejaVuSans-32"/>
       <use xlink:href="#DejaVuSans-30" x="63.623047"/>
      </g>
     </g>
    </g>
    <g id="ytick_6">
     <g id="line2d_27">
      <path d="M 47.54 40.777097 
L 547.115021 40.777097 
" clip-path="url(#p96e492717c)" style="fill: none; stroke-dasharray: 2.96,1.28; stroke-dashoffset: 0; stroke: #b0b0b0; stroke-opacity: 0.5; stroke-width: 0.8"/>
     </g>
     <g id="line2d_28">
      <g>
       <use xlink:href="#mf735373ad9" x="47.54" y="40.777097" style="stroke: #000000; stroke-width: 0.8"/>
      </g>
     </g>
     <g id="text_15">
      <!-- 25 -->
      <g transform="translate(27.815 44.576316) scale(0.1 -0.1)">
       <use xlink:href="#DejaVuSans-32"/>
       <use xlink:href="#DejaVuSans-35" x="63.623047"/>
      </g>
     </g>
    </g>
    <g id="text_16">
     <!-- Density -->
     <g transform="translate(21.111406 196.091172) rotate(-90) scale(0.13 -0.13)">
      <defs>
       <path id="DejaVuSans-44" d="M 1259 4147 
L 1259 519 
L 2022 519 
Q 2988 519 3436 956 
Q 3884 1394 3884 2338 
Q 3884 3275 3436 3711 
Q 2988 4147 2022 4147 
L 1259 4147 
z
M 628 4666 
L 1925 4666 
Q 3281 4666 3915 4102 
Q 4550 3538 4550 2338 
Q 4550 1131 3912 565 
Q 3275 0 1925 0 
L 628 0 
L 628 4666 
z
" transform="scale(0.015625)"/>
       <path id="DejaVuSans-73" d="M 2834 3397 
L 2834 2853 
Q 2591 2978 2328 3040 
Q 2066 3103 1784 3103 
Q 1356 3103 1142 2972 
Q 928 2841 928 2578 
Q 928 2378 1081 2264 
Q 1234 2150 1697 2047 
L 1894 2003 
Q 2506 1872 2764 1633 
Q 3022 1394 3022 966 
Q 3022 478 2636 193 
Q 2250 -91 1575 -91 
Q 1294 -91 989 -36 
Q 684 19 347 128 
L 347 722 
Q 666 556 975 473 
Q 1284 391 1588 391 
Q 1994 391 2212 530 
Q 2431 669 2431 922 
Q 2431 1156 2273 1281 
Q 2116 1406 1581 1522 
L 1381 1569 
Q 847 1681 609 1914 
Q 372 2147 372 2553 
Q 372 3047 722 3315 
Q 1072 3584 1716 3584 
Q 2034 3584 2315 3537 
Q 2597 3491 2834 3397 
z
" transform="scale(0.015625)"/>
       <path id="DejaVuSans-69" d="M 603 3500 
L 1178 3500 
L 1178 0 
L 603 0 
L 603 3500 
z
M 603 4863 
L 1178 4863 
L 1178 4134 
L 603 4134 
L 603 4863 
z
" transform="scale(0.015625)"/>
      </defs>
      <use xlink:href="#DejaVuSans-44"/>
      <use xlink:href="#DejaVuSans-65" x="77.001953"/>
      <use xlink:href="#DejaVuSans-6e" x="138.525391"/>
      <use xlink:href="#DejaVuSans-73" x="201.904297"/>
      <use xlink:href="#DejaVuSans-69" x="254.003906"/>
      <use xlink:href="#DejaVuSans-74" x="281.787109"/>
      <use xlink:href="#DejaVuSans-79" x="320.996094"/>
     </g>
    </g>
   </g>
   <g id="line2d_29">
    <path d="M 306.52358 315.16 
L 306.52358 27.6 
" clip-path="url(#p96e492717c)" style="fill: none; stroke-dasharray: 5.55,2.4; stroke-dashoffset: 0; stroke: #4169e1; stroke-width: 1.5"/>
   </g>
   <g id="line2d_30">
    <path d="M 333.610453 315.16 
L 333.610453 27.6 
" clip-path="url(#p96e492717c)" style="fill: none; stroke-dasharray: 5.55,2.4; stroke-dashoffset: 0; stroke: #ff4500; stroke-width: 1.5"/>
   </g>
   <g id="patch_3">
    <path d="M 47.54 315.16 
L 47.54 27.6 
" style="fill: none; stroke: #000000; stroke-width: 0.8; stroke-linejoin: miter; stroke-linecap: square"/>
   </g>
   <g id="patch_4">
    <path d="M 547.115021 315.16 
L 547.115021 27.6 
" style="fill: none; stroke: #000000; stroke-width: 0.8; stroke-linejoin: miter; stroke-linecap: square"/>
   </g>
   <g id="patch_5">
    <path d="M 47.54 315.16 
L 547.115021 315.16 
" style="fill: none; stroke: #000000; stroke-width: 0.8; stroke-linejoin: miter; stroke-linecap: square"/>
   </g>
   <g id="patch_6">
    <path d="M 47.54 27.6 
L 547.115021 27.6 
" style="fill: none; stroke: #000000; stroke-width: 0.8; stroke-linejoin: miter; stroke-linecap: square"/>
   </g>
   <g id="text_17">
    <!-- Mean DFT: -0.213 -->
    <g style="fill: #4169e1" transform="translate(57.5315 50.336281) scale(0.11 -0.11)">
     <defs>
      <path id="DejaVuSans-46" d="M 628 4666 
L 3309 4666 
L 3309 4134 
L 1259 4134 
L 1259 2759 
L 3109 2759 
L 3109 2228 
L 1259 2228 
L 1259 0 
L 628 0 
L 628 4666 
z
" transform="scale(0.015625)"/>
      <path id="DejaVuSans-54" d="M -19 4666 
L 3928 4666 
L 3928 4134 
L 2272 4134 
L 2272 0 
L 1638 0 
L 1638 4134 
L -19 4134 
L -19 4666 
z
" transform="scale(0.015625)"/>
      <path id="DejaVuSans-3a" d="M 750 794 
L 1409 794 
L 1409 0 
L 750 0 
L 750 794 
z
M 750 3309 
L 1409 3309 
L 1409 2516 
L 750 2516 
L 750 3309 
z
" transform="scale(0.015625)"/>
      <path id="DejaVuSans-2d" d="M 313 2009 
L 1997 2009 
L 1997 1497 
L 313 1497 
L 313 2009 
z
" transform="scale(0.015625)"/>
     </defs>
     <use xlink:href="#DejaVuSans-4d"/>
     <use xlink:href="#DejaVuSans-65" x="86.279297"/>
     <use xlink:href="#DejaVuSans-61" x="147.802734"/>
     <use xlink:href="#DejaVuSans-6e" x="209.082031"/>
     <use xlink:href="#DejaVuSans-20" x="272.460938"/>
     <use xlink:href="#DejaVuSans-44" x="304.248047"/>
     <use xlink:href="#DejaVuSans-46" x="381.25"/>
     <use xlink:href="#DejaVuSans-54" x="437.019531"/>
     <use xlink:href="#DejaVuSans-3a" x="487.103516"/>
     <use xlink:href="#DejaVuSans-20" x="520.794922"/>
     <use xlink:href="#DejaVuSans-2d" x="552.582031"/>
     <use xlink:href="#DejaVuSans-30" x="588.666016"/>
     <use xlink:href="#DejaVuSans-2e" x="652.289062"/>
     <use xlink:href="#DejaVuSans-32" x="684.076172"/>
     <use xlink:href="#DejaVuSans-31" x="747.699219"/>
     <use xlink:href="#DejaVuSans-33" x="811.322266"/>
    </g>
   </g>
   <g id="text_18">
    <!-- Mean Pred: -0.203 -->
    <g style="fill: #ff4500" transform="translate(57.5315 70.465481) scale(0.11 -0.11)">
     <defs>
      <path id="DejaVuSans-50" d="M 1259 4147 
L 1259 2394 
L 2053 2394 
Q 2494 2394 2734 2622 
Q 2975 2850 2975 3272 
Q 2975 3691 2734 3919 
Q 2494 4147 2053 4147 
L 1259 4147 
z
M 628 4666 
L 2053 4666 
Q 2838 4666 3239 4311 
Q 3641 3956 3641 3272 
Q 3641 2581 3239 2228 
Q 2838 1875 2053 1875 
L 1259 1875 
L 1259 0 
L 628 0 
L 628 4666 
z
" transform="scale(0.015625)"/>
      <path id="DejaVuSans-64" d="M 2906 2969 
L 2906 4863 
L 3481 4863 
L 3481 0 
L 2906 0 
L 2906 525 
Q 2725 213 2448 61 
Q 2172 -91 1784 -91 
Q 1150 -91 751 415 
Q 353 922 353 1747 
Q 353 2572 751 3078 
Q 1150 3584 1784 3584 
Q 2172 3584 2448 3432 
Q 2725 3281 2906 2969 
z
M 947 1747 
Q 947 1113 1208 752 
Q 1469 391 1925 391 
Q 2381 391 2643 752 
Q 2906 1113 2906 1747 
Q 2906 2381 2643 2742 
Q 2381 3103 1925 3103 
Q 1469 3103 1208 2742 
Q 947 2381 947 1747 
z
" transform="scale(0.015625)"/>
     </defs>
     <use xlink:href="#DejaVuSans-4d"/>
     <use xlink:href="#DejaVuSans-65" x="86.279297"/>
     <use xlink:href="#DejaVuSans-61" x="147.802734"/>
     <use xlink:href="#DejaVuSans-6e" x="209.082031"/>
     <use xlink:href="#DejaVuSans-20" x="272.460938"/>
     <use xlink:href="#DejaVuSans-50" x="304.248047"/>
     <use xlink:href="#DejaVuSans-72" x="362.800781"/>
     <use xlink:href="#DejaVuSans-65" x="401.664062"/>
     <use xlink:href="#DejaVuSans-64" x="463.1875"/>
     <use xlink:href="#DejaVuSans-3a" x="526.664062"/>
     <use xlink:href="#DejaVuSans-20" x="560.355469"/>
     <use xlink:href="#DejaVuSans-2d" x="592.142578"/>
     <use xlink:href="#DejaVuSans-30" x="628.226562"/>
     <use xlink:href="#DejaVuSans-2e" x="691.849609"/>
     <use xlink:href="#DejaVuSans-32" x="723.636719"/>
     <use xlink:href="#DejaVuSans-30" x="787.259766"/>
     <use xlink:href="#DejaVuSans-33" x="850.882812"/>
    </g>
   </g>
   <g id="text_19">
    <!-- Density Distribution: DFT vs Predicted HOMO -->
    <g transform="translate(139.855948 21.6) scale(0.14 -0.14)">
     <defs>
      <path id="DejaVuSans-62" d="M 3116 1747 
Q 3116 2381 2855 2742 
Q 2594 3103 2138 3103 
Q 1681 3103 1420 2742 
Q 1159 2381 1159 1747 
Q 1159 1113 1420 752 
Q 1681 391 2138 391 
Q 2594 391 2855 752 
Q 3116 1113 3116 1747 
z
M 1159 2969 
Q 1341 3281 1617 3432 
Q 1894 3584 2278 3584 
Q 2916 3584 3314 3078 
Q 3713 2572 3713 1747 
Q 3713 922 3314 415 
Q 2916 -91 2278 -91 
Q 1894 -91 1617 61 
Q 1341 213 1159 525 
L 1159 0 
L 581 0 
L 581 4863 
L 1159 4863 
L 1159 2969 
z
" transform="scale(0.015625)"/>
      <path id="DejaVuSans-75" d="M 544 1381 
L 544 3500 
L 1119 3500 
L 1119 1403 
Q 1119 906 1312 657 
Q 1506 409 1894 409 
Q 2359 409 2629 706 
Q 2900 1003 2900 1516 
L 2900 3500 
L 3475 3500 
L 3475 0 
L 2900 0 
L 2900 538 
Q 2691 219 2414 64 
Q 2138 -91 1772 -91 
Q 1169 -91 856 284 
Q 544 659 544 1381 
z
M 1991 3584 
L 1991 3584 
z
" transform="scale(0.015625)"/>
      <path id="DejaVuSans-6f" d="M 1959 3097 
Q 1497 3097 1228 2736 
Q 959 2375 959 1747 
Q 959 1119 1226 758 
Q 1494 397 1959 397 
Q 2419 397 2687 759 
Q 2956 1122 2956 1747 
Q 2956 2369 2687 2733 
Q 2419 3097 1959 3097 
z
M 1959 3584 
Q 2709 3584 3137 3096 
Q 3566 2609 3566 1747 
Q 3566 888 3137 398 
Q 2709 -91 1959 -91 
Q 1206 -91 779 398 
Q 353 888 353 1747 
Q 353 2609 779 3096 
Q 1206 3584 1959 3584 
z
" transform="scale(0.015625)"/>
      <path id="DejaVuSans-76" d="M 191 3500 
L 800 3500 
L 1894 563 
L 2988 3500 
L 3597 3500 
L 2284 0 
L 1503 0 
L 191 3500 
z
" transform="scale(0.015625)"/>
      <path id="DejaVuSans-63" d="M 3122 3366 
L 3122 2828 
Q 2878 2963 2633 3030 
Q 2388 3097 2138 3097 
Q 1578 3097 1268 2742 
Q 959 2388 959 1747 
Q 959 1106 1268 751 
Q 1578 397 2138 397 
Q 2388 397 2633 464 
Q 2878 531 3122 666 
L 3122 134 
Q 2881 22 2623 -34 
Q 2366 -91 2075 -91 
Q 1284 -91 818 406 
Q 353 903 353 1747 
Q 353 2603 823 3093 
Q 1294 3584 2113 3584 
Q 2378 3584 2631 3529 
Q 2884 3475 3122 3366 
z
" transform="scale(0.015625)"/>
     </defs>
     <use xlink:href="#DejaVuSans-44"/>
     <use xlink:href="#DejaVuSans-65" x="77.001953"/>
     <use xlink:href="#DejaVuSans-6e" x="138.525391"/>
     <use xlink:href="#DejaVuSans-73" x="201.904297"/>
     <use xlink:href="#DejaVuSans-69" x="254.003906"/>
     <use xlink:href="#DejaVuSans-74" x="281.787109"/>
     <use xlink:href="#DejaVuSans-79" x="320.996094"/>
     <use xlink:href="#DejaVuSans-20" x="380.175781"/>
     <use xlink:href="#DejaVuSans-44" x="411.962891"/>
     <use xlink:href="#DejaVuSans-69" x="488.964844"/>
     <use xlink:href="#DejaVuSans-73" x="516.748047"/>
     <use xlink:href="#DejaVuSans-74" x="568.847656"/>
     <use xlink:href="#DejaVuSans-72" x="608.056641"/>
     <use xlink:href="#DejaVuSans-69" x="649.169922"/>
     <use xlink:href="#DejaVuSans-62" x="676.953125"/>
     <use xlink:href="#DejaVuSans-75" x="740.429688"/>
     <use xlink:href="#DejaVuSans-74" x="803.808594"/>
     <use xlink:href="#DejaVuSans-69" x="843.017578"/>
     <use xlink:href="#DejaVuSans-6f" x="870.800781"/>
     <use xlink:href="#DejaVuSans-6e" x="931.982422"/>
     <use xlink:href="#DejaVuSans-3a" x="995.361328"/>
     <use xlink:href="#DejaVuSans-20" x="1029.052734"/>
     <use xlink:href="#DejaVuSans-44" x="1060.839844"/>
     <use xlink:href="#DejaVuSans-46" x="1137.841797"/>
     <use xlink:href="#DejaVuSans-54" x="1193.611328"/>
     <use xlink:href="#DejaVuSans-20" x="1254.695312"/>
     <use xlink:href="#DejaVuSans-76" x="1286.482422"/>
     <use xlink:href="#DejaVuSans-73" x="1345.662109"/>
     <use xlink:href="#DejaVuSans-20" x="1397.761719"/>
     <use xlink:href="#DejaVuSans-50" x="1429.548828"/>
     <use xlink:href="#DejaVuSans-72" x="1488.101562"/>
     <use xlink:href="#DejaVuSans-65" x="1526.964844"/>
     <use xlink:href="#DejaVuSans-64" x="1588.488281"/>
     <use xlink:href="#DejaVuSans-69" x="1651.964844"/>
     <use xlink:href="#DejaVuSans-63" x="1679.748047"/>
     <use xlink:href="#DejaVuSans-74" x="1734.728516"/>
     <use xlink:href="#DejaVuSans-65" x="1773.9375"/>
     <use xlink:href="#DejaVuSans-64" x="1835.460938"/>
     <use xlink:href="#DejaVuSans-20" x="1898.9375"/>
     <use xlink:href="#DejaVuSans-48" x="1930.724609"/>
     <use xlink:href="#DejaVuSans-4f" x="2005.919922"/>
     <use xlink:href="#DejaVuSans-4d" x="2084.630859"/>
     <use xlink:href="#DejaVuSans-4f" x="2170.910156"/>
    </g>
   </g>
   <g id="legend_1">
    <g id="patch_7">
     <path d="M 401.901896 72.4275 
L 538.715021 72.4275 
Q 541.115021 72.4275 541.115021 70.0275 
L 541.115021 36 
Q 541.115021 33.6 538.715021 33.6 
L 401.901896 33.6 
Q 399.501896 33.6 399.501896 36 
L 399.501896 70.0275 
Q 399.501896 72.4275 401.901896 72.4275 
z
" style="fill: #ffffff; opacity: 0.8; stroke: #cccccc; stroke-linejoin: miter"/>
    </g>
    <g id="patch_8">
     <path d="M 404.301896 47.518125 
L 428.301896 47.518125 
L 428.301896 39.118125 
L 404.301896 39.118125 
z
" style="fill: #4169e1; fill-opacity: 0.4; stroke: #4169e1; stroke-width: 2; stroke-linejoin: miter"/>
    </g>
    <g id="text_20">
     <!-- DFT HOMO -->
     <g transform="translate(437.901896 47.518125) scale(0.12 -0.12)">
      <use xlink:href="#DejaVuSans-44"/>
      <use xlink:href="#DejaVuSans-46" x="77.001953"/>
      <use xlink:href="#DejaVuSans-54" x="132.771484"/>
      <use xlink:href="#DejaVuSans-20" x="193.855469"/>
      <use xlink:href="#DejaVuSans-48" x="225.642578"/>
      <use xlink:href="#DejaVuSans-4f" x="300.837891"/>
      <use xlink:href="#DejaVuSans-4d" x="379.548828"/>
      <use xlink:href="#DejaVuSans-4f" x="465.828125"/>
     </g>
    </g>
    <g id="patch_9">
     <path d="M 404.301896 65.131875 
L 428.301896 65.131875 
L 428.301896 56.731875 
L 404.301896 56.731875 
z
" style="fill: #ff4500; fill-opacity: 0.4; stroke: #ff4500; stroke-width: 2; stroke-linejoin: miter"/>
    </g>
    <g id="text_21">
     <!-- Predicted HOMO -->
     <g transform="translate(437.901896 65.131875) scale(0.12 -0.12)">
      <use xlink:href="#DejaVuSans-50"/>
      <use xlink:href="#DejaVuSans-72" x="58.552734"/>
      <use xlink:href="#DejaVuSans-65" x="97.416016"/>
      <use xlink:href="#DejaVuSans-64" x="158.939453"/>
      <use xlink:href="#DejaVuSans-69" x="222.416016"/>
      <use xlink:href="#DejaVuSans-63" x="250.199219"/>
      <use xlink:href="#DejaVuSans-74" x="305.179688"/>
      <use xlink:href="#DejaVuSans-65" x="344.388672"/>
      <use xlink:href="#DejaVuSans-64" x="405.912109"/>
      <use xlink:href="#DejaVuSans-20" x="469.388672"/>
      <use xlink:href="#DejaVuSans-48" x="501.175781"/>
      <use xlink:href="#DejaVuSans-4f" x="576.371094"/>
      <use xlink:href="#DejaVuSans-4d" x="655.082031"/>
      <use xlink:href="#DejaVuSans-4f" x="741.361328"/>
     </g>
    </g>
   </g>
  </g>
 </g>
 <defs>
  <clipPath id="p96e492717c">
   <rect x="47.54" y="27.6" width="499.575021" height="287.56"/>
  </clipPath>
 </defs>
</svg>
