<?xml version="1.0" encoding="utf-8" standalone="no"?>
<!DOCTYPE svg PUBLIC "-//W3C//DTD SVG 1.1//EN"
  "http://www.w3.org/Graphics/SVG/1.1/DTD/svg11.dtd">
<svg xmlns:xlink="http://www.w3.org/1999/xlink" width="576pt" height="360pt" viewBox="0 0 576 360" xmlns="http://www.w3.org/2000/svg" version="1.1">
 <metadata>
  <rdf:RDF xmlns:dc="http://purl.org/dc/elements/1.1/" xmlns:cc="http://creativecommons.org/ns#" xmlns:rdf="http://www.w3.org/1999/02/22-rdf-syntax-ns#">
   <cc:Work>
    <dc:type rdf:resource="http://purl.org/dc/dcmitype/StillImage"/>
    <dc:date>2025-05-06T16:12:37.348939</dc:date>
    <dc:format>image/svg+xml</dc:format>
    <dc:creator>
     <cc:Agent>
      <dc:title>Matplotlib v3.9.2, https://matplotlib.org/</dc:title>
     </cc:Agent>
    </dc:creator>
   </cc:Work>
  </rdf:RDF>
 </metadata>
 <defs>
  <style type="text/css">*{stroke-linejoin: round; stroke-linecap: butt}</style>
 </defs>
 <g id="figure_1">
  <g id="patch_1">
   <path d="M 0 360 
L 576 360 
L 576 0 
L 0 0 
z
" style="fill: #ffffff"/>
  </g>
  <g id="axes_1">
   <g id="patch_2">
    <path d="M 47.54 315.16 
L 565.2 315.16 
L 565.2 27.6 
L 47.54 27.6 
z
" style="fill: #ffffff"/>
   </g>
   <g id="PolyCollection_1">
    <defs>
     <path id="m138edcd990" d="M 71.07 -44.877578 
L 71.07 -44.84 
L 73.434824 -44.84 
L 75.799648 -44.84 
L 78.164472 -44.84 
L 80.529296 -44.84 
L 82.894121 -44.84 
L 85.258945 -44.84 
L 87.623769 -44.84 
L 89.988593 -44.84 
L 92.353417 -44.84 
L 94.718241 -44.84 
L 97.083065 -44.84 
L 99.447889 -44.84 
L 101.812714 -44.84 
L 104.177538 -44.84 
L 106.542362 -44.84 
L 108.907186 -44.84 
L 111.27201 -44.84 
L 113.636834 -44.84 
L 116.001658 -44.84 
L 118.366482 -44.84 
L 120.731307 -44.84 
L 123.096131 -44.84 
L 125.460955 -44.84 
L 127.825779 -44.84 
L 130.190603 -44.84 
L 132.555427 -44.84 
L 134.920251 -44.84 
L 137.285075 -44.84 
L 139.649899 -44.84 
L 142.014724 -44.84 
L 144.379548 -44.84 
L 146.744372 -44.84 
L 149.109196 -44.84 
L 151.47402 -44.84 
L 153.838844 -44.84 
L 156.203668 -44.84 
L 158.568492 -44.84 
L 160.933317 -44.84 
L 163.298141 -44.84 
L 165.662965 -44.84 
L 168.027789 -44.84 
L 170.392613 -44.84 
L 172.757437 -44.84 
L 175.122261 -44.84 
L 177.487085 -44.84 
L 179.85191 -44.84 
L 182.216734 -44.84 
L 184.581558 -44.84 
L 186.946382 -44.84 
L 189.311206 -44.84 
L 191.67603 -44.84 
L 194.040854 -44.84 
L 196.405678 -44.84 
L 198.770503 -44.84 
L 201.135327 -44.84 
L 203.500151 -44.84 
L 205.864975 -44.84 
L 208.229799 -44.84 
L 210.594623 -44.84 
L 212.959447 -44.84 
L 215.324271 -44.84 
L 217.689095 -44.84 
L 220.05392 -44.84 
L 222.418744 -44.84 
L 224.783568 -44.84 
L 227.148392 -44.84 
L 229.513216 -44.84 
L 231.87804 -44.84 
L 234.242864 -44.84 
L 236.607688 -44.84 
L 238.972513 -44.84 
L 241.337337 -44.84 
L 243.702161 -44.84 
L 246.066985 -44.84 
L 248.431809 -44.84 
L 250.796633 -44.84 
L 253.161457 -44.84 
L 255.526281 -44.84 
L 257.891106 -44.84 
L 260.25593 -44.84 
L 262.620754 -44.84 
L 264.985578 -44.84 
L 267.350402 -44.84 
L 269.715226 -44.84 
L 272.08005 -44.84 
L 274.444874 -44.84 
L 276.809698 -44.84 
L 279.174523 -44.84 
L 281.539347 -44.84 
L 283.904171 -44.84 
L 286.268995 -44.84 
L 288.633819 -44.84 
L 290.998643 -44.84 
L 293.363467 -44.84 
L 295.728291 -44.84 
L 298.093116 -44.84 
L 300.45794 -44.84 
L 302.822764 -44.84 
L 305.187588 -44.84 
L 307.552412 -44.84 
L 309.917236 -44.84 
L 312.28206 -44.84 
L 314.646884 -44.84 
L 317.011709 -44.84 
L 319.376533 -44.84 
L 321.741357 -44.84 
L 324.106181 -44.84 
L 326.471005 -44.84 
L 328.835829 -44.84 
L 331.200653 -44.84 
L 333.565477 -44.84 
L 335.930302 -44.84 
L 338.295126 -44.84 
L 340.65995 -44.84 
L 343.024774 -44.84 
L 345.389598 -44.84 
L 347.754422 -44.84 
L 350.119246 -44.84 
L 352.48407 -44.84 
L 354.848894 -44.84 
L 357.213719 -44.84 
L 359.578543 -44.84 
L 361.943367 -44.84 
L 364.308191 -44.84 
L 366.673015 -44.84 
L 369.037839 -44.84 
L 371.402663 -44.84 
L 373.767487 -44.84 
L 376.132312 -44.84 
L 378.497136 -44.84 
L 380.86196 -44.84 
L 383.226784 -44.84 
L 385.591608 -44.84 
L 387.956432 -44.84 
L 390.321256 -44.84 
L 392.68608 -44.84 
L 395.050905 -44.84 
L 397.415729 -44.84 
L 399.780553 -44.84 
L 402.145377 -44.84 
L 404.510201 -44.84 
L 406.875025 -44.84 
L 409.239849 -44.84 
L 411.604673 -44.84 
L 413.969497 -44.84 
L 416.334322 -44.84 
L 418.699146 -44.84 
L 421.06397 -44.84 
L 423.428794 -44.84 
L 425.793618 -44.84 
L 428.158442 -44.84 
L 430.523266 -44.84 
L 432.88809 -44.84 
L 435.252915 -44.84 
L 437.617739 -44.84 
L 439.982563 -44.84 
L 442.347387 -44.84 
L 444.712211 -44.84 
L 447.077035 -44.84 
L 449.441859 -44.84 
L 451.806683 -44.84 
L 454.171508 -44.84 
L 456.536332 -44.84 
L 458.901156 -44.84 
L 461.26598 -44.84 
L 463.630804 -44.84 
L 465.995628 -44.84 
L 468.360452 -44.84 
L 470.725276 -44.84 
L 473.090101 -44.84 
L 475.454925 -44.84 
L 477.819749 -44.84 
L 480.184573 -44.84 
L 482.549397 -44.84 
L 484.914221 -44.84 
L 487.279045 -44.84 
L 489.643869 -44.84 
L 492.008693 -44.84 
L 494.373518 -44.84 
L 496.738342 -44.84 
L 499.103166 -44.84 
L 501.46799 -44.84 
L 503.832814 -44.84 
L 506.197638 -44.84 
L 508.562462 -44.84 
L 510.927286 -44.84 
L 513.292111 -44.84 
L 515.656935 -44.84 
L 518.021759 -44.84 
L 520.386583 -44.84 
L 522.751407 -44.84 
L 525.116231 -44.84 
L 527.481055 -44.84 
L 529.845879 -44.84 
L 532.210704 -44.84 
L 534.575528 -44.84 
L 536.940352 -44.84 
L 539.305176 -44.84 
L 541.67 -44.84 
L 541.67 -44.869729 
L 541.67 -44.869729 
L 539.305176 -44.879848 
L 536.940352 -44.892889 
L 534.575528 -44.909514 
L 532.210704 -44.930473 
L 529.845879 -44.956605 
L 527.481055 -44.988822 
L 525.116231 -45.028096 
L 522.751407 -45.075429 
L 520.386583 -45.131823 
L 518.021759 -45.198235 
L 515.656935 -45.275534 
L 513.292111 -45.364442 
L 510.927286 -45.465483 
L 508.562462 -45.578929 
L 506.197638 -45.70475 
L 503.832814 -45.842574 
L 501.46799 -45.99167 
L 499.103166 -46.150938 
L 496.738342 -46.318932 
L 494.373518 -46.493906 
L 492.008693 -46.673888 
L 489.643869 -46.856782 
L 487.279045 -47.040493 
L 484.914221 -47.223076 
L 482.549397 -47.402894 
L 480.184573 -47.578783 
L 477.819749 -47.750216 
L 475.454925 -47.917449 
L 473.090101 -48.081652 
L 470.725276 -48.245002 
L 468.360452 -48.410752 
L 465.995628 -48.583246 
L 463.630804 -48.767914 
L 461.26598 -48.971218 
L 458.901156 -49.200572 
L 456.536332 -49.464241 
L 454.171508 -49.771223 
L 451.806683 -50.131126 
L 449.441859 -50.55405 
L 447.077035 -51.05047 
L 444.712211 -51.631138 
L 442.347387 -52.30699 
L 439.982563 -53.08906 
L 437.617739 -53.98839 
L 435.252915 -55.015934 
L 432.88809 -56.182431 
L 430.523266 -57.498248 
L 428.158442 -58.97318 
L 425.793618 -60.616197 
L 423.428794 -62.435149 
L 421.06397 -64.436429 
L 418.699146 -66.62461 
L 416.334322 -69.00209 
L 413.969497 -71.568755 
L 411.604673 -74.321712 
L 409.239849 -77.255115 
L 406.875025 -80.360125 
L 404.510201 -83.625019 
L 402.145377 -87.035484 
L 399.780553 -90.575073 
L 397.415729 -94.225836 
L 395.050905 -97.969085 
L 392.68608 -101.786247 
L 390.321256 -105.659765 
L 387.956432 -109.57395 
L 385.591608 -113.515757 
L 383.226784 -117.475371 
L 380.86196 -121.446584 
L 378.497136 -125.426892 
L 376.132312 -129.417302 
L 373.767487 -133.421848 
L 371.402663 -137.446834 
L 369.037839 -141.499857 
L 366.673015 -145.588682 
L 364.308191 -149.720052 
L 361.943367 -153.898525 
L 359.578543 -158.125429 
L 357.213719 -162.398041 
L 354.848894 -166.709033 
L 352.48407 -171.046268 
L 350.119246 -175.392946 
L 347.754422 -179.728113 
L 345.389598 -184.027501 
L 343.024774 -188.264632 
L 340.65995 -192.412117 
L 338.295126 -196.443055 
L 335.930302 -200.332419 
L 333.565477 -204.058332 
L 331.200653 -207.603138 
L 328.835829 -210.954169 
L 326.471005 -214.104168 
L 324.106181 -217.051315 
L 321.741357 -219.798854 
L 319.376533 -222.354347 
L 317.011709 -224.728605 
L 314.646884 -226.934366 
L 312.28206 -228.98484 
L 309.917236 -230.892191 
L 307.552412 -232.666115 
L 305.187588 -234.312586 
L 302.822764 -235.832884 
L 300.45794 -237.222981 
L 298.093116 -238.473316 
L 295.728291 -239.568997 
L 293.363467 -240.490401 
L 290.998643 -241.21413 
L 288.633819 -241.714259 
L 286.268995 -241.963768 
L 283.904171 -241.93608 
L 281.539347 -241.606574 
L 279.174523 -240.95399 
L 276.809698 -239.961629 
L 274.444874 -238.61829 
L 272.08005 -236.918885 
L 269.715226 -234.864734 
L 267.350402 -232.463523 
L 264.985578 -229.728979 
L 262.620754 -226.680282 
L 260.25593 -223.3413 
L 257.891106 -219.739686 
L 255.526281 -215.905912 
L 253.161457 -211.872303 
L 250.796633 -207.672103 
L 248.431809 -203.338624 
L 246.066985 -198.904486 
L 243.702161 -194.400964 
L 241.337337 -189.857444 
L 238.972513 -185.300966 
L 236.607688 -180.755854 
L 234.242864 -176.243414 
L 231.87804 -171.781692 
L 229.513216 -167.385286 
L 227.148392 -163.065217 
L 224.783568 -158.828873 
L 222.418744 -154.680024 
L 220.05392 -150.618947 
L 217.689095 -146.642659 
L 215.324271 -142.745288 
L 212.959447 -138.918562 
L 210.594623 -135.152441 
L 208.229799 -131.435845 
L 205.864975 -127.757478 
L 203.500151 -124.106672 
L 201.135327 -120.474238 
L 198.770503 -116.853244 
L 196.405678 -113.23968 
L 194.040854 -109.632947 
L 191.67603 -106.036154 
L 189.311206 -102.456167 
L 186.946382 -98.903429 
L 184.581558 -95.391543 
L 182.216734 -91.936643 
L 179.85191 -88.556612 
L 177.487085 -85.270183 
L 175.122261 -82.095988 
L 172.757437 -79.051633 
L 170.392613 -76.152843 
L 168.027789 -73.412739 
L 165.662965 -70.841291 
L 163.298141 -68.444969 
L 160.933317 -66.226607 
L 158.568492 -64.185477 
L 156.203668 -62.317544 
L 153.838844 -60.615887 
L 151.47402 -59.07123 
L 149.109196 -57.672547 
L 146.744372 -56.407694 
L 144.379548 -55.264022 
L 142.014724 -54.228941 
L 139.649899 -53.290391 
L 137.285075 -52.437224 
L 134.920251 -51.659461 
L 132.555427 -50.948445 
L 130.190603 -50.296882 
L 127.825779 -49.698799 
L 125.460955 -49.149424 
L 123.096131 -48.645019 
L 120.731307 -48.18268 
L 118.366482 -47.760128 
L 116.001658 -47.37551 
L 113.636834 -47.027218 
L 111.27201 -46.713738 
L 108.907186 -46.433536 
L 106.542362 -46.18498 
L 104.177538 -45.966294 
L 101.812714 -45.775548 
L 99.447889 -45.610672 
L 97.083065 -45.469484 
L 94.718241 -45.349736 
L 92.353417 -45.249159 
L 89.988593 -45.165519 
L 87.623769 -45.096659 
L 85.258945 -45.040536 
L 82.894121 -44.995259 
L 80.529296 -44.959102 
L 78.164472 -44.930523 
L 75.799648 -44.908163 
L 73.434824 -44.890849 
L 71.07 -44.877578 
z
" style="stroke: #4169e1; stroke-width: 2"/>
    </defs>
    <g clip-path="url(#pd36ae4e6e1)">
     <use xlink:href="#m138edcd990" x="0" y="360" style="fill: #4169e1; fill-opacity: 0.4; stroke: #4169e1; stroke-width: 2"/>
    </g>
   </g>
   <g id="PolyCollection_2">
    <defs>
     <path id="m2f19ab05fe" d="M 106.704561 -44.895408 
L 106.704561 -44.84 
L 108.174771 -44.84 
L 109.644982 -44.84 
L 111.115192 -44.84 
L 112.585402 -44.84 
L 114.055613 -44.84 
L 115.525823 -44.84 
L 116.996034 -44.84 
L 118.466244 -44.84 
L 119.936454 -44.84 
L 121.406665 -44.84 
L 122.876875 -44.84 
L 124.347085 -44.84 
L 125.817296 -44.84 
L 127.287506 -44.84 
L 128.757716 -44.84 
L 130.227927 -44.84 
L 131.698137 -44.84 
L 133.168347 -44.84 
L 134.638558 -44.84 
L 136.108768 -44.84 
L 137.578979 -44.84 
L 139.049189 -44.84 
L 140.519399 -44.84 
L 141.98961 -44.84 
L 143.45982 -44.84 
L 144.93003 -44.84 
L 146.400241 -44.84 
L 147.870451 -44.84 
L 149.340661 -44.84 
L 150.810872 -44.84 
L 152.281082 -44.84 
L 153.751293 -44.84 
L 155.221503 -44.84 
L 156.691713 -44.84 
L 158.161924 -44.84 
L 159.632134 -44.84 
L 161.102344 -44.84 
L 162.572555 -44.84 
L 164.042765 -44.84 
L 165.512975 -44.84 
L 166.983186 -44.84 
L 168.453396 -44.84 
L 169.923606 -44.84 
L 171.393817 -44.84 
L 172.864027 -44.84 
L 174.334238 -44.84 
L 175.804448 -44.84 
L 177.274658 -44.84 
L 178.744869 -44.84 
L 180.215079 -44.84 
L 181.685289 -44.84 
L 183.1555 -44.84 
L 184.62571 -44.84 
L 186.09592 -44.84 
L 187.566131 -44.84 
L 189.036341 -44.84 
L 190.506552 -44.84 
L 191.976762 -44.84 
L 193.446972 -44.84 
L 194.917183 -44.84 
L 196.387393 -44.84 
L 197.857603 -44.84 
L 199.327814 -44.84 
L 200.798024 -44.84 
L 202.268234 -44.84 
L 203.738445 -44.84 
L 205.208655 -44.84 
L 206.678866 -44.84 
L 208.149076 -44.84 
L 209.619286 -44.84 
L 211.089497 -44.84 
L 212.559707 -44.84 
L 214.029917 -44.84 
L 215.500128 -44.84 
L 216.970338 -44.84 
L 218.440548 -44.84 
L 219.910759 -44.84 
L 221.380969 -44.84 
L 222.851179 -44.84 
L 224.32139 -44.84 
L 225.7916 -44.84 
L 227.261811 -44.84 
L 228.732021 -44.84 
L 230.202231 -44.84 
L 231.672442 -44.84 
L 233.142652 -44.84 
L 234.612862 -44.84 
L 236.083073 -44.84 
L 237.553283 -44.84 
L 239.023493 -44.84 
L 240.493704 -44.84 
L 241.963914 -44.84 
L 243.434125 -44.84 
L 244.904335 -44.84 
L 246.374545 -44.84 
L 247.844756 -44.84 
L 249.314966 -44.84 
L 250.785176 -44.84 
L 252.255387 -44.84 
L 253.725597 -44.84 
L 255.195807 -44.84 
L 256.666018 -44.84 
L 258.136228 -44.84 
L 259.606438 -44.84 
L 261.076649 -44.84 
L 262.546859 -44.84 
L 264.01707 -44.84 
L 265.48728 -44.84 
L 266.95749 -44.84 
L 268.427701 -44.84 
L 269.897911 -44.84 
L 271.368121 -44.84 
L 272.838332 -44.84 
L 274.308542 -44.84 
L 275.778752 -44.84 
L 277.248963 -44.84 
L 278.719173 -44.84 
L 280.189384 -44.84 
L 281.659594 -44.84 
L 283.129804 -44.84 
L 284.600015 -44.84 
L 286.070225 -44.84 
L 287.540435 -44.84 
L 289.010646 -44.84 
L 290.480856 -44.84 
L 291.951066 -44.84 
L 293.421277 -44.84 
L 294.891487 -44.84 
L 296.361697 -44.84 
L 297.831908 -44.84 
L 299.302118 -44.84 
L 300.772329 -44.84 
L 302.242539 -44.84 
L 303.712749 -44.84 
L 305.18296 -44.84 
L 306.65317 -44.84 
L 308.12338 -44.84 
L 309.593591 -44.84 
L 311.063801 -44.84 
L 312.534011 -44.84 
L 314.004222 -44.84 
L 315.474432 -44.84 
L 316.944643 -44.84 
L 318.414853 -44.84 
L 319.885063 -44.84 
L 321.355274 -44.84 
L 322.825484 -44.84 
L 324.295694 -44.84 
L 325.765905 -44.84 
L 327.236115 -44.84 
L 328.706325 -44.84 
L 330.176536 -44.84 
L 331.646746 -44.84 
L 333.116956 -44.84 
L 334.587167 -44.84 
L 336.057377 -44.84 
L 337.527588 -44.84 
L 338.997798 -44.84 
L 340.468008 -44.84 
L 341.938219 -44.84 
L 343.408429 -44.84 
L 344.878639 -44.84 
L 346.34885 -44.84 
L 347.81906 -44.84 
L 349.28927 -44.84 
L 350.759481 -44.84 
L 352.229691 -44.84 
L 353.699902 -44.84 
L 355.170112 -44.84 
L 356.640322 -44.84 
L 358.110533 -44.84 
L 359.580743 -44.84 
L 361.050953 -44.84 
L 362.521164 -44.84 
L 363.991374 -44.84 
L 365.461584 -44.84 
L 366.931795 -44.84 
L 368.402005 -44.84 
L 369.872215 -44.84 
L 371.342426 -44.84 
L 372.812636 -44.84 
L 374.282847 -44.84 
L 375.753057 -44.84 
L 377.223267 -44.84 
L 378.693478 -44.84 
L 380.163688 -44.84 
L 381.633898 -44.84 
L 383.104109 -44.84 
L 384.574319 -44.84 
L 386.044529 -44.84 
L 387.51474 -44.84 
L 388.98495 -44.84 
L 390.455161 -44.84 
L 391.925371 -44.84 
L 393.395581 -44.84 
L 394.865792 -44.84 
L 396.336002 -44.84 
L 397.806212 -44.84 
L 399.276423 -44.84 
L 399.276423 -44.903999 
L 399.276423 -44.903999 
L 397.806212 -44.926676 
L 396.336002 -44.956384 
L 394.865792 -44.994946 
L 393.395581 -45.044549 
L 391.925371 -45.107775 
L 390.455161 -45.187645 
L 388.98495 -45.287641 
L 387.51474 -45.411734 
L 386.044529 -45.564383 
L 384.574319 -45.75054 
L 383.104109 -45.975624 
L 381.633898 -46.245484 
L 380.163688 -46.566343 
L 378.693478 -46.944725 
L 377.223267 -47.387365 
L 375.753057 -47.901101 
L 374.282847 -48.492752 
L 372.812636 -49.168998 
L 371.342426 -49.936236 
L 369.872215 -50.800448 
L 368.402005 -51.767065 
L 366.931795 -52.840835 
L 365.461584 -54.025701 
L 363.991374 -55.324686 
L 362.521164 -56.739795 
L 361.050953 -58.271921 
L 359.580743 -59.920778 
L 358.110533 -61.68484 
L 356.640322 -63.561307 
L 355.170112 -65.54609 
L 353.699902 -67.633825 
L 352.229691 -69.817921 
L 350.759481 -72.090645 
L 349.28927 -74.443256 
L 347.81906 -76.866185 
L 346.34885 -79.349274 
L 344.878639 -81.882062 
L 343.408429 -84.454134 
L 341.938219 -87.055498 
L 340.468008 -89.677002 
L 338.997798 -92.310766 
L 337.527588 -94.950597 
L 336.057377 -97.592374 
L 334.587167 -100.234383 
L 333.116956 -102.877557 
L 331.646746 -105.525619 
L 330.176536 -108.1851 
L 328.706325 -110.865226 
L 327.236115 -113.577666 
L 325.765905 -116.336152 
L 324.295694 -119.15598 
L 322.825484 -122.053417 
L 321.355274 -125.045035 
L 319.885063 -128.14701 
L 318.414853 -131.374414 
L 316.944643 -134.740544 
L 315.474432 -138.25631 
L 314.004222 -141.929712 
L 312.534011 -145.765442 
L 311.063801 -149.764617 
L 309.593591 -153.924658 
L 308.12338 -158.239324 
L 306.65317 -162.698899 
L 305.18296 -167.290513 
L 303.712749 -171.998604 
L 302.242539 -176.805481 
L 300.772329 -181.691972 
L 299.302118 -186.638127 
L 297.831908 -191.623945 
L 296.361697 -196.630082 
L 294.891487 -201.638512 
L 293.421277 -206.633095 
L 291.951066 -211.600034 
L 290.480856 -216.528167 
L 289.010646 -221.409104 
L 287.540435 -226.237162 
L 286.070225 -231.009131 
L 284.600015 -235.723857 
L 283.129804 -240.381676 
L 281.659594 -244.983746 
L 280.189384 -249.531303 
L 278.719173 -254.024916 
L 277.248963 -258.463791 
L 275.778752 -262.845176 
L 274.308542 -267.163923 
L 272.838332 -271.412241 
L 271.368121 -275.57966 
L 269.897911 -279.653207 
L 268.427701 -283.617768 
L 266.95749 -287.45661 
L 265.48728 -291.151989 
L 264.01707 -294.68579 
L 262.546859 -298.040121 
L 261.076649 -301.197787 
L 259.606438 -304.142601 
L 258.136228 -306.859483 
L 256.666018 -309.334337 
L 255.195807 -311.553725 
L 253.725597 -313.504376 
L 252.255387 -315.172609 
L 250.785176 -316.543739 
L 249.314966 -317.601586 
L 247.844756 -318.328166 
L 246.374545 -318.703651 
L 244.904335 -318.706667 
L 243.434125 -318.314949 
L 241.963914 -317.506353 
L 240.493704 -316.260172 
L 239.023493 -314.558675 
L 237.553283 -312.388759 
L 236.083073 -309.743578 
L 234.612862 -306.624006 
L 233.142652 -303.039807 
L 231.672442 -299.010399 
L 230.202231 -294.565117 
L 228.732021 -289.742948 
L 227.261811 -284.591728 
L 225.7916 -279.166843 
L 224.32139 -273.529524 
L 222.851179 -267.74484 
L 221.380969 -261.879519 
L 219.910759 -255.999746 
L 218.440548 -250.169048 
L 216.970338 -244.446405 
L 215.500128 -238.884653 
L 214.029917 -233.529256 
L 212.559707 -228.417454 
L 211.089497 -223.577797 
L 209.619286 -219.030014 
L 208.149076 -214.785182 
L 206.678866 -210.846118 
L 205.208655 -207.207935 
L 203.738445 -203.858694 
L 202.268234 -200.780101 
L 200.798024 -197.948224 
L 199.327814 -195.334187 
L 197.857603 -192.904861 
L 196.387393 -190.623547 
L 194.917183 -188.450673 
L 193.446972 -186.344526 
L 191.976762 -184.262045 
L 190.506552 -182.159687 
L 189.036341 -179.994366 
L 187.566131 -177.72448 
L 186.09592 -175.310974 
L 184.62571 -172.71844 
L 183.1555 -169.916186 
L 181.685289 -166.879241 
L 180.215079 -163.589234 
L 178.744869 -160.035098 
L 177.274658 -156.213551 
L 175.804448 -152.129319 
L 174.334238 -147.795086 
L 172.864027 -143.231144 
L 171.393817 -138.464767 
L 169.923606 -133.529336 
L 168.453396 -128.463239 
L 166.983186 -123.308606 
L 165.512975 -118.109944 
L 164.042765 -112.912724 
L 162.572555 -107.761995 
L 161.102344 -102.701073 
L 159.632134 -97.770376 
L 158.161924 -93.006435 
L 156.691713 -88.441109 
L 155.221503 -84.10104 
L 153.751293 -80.007335 
L 152.281082 -76.175466 
L 150.810872 -72.61539 
L 149.340661 -69.331834 
L 147.870451 -66.324733 
L 146.400241 -63.589771 
L 144.93003 -61.118991 
L 143.45982 -58.901449 
L 141.98961 -56.923856 
L 140.519399 -55.171209 
L 139.049189 -53.627365 
L 137.578979 -52.275565 
L 136.108768 -51.098876 
L 134.638558 -50.080567 
L 133.168347 -49.204409 
L 131.698137 -48.454904 
L 130.227927 -47.817453 
L 128.757716 -47.278464 
L 127.287506 -46.825422 
L 125.817296 -46.446908 
L 124.347085 -46.1326 
L 122.876875 -45.873244 
L 121.406665 -45.660608 
L 119.936454 -45.487426 
L 118.466244 -45.347334 
L 116.996034 -45.234797 
L 115.525823 -45.145042 
L 114.055613 -45.073981 
L 112.585402 -45.018144 
L 111.115192 -44.974607 
L 109.644982 -44.940926 
L 108.174771 -44.91508 
L 106.704561 -44.895408 
z
" style="stroke: #ff4500; stroke-width: 2"/>
    </defs>
    <g clip-path="url(#pd36ae4e6e1)">
     <use xlink:href="#m2f19ab05fe" x="0" y="360" style="fill: #ff4500; fill-opacity: 0.4; stroke: #ff4500; stroke-width: 2"/>
    </g>
   </g>
   <g id="matplotlib.axis_1">
    <g id="xtick_1">
     <g id="line2d_1">
      <path d="M 99.697945 315.16 
L 99.697945 27.6 
" clip-path="url(#pd36ae4e6e1)" style="fill: none; stroke-dasharray: 2.96,1.28; stroke-dashoffset: 0; stroke: #b0b0b0; stroke-opacity: 0.5; stroke-width: 0.8"/>
     </g>
     <g id="line2d_2">
      <defs>
       <path id="m95889275cb" d="M 0 0 
L 0 3.5 
" style="stroke: #000000; stroke-width: 0.8"/>
      </defs>
      <g>
       <use xlink:href="#m95889275cb" x="99.697945" y="315.16" style="stroke: #000000; stroke-width: 0.8"/>
      </g>
     </g>
     <g id="text_1">
      <!-- −0.200 -->
      <g transform="translate(81.194039 329.758438) scale(0.1 -0.1)">
       <defs>
        <path id="DejaVuSans-2212" d="M 678 2272 
L 4684 2272 
L 4684 1741 
L 678 1741 
L 678 2272 
z
" transform="scale(0.015625)"/>
        <path id="DejaVuSans-30" d="M 2034 4250 
Q 1547 4250 1301 3770 
Q 1056 3291 1056 2328 
Q 1056 1369 1301 889 
Q 1547 409 2034 409 
Q 2525 409 2770 889 
Q 3016 1369 3016 2328 
Q 3016 3291 2770 3770 
Q 2525 4250 2034 4250 
z
M 2034 4750 
Q 2819 4750 3233 4129 
Q 3647 3509 3647 2328 
Q 3647 1150 3233 529 
Q 2819 -91 2034 -91 
Q 1250 -91 836 529 
Q 422 1150 422 2328 
Q 422 3509 836 4129 
Q 1250 4750 2034 4750 
z
" transform="scale(0.015625)"/>
        <path id="DejaVuSans-2e" d="M 684 794 
L 1344 794 
L 1344 0 
L 684 0 
L 684 794 
z
" transform="scale(0.015625)"/>
        <path id="DejaVuSans-32" d="M 1228 531 
L 3431 531 
L 3431 0 
L 469 0 
L 469 531 
Q 828 903 1448 1529 
Q 2069 2156 2228 2338 
Q 2531 2678 2651 2914 
Q 2772 3150 2772 3378 
Q 2772 3750 2511 3984 
Q 2250 4219 1831 4219 
Q 1534 4219 1204 4116 
Q 875 4013 500 3803 
L 500 4441 
Q 881 4594 1212 4672 
Q 1544 4750 1819 4750 
Q 2544 4750 2975 4387 
Q 3406 4025 3406 3419 
Q 3406 3131 3298 2873 
Q 3191 2616 2906 2266 
Q 2828 2175 2409 1742 
Q 1991 1309 1228 531 
z
" transform="scale(0.015625)"/>
       </defs>
       <use xlink:href="#DejaVuSans-2212"/>
       <use xlink:href="#DejaVuSans-30" x="83.789062"/>
       <use xlink:href="#DejaVuSans-2e" x="147.412109"/>
       <use xlink:href="#DejaVuSans-32" x="179.199219"/>
       <use xlink:href="#DejaVuSans-30" x="242.822266"/>
       <use xlink:href="#DejaVuSans-30" x="306.445312"/>
      </g>
     </g>
    </g>
    <g id="xtick_2">
     <g id="line2d_3">
      <path d="M 170.851307 315.16 
L 170.851307 27.6 
" clip-path="url(#pd36ae4e6e1)" style="fill: none; stroke-dasharray: 2.96,1.28; stroke-dashoffset: 0; stroke: #b0b0b0; stroke-opacity: 0.5; stroke-width: 0.8"/>
     </g>
     <g id="line2d_4">
      <g>
       <use xlink:href="#m95889275cb" x="170.851307" y="315.16" style="stroke: #000000; stroke-width: 0.8"/>
      </g>
     </g>
     <g id="text_2">
      <!-- −0.175 -->
      <g transform="translate(152.347401 329.758438) scale(0.1 -0.1)">
       <defs>
        <path id="DejaVuSans-31" d="M 794 531 
L 1825 531 
L 1825 4091 
L 703 3866 
L 703 4441 
L 1819 4666 
L 2450 4666 
L 2450 531 
L 3481 531 
L 3481 0 
L 794 0 
L 794 531 
z
" transform="scale(0.015625)"/>
        <path id="DejaVuSans-37" d="M 525 4666 
L 3525 4666 
L 3525 4397 
L 1831 0 
L 1172 0 
L 2766 4134 
L 525 4134 
L 525 4666 
z
" transform="scale(0.015625)"/>
        <path id="DejaVuSans-35" d="M 691 4666 
L 3169 4666 
L 3169 4134 
L 1269 4134 
L 1269 2991 
Q 1406 3038 1543 3061 
Q 1681 3084 1819 3084 
Q 2600 3084 3056 2656 
Q 3513 2228 3513 1497 
Q 3513 744 3044 326 
Q 2575 -91 1722 -91 
Q 1428 -91 1123 -41 
Q 819 9 494 109 
L 494 744 
Q 775 591 1075 516 
Q 1375 441 1709 441 
Q 2250 441 2565 725 
Q 2881 1009 2881 1497 
Q 2881 1984 2565 2268 
Q 2250 2553 1709 2553 
Q 1456 2553 1204 2497 
Q 953 2441 691 2322 
L 691 4666 
z
" transform="scale(0.015625)"/>
       </defs>
       <use xlink:href="#DejaVuSans-2212"/>
       <use xlink:href="#DejaVuSans-30" x="83.789062"/>
       <use xlink:href="#DejaVuSans-2e" x="147.412109"/>
       <use xlink:href="#DejaVuSans-31" x="179.199219"/>
       <use xlink:href="#DejaVuSans-37" x="242.822266"/>
       <use xlink:href="#DejaVuSans-35" x="306.445312"/>
      </g>
     </g>
    </g>
    <g id="xtick_3">
     <g id="line2d_5">
      <path d="M 242.004669 315.16 
L 242.004669 27.6 
" clip-path="url(#pd36ae4e6e1)" style="fill: none; stroke-dasharray: 2.96,1.28; stroke-dashoffset: 0; stroke: #b0b0b0; stroke-opacity: 0.5; stroke-width: 0.8"/>
     </g>
     <g id="line2d_6">
      <g>
       <use xlink:href="#m95889275cb" x="242.004669" y="315.16" style="stroke: #000000; stroke-width: 0.8"/>
      </g>
     </g>
     <g id="text_3">
      <!-- −0.150 -->
      <g transform="translate(223.500763 329.758438) scale(0.1 -0.1)">
       <use xlink:href="#DejaVuSans-2212"/>
       <use xlink:href="#DejaVuSans-30" x="83.789062"/>
       <use xlink:href="#DejaVuSans-2e" x="147.412109"/>
       <use xlink:href="#DejaVuSans-31" x="179.199219"/>
       <use xlink:href="#DejaVuSans-35" x="242.822266"/>
       <use xlink:href="#DejaVuSans-30" x="306.445312"/>
      </g>
     </g>
    </g>
    <g id="xtick_4">
     <g id="line2d_7">
      <path d="M 313.158031 315.16 
L 313.158031 27.6 
" clip-path="url(#pd36ae4e6e1)" style="fill: none; stroke-dasharray: 2.96,1.28; stroke-dashoffset: 0; stroke: #b0b0b0; stroke-opacity: 0.5; stroke-width: 0.8"/>
     </g>
     <g id="line2d_8">
      <g>
       <use xlink:href="#m95889275cb" x="313.158031" y="315.16" style="stroke: #000000; stroke-width: 0.8"/>
      </g>
     </g>
     <g id="text_4">
      <!-- −0.125 -->
      <g transform="translate(294.654124 329.758438) scale(0.1 -0.1)">
       <use xlink:href="#DejaVuSans-2212"/>
       <use xlink:href="#DejaVuSans-30" x="83.789062"/>
       <use xlink:href="#DejaVuSans-2e" x="147.412109"/>
       <use xlink:href="#DejaVuSans-31" x="179.199219"/>
       <use xlink:href="#DejaVuSans-32" x="242.822266"/>
       <use xlink:href="#DejaVuSans-35" x="306.445312"/>
      </g>
     </g>
    </g>
    <g id="xtick_5">
     <g id="line2d_9">
      <path d="M 384.311392 315.16 
L 384.311392 27.6 
" clip-path="url(#pd36ae4e6e1)" style="fill: none; stroke-dasharray: 2.96,1.28; stroke-dashoffset: 0; stroke: #b0b0b0; stroke-opacity: 0.5; stroke-width: 0.8"/>
     </g>
     <g id="line2d_10">
      <g>
       <use xlink:href="#m95889275cb" x="384.311392" y="315.16" style="stroke: #000000; stroke-width: 0.8"/>
      </g>
     </g>
     <g id="text_5">
      <!-- −0.100 -->
      <g transform="translate(365.807486 329.758438) scale(0.1 -0.1)">
       <use xlink:href="#DejaVuSans-2212"/>
       <use xlink:href="#DejaVuSans-30" x="83.789062"/>
       <use xlink:href="#DejaVuSans-2e" x="147.412109"/>
       <use xlink:href="#DejaVuSans-31" x="179.199219"/>
       <use xlink:href="#DejaVuSans-30" x="242.822266"/>
       <use xlink:href="#DejaVuSans-30" x="306.445312"/>
      </g>
     </g>
    </g>
    <g id="xtick_6">
     <g id="line2d_11">
      <path d="M 455.464754 315.16 
L 455.464754 27.6 
" clip-path="url(#pd36ae4e6e1)" style="fill: none; stroke-dasharray: 2.96,1.28; stroke-dashoffset: 0; stroke: #b0b0b0; stroke-opacity: 0.5; stroke-width: 0.8"/>
     </g>
     <g id="line2d_12">
      <g>
       <use xlink:href="#m95889275cb" x="455.464754" y="315.16" style="stroke: #000000; stroke-width: 0.8"/>
      </g>
     </g>
     <g id="text_6">
      <!-- −0.075 -->
      <g transform="translate(436.960848 329.758438) scale(0.1 -0.1)">
       <use xlink:href="#DejaVuSans-2212"/>
       <use xlink:href="#DejaVuSans-30" x="83.789062"/>
       <use xlink:href="#DejaVuSans-2e" x="147.412109"/>
       <use xlink:href="#DejaVuSans-30" x="179.199219"/>
       <use xlink:href="#DejaVuSans-37" x="242.822266"/>
       <use xlink:href="#DejaVuSans-35" x="306.445312"/>
      </g>
     </g>
    </g>
    <g id="xtick_7">
     <g id="line2d_13">
      <path d="M 526.618116 315.16 
L 526.618116 27.6 
" clip-path="url(#pd36ae4e6e1)" style="fill: none; stroke-dasharray: 2.96,1.28; stroke-dashoffset: 0; stroke: #b0b0b0; stroke-opacity: 0.5; stroke-width: 0.8"/>
     </g>
     <g id="line2d_14">
      <g>
       <use xlink:href="#m95889275cb" x="526.618116" y="315.16" style="stroke: #000000; stroke-width: 0.8"/>
      </g>
     </g>
     <g id="text_7">
      <!-- −0.050 -->
      <g transform="translate(508.11421 329.758438) scale(0.1 -0.1)">
       <use xlink:href="#DejaVuSans-2212"/>
       <use xlink:href="#DejaVuSans-30" x="83.789062"/>
       <use xlink:href="#DejaVuSans-2e" x="147.412109"/>
       <use xlink:href="#DejaVuSans-30" x="179.199219"/>
       <use xlink:href="#DejaVuSans-35" x="242.822266"/>
       <use xlink:href="#DejaVuSans-30" x="306.445312"/>
      </g>
     </g>
    </g>
    <g id="text_8">
     <!-- LUMO Energy (Hartree) -->
     <g transform="translate(231.012656 345.716094) scale(0.13 -0.13)">
      <defs>
       <path id="DejaVuSans-4c" d="M 628 4666 
L 1259 4666 
L 1259 531 
L 3531 531 
L 3531 0 
L 628 0 
L 628 4666 
z
" transform="scale(0.015625)"/>
       <path id="DejaVuSans-55" d="M 556 4666 
L 1191 4666 
L 1191 1831 
Q 1191 1081 1462 751 
Q 1734 422 2344 422 
Q 2950 422 3222 751 
Q 3494 1081 3494 1831 
L 3494 4666 
L 4128 4666 
L 4128 1753 
Q 4128 841 3676 375 
Q 3225 -91 2344 -91 
Q 1459 -91 1007 375 
Q 556 841 556 1753 
L 556 4666 
z
" transform="scale(0.015625)"/>
       <path id="DejaVuSans-4d" d="M 628 4666 
L 1569 4666 
L 2759 1491 
L 3956 4666 
L 4897 4666 
L 4897 0 
L 4281 0 
L 4281 4097 
L 3078 897 
L 2444 897 
L 1241 4097 
L 1241 0 
L 628 0 
L 628 4666 
z
" transform="scale(0.015625)"/>
       <path id="DejaVuSans-4f" d="M 2522 4238 
Q 1834 4238 1429 3725 
Q 1025 3213 1025 2328 
Q 1025 1447 1429 934 
Q 1834 422 2522 422 
Q 3209 422 3611 934 
Q 4013 1447 4013 2328 
Q 4013 3213 3611 3725 
Q 3209 4238 2522 4238 
z
M 2522 4750 
Q 3503 4750 4090 4092 
Q 4678 3434 4678 2328 
Q 4678 1225 4090 567 
Q 3503 -91 2522 -91 
Q 1538 -91 948 565 
Q 359 1222 359 2328 
Q 359 3434 948 4092 
Q 1538 4750 2522 4750 
z
" transform="scale(0.015625)"/>
       <path id="DejaVuSans-20" transform="scale(0.015625)"/>
       <path id="DejaVuSans-45" d="M 628 4666 
L 3578 4666 
L 3578 4134 
L 1259 4134 
L 1259 2753 
L 3481 2753 
L 3481 2222 
L 1259 2222 
L 1259 531 
L 3634 531 
L 3634 0 
L 628 0 
L 628 4666 
z
" transform="scale(0.015625)"/>
       <path id="DejaVuSans-6e" d="M 3513 2113 
L 3513 0 
L 2938 0 
L 2938 2094 
Q 2938 2591 2744 2837 
Q 2550 3084 2163 3084 
Q 1697 3084 1428 2787 
Q 1159 2491 1159 1978 
L 1159 0 
L 581 0 
L 581 3500 
L 1159 3500 
L 1159 2956 
Q 1366 3272 1645 3428 
Q 1925 3584 2291 3584 
Q 2894 3584 3203 3211 
Q 3513 2838 3513 2113 
z
" transform="scale(0.015625)"/>
       <path id="DejaVuSans-65" d="M 3597 1894 
L 3597 1613 
L 953 1613 
Q 991 1019 1311 708 
Q 1631 397 2203 397 
Q 2534 397 2845 478 
Q 3156 559 3463 722 
L 3463 178 
Q 3153 47 2828 -22 
Q 2503 -91 2169 -91 
Q 1331 -91 842 396 
Q 353 884 353 1716 
Q 353 2575 817 3079 
Q 1281 3584 2069 3584 
Q 2775 3584 3186 3129 
Q 3597 2675 3597 1894 
z
M 3022 2063 
Q 3016 2534 2758 2815 
Q 2500 3097 2075 3097 
Q 1594 3097 1305 2825 
Q 1016 2553 972 2059 
L 3022 2063 
z
" transform="scale(0.015625)"/>
       <path id="DejaVuSans-72" d="M 2631 2963 
Q 2534 3019 2420 3045 
Q 2306 3072 2169 3072 
Q 1681 3072 1420 2755 
Q 1159 2438 1159 1844 
L 1159 0 
L 581 0 
L 581 3500 
L 1159 3500 
L 1159 2956 
Q 1341 3275 1631 3429 
Q 1922 3584 2338 3584 
Q 2397 3584 2469 3576 
Q 2541 3569 2628 3553 
L 2631 2963 
z
" transform="scale(0.015625)"/>
       <path id="DejaVuSans-67" d="M 2906 1791 
Q 2906 2416 2648 2759 
Q 2391 3103 1925 3103 
Q 1463 3103 1205 2759 
Q 947 2416 947 1791 
Q 947 1169 1205 825 
Q 1463 481 1925 481 
Q 2391 481 2648 825 
Q 2906 1169 2906 1791 
z
M 3481 434 
Q 3481 -459 3084 -895 
Q 2688 -1331 1869 -1331 
Q 1566 -1331 1297 -1286 
Q 1028 -1241 775 -1147 
L 775 -588 
Q 1028 -725 1275 -790 
Q 1522 -856 1778 -856 
Q 2344 -856 2625 -561 
Q 2906 -266 2906 331 
L 2906 616 
Q 2728 306 2450 153 
Q 2172 0 1784 0 
Q 1141 0 747 490 
Q 353 981 353 1791 
Q 353 2603 747 3093 
Q 1141 3584 1784 3584 
Q 2172 3584 2450 3431 
Q 2728 3278 2906 2969 
L 2906 3500 
L 3481 3500 
L 3481 434 
z
" transform="scale(0.015625)"/>
       <path id="DejaVuSans-79" d="M 2059 -325 
Q 1816 -950 1584 -1140 
Q 1353 -1331 966 -1331 
L 506 -1331 
L 506 -850 
L 844 -850 
Q 1081 -850 1212 -737 
Q 1344 -625 1503 -206 
L 1606 56 
L 191 3500 
L 800 3500 
L 1894 763 
L 2988 3500 
L 3597 3500 
L 2059 -325 
z
" transform="scale(0.015625)"/>
       <path id="DejaVuSans-28" d="M 1984 4856 
Q 1566 4138 1362 3434 
Q 1159 2731 1159 2009 
Q 1159 1288 1364 580 
Q 1569 -128 1984 -844 
L 1484 -844 
Q 1016 -109 783 600 
Q 550 1309 550 2009 
Q 550 2706 781 3412 
Q 1013 4119 1484 4856 
L 1984 4856 
z
" transform="scale(0.015625)"/>
       <path id="DejaVuSans-48" d="M 628 4666 
L 1259 4666 
L 1259 2753 
L 3553 2753 
L 3553 4666 
L 4184 4666 
L 4184 0 
L 3553 0 
L 3553 2222 
L 1259 2222 
L 1259 0 
L 628 0 
L 628 4666 
z
" transform="scale(0.015625)"/>
       <path id="DejaVuSans-61" d="M 2194 1759 
Q 1497 1759 1228 1600 
Q 959 1441 959 1056 
Q 959 750 1161 570 
Q 1363 391 1709 391 
Q 2188 391 2477 730 
Q 2766 1069 2766 1631 
L 2766 1759 
L 2194 1759 
z
M 3341 1997 
L 3341 0 
L 2766 0 
L 2766 531 
Q 2569 213 2275 61 
Q 1981 -91 1556 -91 
Q 1019 -91 701 211 
Q 384 513 384 1019 
Q 384 1609 779 1909 
Q 1175 2209 1959 2209 
L 2766 2209 
L 2766 2266 
Q 2766 2663 2505 2880 
Q 2244 3097 1772 3097 
Q 1472 3097 1187 3025 
Q 903 2953 641 2809 
L 641 3341 
Q 956 3463 1253 3523 
Q 1550 3584 1831 3584 
Q 2591 3584 2966 3190 
Q 3341 2797 3341 1997 
z
" transform="scale(0.015625)"/>
       <path id="DejaVuSans-74" d="M 1172 4494 
L 1172 3500 
L 2356 3500 
L 2356 3053 
L 1172 3053 
L 1172 1153 
Q 1172 725 1289 603 
Q 1406 481 1766 481 
L 2356 481 
L 2356 0 
L 1766 0 
Q 1100 0 847 248 
Q 594 497 594 1153 
L 594 3053 
L 172 3053 
L 172 3500 
L 594 3500 
L 594 4494 
L 1172 4494 
z
" transform="scale(0.015625)"/>
       <path id="DejaVuSans-29" d="M 513 4856 
L 1013 4856 
Q 1481 4119 1714 3412 
Q 1947 2706 1947 2009 
Q 1947 1309 1714 600 
Q 1481 -109 1013 -844 
L 513 -844 
Q 928 -128 1133 580 
Q 1338 1288 1338 2009 
Q 1338 2731 1133 3434 
Q 928 4138 513 4856 
z
" transform="scale(0.015625)"/>
      </defs>
      <use xlink:href="#DejaVuSans-4c"/>
      <use xlink:href="#DejaVuSans-55" x="50.712891"/>
      <use xlink:href="#DejaVuSans-4d" x="123.90625"/>
      <use xlink:href="#DejaVuSans-4f" x="210.185547"/>
      <use xlink:href="#DejaVuSans-20" x="288.896484"/>
      <use xlink:href="#DejaVuSans-45" x="320.683594"/>
      <use xlink:href="#DejaVuSans-6e" x="383.867188"/>
      <use xlink:href="#DejaVuSans-65" x="447.246094"/>
      <use xlink:href="#DejaVuSans-72" x="508.769531"/>
      <use xlink:href="#DejaVuSans-67" x="548.132812"/>
      <use xlink:href="#DejaVuSans-79" x="611.609375"/>
      <use xlink:href="#DejaVuSans-20" x="670.789062"/>
      <use xlink:href="#DejaVuSans-28" x="702.576172"/>
      <use xlink:href="#DejaVuSans-48" x="741.589844"/>
      <use xlink:href="#DejaVuSans-61" x="816.785156"/>
      <use xlink:href="#DejaVuSans-72" x="878.064453"/>
      <use xlink:href="#DejaVuSans-74" x="919.177734"/>
      <use xlink:href="#DejaVuSans-72" x="958.386719"/>
      <use xlink:href="#DejaVuSans-65" x="997.25"/>
      <use xlink:href="#DejaVuSans-65" x="1058.773438"/>
      <use xlink:href="#DejaVuSans-29" x="1120.296875"/>
     </g>
    </g>
   </g>
   <g id="matplotlib.axis_2">
    <g id="ytick_1">
     <g id="line2d_15">
      <path d="M 47.54 315.16 
L 565.2 315.16 
" clip-path="url(#pd36ae4e6e1)" style="fill: none; stroke-dasharray: 2.96,1.28; stroke-dashoffset: 0; stroke: #b0b0b0; stroke-opacity: 0.5; stroke-width: 0.8"/>
     </g>
     <g id="line2d_16">
      <defs>
       <path id="mf34f3c0135" d="M 0 0 
L -3.5 0 
" style="stroke: #000000; stroke-width: 0.8"/>
      </defs>
      <g>
       <use xlink:href="#mf34f3c0135" x="47.54" y="315.16" style="stroke: #000000; stroke-width: 0.8"/>
      </g>
     </g>
     <g id="text_9">
      <!-- 0 -->
      <g transform="translate(34.1775 318.959219) scale(0.1 -0.1)">
       <use xlink:href="#DejaVuSans-30"/>
      </g>
     </g>
    </g>
    <g id="ytick_2">
     <g id="line2d_17">
      <path d="M 47.54 260.162048 
L 565.2 260.162048 
" clip-path="url(#pd36ae4e6e1)" style="fill: none; stroke-dasharray: 2.96,1.28; stroke-dashoffset: 0; stroke: #b0b0b0; stroke-opacity: 0.5; stroke-width: 0.8"/>
     </g>
     <g id="line2d_18">
      <g>
       <use xlink:href="#mf34f3c0135" x="47.54" y="260.162048" style="stroke: #000000; stroke-width: 0.8"/>
      </g>
     </g>
     <g id="text_10">
      <!-- 5 -->
      <g transform="translate(34.1775 263.961267) scale(0.1 -0.1)">
       <use xlink:href="#DejaVuSans-35"/>
      </g>
     </g>
    </g>
    <g id="ytick_3">
     <g id="line2d_19">
      <path d="M 47.54 205.164096 
L 565.2 205.164096 
" clip-path="url(#pd36ae4e6e1)" style="fill: none; stroke-dasharray: 2.96,1.28; stroke-dashoffset: 0; stroke: #b0b0b0; stroke-opacity: 0.5; stroke-width: 0.8"/>
     </g>
     <g id="line2d_20">
      <g>
       <use xlink:href="#mf34f3c0135" x="47.54" y="205.164096" style="stroke: #000000; stroke-width: 0.8"/>
      </g>
     </g>
     <g id="text_11">
      <!-- 10 -->
      <g transform="translate(27.815 208.963314) scale(0.1 -0.1)">
       <use xlink:href="#DejaVuSans-31"/>
       <use xlink:href="#DejaVuSans-30" x="63.623047"/>
      </g>
     </g>
    </g>
    <g id="ytick_4">
     <g id="line2d_21">
      <path d="M 47.54 150.166144 
L 565.2 150.166144 
" clip-path="url(#pd36ae4e6e1)" style="fill: none; stroke-dasharray: 2.96,1.28; stroke-dashoffset: 0; stroke: #b0b0b0; stroke-opacity: 0.5; stroke-width: 0.8"/>
     </g>
     <g id="line2d_22">
      <g>
       <use xlink:href="#mf34f3c0135" x="47.54" y="150.166144" style="stroke: #000000; stroke-width: 0.8"/>
      </g>
     </g>
     <g id="text_12">
      <!-- 15 -->
      <g transform="translate(27.815 153.965362) scale(0.1 -0.1)">
       <use xlink:href="#DejaVuSans-31"/>
       <use xlink:href="#DejaVuSans-35" x="63.623047"/>
      </g>
     </g>
    </g>
    <g id="ytick_5">
     <g id="line2d_23">
      <path d="M 47.54 95.168191 
L 565.2 95.168191 
" clip-path="url(#pd36ae4e6e1)" style="fill: none; stroke-dasharray: 2.96,1.28; stroke-dashoffset: 0; stroke: #b0b0b0; stroke-opacity: 0.5; stroke-width: 0.8"/>
     </g>
     <g id="line2d_24">
      <g>
       <use xlink:href="#mf34f3c0135" x="47.54" y="95.168191" style="stroke: #000000; stroke-width: 0.8"/>
      </g>
     </g>
     <g id="text_13">
      <!-- 20 -->
      <g transform="translate(27.815 98.96741) scale(0.1 -0.1)">
       <use xlink:href="#DejaVuSans-32"/>
       <use xlink:href="#DejaVuSans-30" x="63.623047"/>
      </g>
     </g>
    </g>
    <g id="ytick_6">
     <g id="line2d_25">
      <path d="M 47.54 40.170239 
L 565.2 40.170239 
" clip-path="url(#pd36ae4e6e1)" style="fill: none; stroke-dasharray: 2.96,1.28; stroke-dashoffset: 0; stroke: #b0b0b0; stroke-opacity: 0.5; stroke-width: 0.8"/>
     </g>
     <g id="line2d_26">
      <g>
       <use xlink:href="#mf34f3c0135" x="47.54" y="40.170239" style="stroke: #000000; stroke-width: 0.8"/>
      </g>
     </g>
     <g id="text_14">
      <!-- 25 -->
      <g transform="translate(27.815 43.969458) scale(0.1 -0.1)">
       <use xlink:href="#DejaVuSans-32"/>
       <use xlink:href="#DejaVuSans-35" x="63.623047"/>
      </g>
     </g>
    </g>
    <g id="text_15">
     <!-- Density -->
     <g transform="translate(21.111406 196.091172) rotate(-90) scale(0.13 -0.13)">
      <defs>
       <path id="DejaVuSans-44" d="M 1259 4147 
L 1259 519 
L 2022 519 
Q 2988 519 3436 956 
Q 3884 1394 3884 2338 
Q 3884 3275 3436 3711 
Q 2988 4147 2022 4147 
L 1259 4147 
z
M 628 4666 
L 1925 4666 
Q 3281 4666 3915 4102 
Q 4550 3538 4550 2338 
Q 4550 1131 3912 565 
Q 3275 0 1925 0 
L 628 0 
L 628 4666 
z
" transform="scale(0.015625)"/>
       <path id="DejaVuSans-73" d="M 2834 3397 
L 2834 2853 
Q 2591 2978 2328 3040 
Q 2066 3103 1784 3103 
Q 1356 3103 1142 2972 
Q 928 2841 928 2578 
Q 928 2378 1081 2264 
Q 1234 2150 1697 2047 
L 1894 2003 
Q 2506 1872 2764 1633 
Q 3022 1394 3022 966 
Q 3022 478 2636 193 
Q 2250 -91 1575 -91 
Q 1294 -91 989 -36 
Q 684 19 347 128 
L 347 722 
Q 666 556 975 473 
Q 1284 391 1588 391 
Q 1994 391 2212 530 
Q 2431 669 2431 922 
Q 2431 1156 2273 1281 
Q 2116 1406 1581 1522 
L 1381 1569 
Q 847 1681 609 1914 
Q 372 2147 372 2553 
Q 372 3047 722 3315 
Q 1072 3584 1716 3584 
Q 2034 3584 2315 3537 
Q 2597 3491 2834 3397 
z
" transform="scale(0.015625)"/>
       <path id="DejaVuSans-69" d="M 603 3500 
L 1178 3500 
L 1178 0 
L 603 0 
L 603 3500 
z
M 603 4863 
L 1178 4863 
L 1178 4134 
L 603 4134 
L 603 4863 
z
" transform="scale(0.015625)"/>
      </defs>
      <use xlink:href="#DejaVuSans-44"/>
      <use xlink:href="#DejaVuSans-65" x="77.001953"/>
      <use xlink:href="#DejaVuSans-6e" x="138.525391"/>
      <use xlink:href="#DejaVuSans-73" x="201.904297"/>
      <use xlink:href="#DejaVuSans-69" x="254.003906"/>
      <use xlink:href="#DejaVuSans-74" x="281.787109"/>
      <use xlink:href="#DejaVuSans-79" x="320.996094"/>
     </g>
    </g>
   </g>
   <g id="line2d_27">
    <path d="M 291.319467 315.16 
L 291.319467 27.6 
" clip-path="url(#pd36ae4e6e1)" style="fill: none; stroke-dasharray: 5.55,2.4; stroke-dashoffset: 0; stroke: #4169e1; stroke-width: 1.5"/>
   </g>
   <g id="line2d_28">
    <path d="M 247.786306 315.16 
L 247.786306 27.6 
" clip-path="url(#pd36ae4e6e1)" style="fill: none; stroke-dasharray: 5.55,2.4; stroke-dashoffset: 0; stroke: #ff4500; stroke-width: 1.5"/>
   </g>
   <g id="patch_3">
    <path d="M 47.54 315.16 
L 47.54 27.6 
" style="fill: none; stroke: #000000; stroke-width: 0.8; stroke-linejoin: miter; stroke-linecap: square"/>
   </g>
   <g id="patch_4">
    <path d="M 565.2 315.16 
L 565.2 27.6 
" style="fill: none; stroke: #000000; stroke-width: 0.8; stroke-linejoin: miter; stroke-linecap: square"/>
   </g>
   <g id="patch_5">
    <path d="M 47.54 315.16 
L 565.2 315.16 
" style="fill: none; stroke: #000000; stroke-width: 0.8; stroke-linejoin: miter; stroke-linecap: square"/>
   </g>
   <g id="patch_6">
    <path d="M 47.54 27.6 
L 565.2 27.6 
" style="fill: none; stroke: #000000; stroke-width: 0.8; stroke-linejoin: miter; stroke-linecap: square"/>
   </g>
   <g id="text_16">
    <!-- Mean DFT: -0.133 -->
    <g style="fill: #4169e1" transform="translate(57.8932 50.336281) scale(0.11 -0.11)">
     <defs>
      <path id="DejaVuSans-46" d="M 628 4666 
L 3309 4666 
L 3309 4134 
L 1259 4134 
L 1259 2759 
L 3109 2759 
L 3109 2228 
L 1259 2228 
L 1259 0 
L 628 0 
L 628 4666 
z
" transform="scale(0.015625)"/>
      <path id="DejaVuSans-54" d="M -19 4666 
L 3928 4666 
L 3928 4134 
L 2272 4134 
L 2272 0 
L 1638 0 
L 1638 4134 
L -19 4134 
L -19 4666 
z
" transform="scale(0.015625)"/>
      <path id="DejaVuSans-3a" d="M 750 794 
L 1409 794 
L 1409 0 
L 750 0 
L 750 794 
z
M 750 3309 
L 1409 3309 
L 1409 2516 
L 750 2516 
L 750 3309 
z
" transform="scale(0.015625)"/>
      <path id="DejaVuSans-2d" d="M 313 2009 
L 1997 2009 
L 1997 1497 
L 313 1497 
L 313 2009 
z
" transform="scale(0.015625)"/>
      <path id="DejaVuSans-33" d="M 2597 2516 
Q 3050 2419 3304 2112 
Q 3559 1806 3559 1356 
Q 3559 666 3084 287 
Q 2609 -91 1734 -91 
Q 1441 -91 1130 -33 
Q 819 25 488 141 
L 488 750 
Q 750 597 1062 519 
Q 1375 441 1716 441 
Q 2309 441 2620 675 
Q 2931 909 2931 1356 
Q 2931 1769 2642 2001 
Q 2353 2234 1838 2234 
L 1294 2234 
L 1294 2753 
L 1863 2753 
Q 2328 2753 2575 2939 
Q 2822 3125 2822 3475 
Q 2822 3834 2567 4026 
Q 2313 4219 1838 4219 
Q 1578 4219 1281 4162 
Q 984 4106 628 3988 
L 628 4550 
Q 988 4650 1302 4700 
Q 1616 4750 1894 4750 
Q 2613 4750 3031 4423 
Q 3450 4097 3450 3541 
Q 3450 3153 3228 2886 
Q 3006 2619 2597 2516 
z
" transform="scale(0.015625)"/>
     </defs>
     <use xlink:href="#DejaVuSans-4d"/>
     <use xlink:href="#DejaVuSans-65" x="86.279297"/>
     <use xlink:href="#DejaVuSans-61" x="147.802734"/>
     <use xlink:href="#DejaVuSans-6e" x="209.082031"/>
     <use xlink:href="#DejaVuSans-20" x="272.460938"/>
     <use xlink:href="#DejaVuSans-44" x="304.248047"/>
     <use xlink:href="#DejaVuSans-46" x="381.25"/>
     <use xlink:href="#DejaVuSans-54" x="437.019531"/>
     <use xlink:href="#DejaVuSans-3a" x="487.103516"/>
     <use xlink:href="#DejaVuSans-20" x="520.794922"/>
     <use xlink:href="#DejaVuSans-2d" x="552.582031"/>
     <use xlink:href="#DejaVuSans-30" x="588.666016"/>
     <use xlink:href="#DejaVuSans-2e" x="652.289062"/>
     <use xlink:href="#DejaVuSans-31" x="684.076172"/>
     <use xlink:href="#DejaVuSans-33" x="747.699219"/>
     <use xlink:href="#DejaVuSans-33" x="811.322266"/>
    </g>
   </g>
   <g id="text_17">
    <!-- Mean Pred: -0.148 -->
    <g style="fill: #ff4500" transform="translate(57.8932 70.465481) scale(0.11 -0.11)">
     <defs>
      <path id="DejaVuSans-50" d="M 1259 4147 
L 1259 2394 
L 2053 2394 
Q 2494 2394 2734 2622 
Q 2975 2850 2975 3272 
Q 2975 3691 2734 3919 
Q 2494 4147 2053 4147 
L 1259 4147 
z
M 628 4666 
L 2053 4666 
Q 2838 4666 3239 4311 
Q 3641 3956 3641 3272 
Q 3641 2581 3239 2228 
Q 2838 1875 2053 1875 
L 1259 1875 
L 1259 0 
L 628 0 
L 628 4666 
z
" transform="scale(0.015625)"/>
      <path id="DejaVuSans-64" d="M 2906 2969 
L 2906 4863 
L 3481 4863 
L 3481 0 
L 2906 0 
L 2906 525 
Q 2725 213 2448 61 
Q 2172 -91 1784 -91 
Q 1150 -91 751 415 
Q 353 922 353 1747 
Q 353 2572 751 3078 
Q 1150 3584 1784 3584 
Q 2172 3584 2448 3432 
Q 2725 3281 2906 2969 
z
M 947 1747 
Q 947 1113 1208 752 
Q 1469 391 1925 391 
Q 2381 391 2643 752 
Q 2906 1113 2906 1747 
Q 2906 2381 2643 2742 
Q 2381 3103 1925 3103 
Q 1469 3103 1208 2742 
Q 947 2381 947 1747 
z
" transform="scale(0.015625)"/>
      <path id="DejaVuSans-34" d="M 2419 4116 
L 825 1625 
L 2419 1625 
L 2419 4116 
z
M 2253 4666 
L 3047 4666 
L 3047 1625 
L 3713 1625 
L 3713 1100 
L 3047 1100 
L 3047 0 
L 2419 0 
L 2419 1100 
L 313 1100 
L 313 1709 
L 2253 4666 
z
" transform="scale(0.015625)"/>
      <path id="DejaVuSans-38" d="M 2034 2216 
Q 1584 2216 1326 1975 
Q 1069 1734 1069 1313 
Q 1069 891 1326 650 
Q 1584 409 2034 409 
Q 2484 409 2743 651 
Q 3003 894 3003 1313 
Q 3003 1734 2745 1975 
Q 2488 2216 2034 2216 
z
M 1403 2484 
Q 997 2584 770 2862 
Q 544 3141 544 3541 
Q 544 4100 942 4425 
Q 1341 4750 2034 4750 
Q 2731 4750 3128 4425 
Q 3525 4100 3525 3541 
Q 3525 3141 3298 2862 
Q 3072 2584 2669 2484 
Q 3125 2378 3379 2068 
Q 3634 1759 3634 1313 
Q 3634 634 3220 271 
Q 2806 -91 2034 -91 
Q 1263 -91 848 271 
Q 434 634 434 1313 
Q 434 1759 690 2068 
Q 947 2378 1403 2484 
z
M 1172 3481 
Q 1172 3119 1398 2916 
Q 1625 2713 2034 2713 
Q 2441 2713 2670 2916 
Q 2900 3119 2900 3481 
Q 2900 3844 2670 4047 
Q 2441 4250 2034 4250 
Q 1625 4250 1398 4047 
Q 1172 3844 1172 3481 
z
" transform="scale(0.015625)"/>
     </defs>
     <use xlink:href="#DejaVuSans-4d"/>
     <use xlink:href="#DejaVuSans-65" x="86.279297"/>
     <use xlink:href="#DejaVuSans-61" x="147.802734"/>
     <use xlink:href="#DejaVuSans-6e" x="209.082031"/>
     <use xlink:href="#DejaVuSans-20" x="272.460938"/>
     <use xlink:href="#DejaVuSans-50" x="304.248047"/>
     <use xlink:href="#DejaVuSans-72" x="362.800781"/>
     <use xlink:href="#DejaVuSans-65" x="401.664062"/>
     <use xlink:href="#DejaVuSans-64" x="463.1875"/>
     <use xlink:href="#DejaVuSans-3a" x="526.664062"/>
     <use xlink:href="#DejaVuSans-20" x="560.355469"/>
     <use xlink:href="#DejaVuSans-2d" x="592.142578"/>
     <use xlink:href="#DejaVuSans-30" x="628.226562"/>
     <use xlink:href="#DejaVuSans-2e" x="691.849609"/>
     <use xlink:href="#DejaVuSans-31" x="723.636719"/>
     <use xlink:href="#DejaVuSans-34" x="787.259766"/>
     <use xlink:href="#DejaVuSans-38" x="850.882812"/>
    </g>
   </g>
   <g id="text_18">
    <!-- Density Distribution: DFT vs Predicted LUMO -->
    <g transform="translate(150.999531 21.6) scale(0.14 -0.14)">
     <defs>
      <path id="DejaVuSans-62" d="M 3116 1747 
Q 3116 2381 2855 2742 
Q 2594 3103 2138 3103 
Q 1681 3103 1420 2742 
Q 1159 2381 1159 1747 
Q 1159 1113 1420 752 
Q 1681 391 2138 391 
Q 2594 391 2855 752 
Q 3116 1113 3116 1747 
z
M 1159 2969 
Q 1341 3281 1617 3432 
Q 1894 3584 2278 3584 
Q 2916 3584 3314 3078 
Q 3713 2572 3713 1747 
Q 3713 922 3314 415 
Q 2916 -91 2278 -91 
Q 1894 -91 1617 61 
Q 1341 213 1159 525 
L 1159 0 
L 581 0 
L 581 4863 
L 1159 4863 
L 1159 2969 
z
" transform="scale(0.015625)"/>
      <path id="DejaVuSans-75" d="M 544 1381 
L 544 3500 
L 1119 3500 
L 1119 1403 
Q 1119 906 1312 657 
Q 1506 409 1894 409 
Q 2359 409 2629 706 
Q 2900 1003 2900 1516 
L 2900 3500 
L 3475 3500 
L 3475 0 
L 2900 0 
L 2900 538 
Q 2691 219 2414 64 
Q 2138 -91 1772 -91 
Q 1169 -91 856 284 
Q 544 659 544 1381 
z
M 1991 3584 
L 1991 3584 
z
" transform="scale(0.015625)"/>
      <path id="DejaVuSans-6f" d="M 1959 3097 
Q 1497 3097 1228 2736 
Q 959 2375 959 1747 
Q 959 1119 1226 758 
Q 1494 397 1959 397 
Q 2419 397 2687 759 
Q 2956 1122 2956 1747 
Q 2956 2369 2687 2733 
Q 2419 3097 1959 3097 
z
M 1959 3584 
Q 2709 3584 3137 3096 
Q 3566 2609 3566 1747 
Q 3566 888 3137 398 
Q 2709 -91 1959 -91 
Q 1206 -91 779 398 
Q 353 888 353 1747 
Q 353 2609 779 3096 
Q 1206 3584 1959 3584 
z
" transform="scale(0.015625)"/>
      <path id="DejaVuSans-76" d="M 191 3500 
L 800 3500 
L 1894 563 
L 2988 3500 
L 3597 3500 
L 2284 0 
L 1503 0 
L 191 3500 
z
" transform="scale(0.015625)"/>
      <path id="DejaVuSans-63" d="M 3122 3366 
L 3122 2828 
Q 2878 2963 2633 3030 
Q 2388 3097 2138 3097 
Q 1578 3097 1268 2742 
Q 959 2388 959 1747 
Q 959 1106 1268 751 
Q 1578 397 2138 397 
Q 2388 397 2633 464 
Q 2878 531 3122 666 
L 3122 134 
Q 2881 22 2623 -34 
Q 2366 -91 2075 -91 
Q 1284 -91 818 406 
Q 353 903 353 1747 
Q 353 2603 823 3093 
Q 1294 3584 2113 3584 
Q 2378 3584 2631 3529 
Q 2884 3475 3122 3366 
z
" transform="scale(0.015625)"/>
     </defs>
     <use xlink:href="#DejaVuSans-44"/>
     <use xlink:href="#DejaVuSans-65" x="77.001953"/>
     <use xlink:href="#DejaVuSans-6e" x="138.525391"/>
     <use xlink:href="#DejaVuSans-73" x="201.904297"/>
     <use xlink:href="#DejaVuSans-69" x="254.003906"/>
     <use xlink:href="#DejaVuSans-74" x="281.787109"/>
     <use xlink:href="#DejaVuSans-79" x="320.996094"/>
     <use xlink:href="#DejaVuSans-20" x="380.175781"/>
     <use xlink:href="#DejaVuSans-44" x="411.962891"/>
     <use xlink:href="#DejaVuSans-69" x="488.964844"/>
     <use xlink:href="#DejaVuSans-73" x="516.748047"/>
     <use xlink:href="#DejaVuSans-74" x="568.847656"/>
     <use xlink:href="#DejaVuSans-72" x="608.056641"/>
     <use xlink:href="#DejaVuSans-69" x="649.169922"/>
     <use xlink:href="#DejaVuSans-62" x="676.953125"/>
     <use xlink:href="#DejaVuSans-75" x="740.429688"/>
     <use xlink:href="#DejaVuSans-74" x="803.808594"/>
     <use xlink:href="#DejaVuSans-69" x="843.017578"/>
     <use xlink:href="#DejaVuSans-6f" x="870.800781"/>
     <use xlink:href="#DejaVuSans-6e" x="931.982422"/>
     <use xlink:href="#DejaVuSans-3a" x="995.361328"/>
     <use xlink:href="#DejaVuSans-20" x="1029.052734"/>
     <use xlink:href="#DejaVuSans-44" x="1060.839844"/>
     <use xlink:href="#DejaVuSans-46" x="1137.841797"/>
     <use xlink:href="#DejaVuSans-54" x="1193.611328"/>
     <use xlink:href="#DejaVuSans-20" x="1254.695312"/>
     <use xlink:href="#DejaVuSans-76" x="1286.482422"/>
     <use xlink:href="#DejaVuSans-73" x="1345.662109"/>
     <use xlink:href="#DejaVuSans-20" x="1397.761719"/>
     <use xlink:href="#DejaVuSans-50" x="1429.548828"/>
     <use xlink:href="#DejaVuSans-72" x="1488.101562"/>
     <use xlink:href="#DejaVuSans-65" x="1526.964844"/>
     <use xlink:href="#DejaVuSans-64" x="1588.488281"/>
     <use xlink:href="#DejaVuSans-69" x="1651.964844"/>
     <use xlink:href="#DejaVuSans-63" x="1679.748047"/>
     <use xlink:href="#DejaVuSans-74" x="1734.728516"/>
     <use xlink:href="#DejaVuSans-65" x="1773.9375"/>
     <use xlink:href="#DejaVuSans-64" x="1835.460938"/>
     <use xlink:href="#DejaVuSans-20" x="1898.9375"/>
     <use xlink:href="#DejaVuSans-4c" x="1930.724609"/>
     <use xlink:href="#DejaVuSans-55" x="1981.4375"/>
     <use xlink:href="#DejaVuSans-4d" x="2054.630859"/>
     <use xlink:href="#DejaVuSans-4f" x="2140.910156"/>
    </g>
   </g>
   <g id="legend_1">
    <g id="patch_7">
     <path d="M 423.58875 72.4275 
L 556.8 72.4275 
Q 559.2 72.4275 559.2 70.0275 
L 559.2 36 
Q 559.2 33.6 556.8 33.6 
L 423.58875 33.6 
Q 421.18875 33.6 421.18875 36 
L 421.18875 70.0275 
Q 421.18875 72.4275 423.58875 72.4275 
z
" style="fill: #ffffff; opacity: 0.8; stroke: #cccccc; stroke-linejoin: miter"/>
    </g>
    <g id="patch_8">
     <path d="M 425.98875 47.518125 
L 449.98875 47.518125 
L 449.98875 39.118125 
L 425.98875 39.118125 
z
" style="fill: #4169e1; fill-opacity: 0.4; stroke: #4169e1; stroke-width: 2; stroke-linejoin: miter"/>
    </g>
    <g id="text_19">
     <!-- DFT LUMO -->
     <g transform="translate(459.58875 47.518125) scale(0.12 -0.12)">
      <use xlink:href="#DejaVuSans-44"/>
      <use xlink:href="#DejaVuSans-46" x="77.001953"/>
      <use xlink:href="#DejaVuSans-54" x="132.771484"/>
      <use xlink:href="#DejaVuSans-20" x="193.855469"/>
      <use xlink:href="#DejaVuSans-4c" x="225.642578"/>
      <use xlink:href="#DejaVuSans-55" x="276.355469"/>
      <use xlink:href="#DejaVuSans-4d" x="349.548828"/>
      <use xlink:href="#DejaVuSans-4f" x="435.828125"/>
     </g>
    </g>
    <g id="patch_9">
     <path d="M 425.98875 65.131875 
L 449.98875 65.131875 
L 449.98875 56.731875 
L 425.98875 56.731875 
z
" style="fill: #ff4500; fill-opacity: 0.4; stroke: #ff4500; stroke-width: 2; stroke-linejoin: miter"/>
    </g>
    <g id="text_20">
     <!-- Predicted LUMO -->
     <g transform="translate(459.58875 65.131875) scale(0.12 -0.12)">
      <use xlink:href="#DejaVuSans-50"/>
      <use xlink:href="#DejaVuSans-72" x="58.552734"/>
      <use xlink:href="#DejaVuSans-65" x="97.416016"/>
      <use xlink:href="#DejaVuSans-64" x="158.939453"/>
      <use xlink:href="#DejaVuSans-69" x="222.416016"/>
      <use xlink:href="#DejaVuSans-63" x="250.199219"/>
      <use xlink:href="#DejaVuSans-74" x="305.179688"/>
      <use xlink:href="#DejaVuSans-65" x="344.388672"/>
      <use xlink:href="#DejaVuSans-64" x="405.912109"/>
      <use xlink:href="#DejaVuSans-20" x="469.388672"/>
      <use xlink:href="#DejaVuSans-4c" x="501.175781"/>
      <use xlink:href="#DejaVuSans-55" x="551.888672"/>
      <use xlink:href="#DejaVuSans-4d" x="625.082031"/>
      <use xlink:href="#DejaVuSans-4f" x="711.361328"/>
     </g>
    </g>
   </g>
  </g>
 </g>
 <defs>
  <clipPath id="pd36ae4e6e1">
   <rect x="47.54" y="27.6" width="517.66" height="287.56"/>
  </clipPath>
 </defs>
</svg>
