<?xml version='1.0' encoding='utf-8'?>
<svg xmlns="http://www.w3.org/2000/svg" version="1.1" baseProfile="full" xml:space="preserve" width="300px" height="300px" viewBox="0 0 300 300">

<rect style="opacity:1.0;fill:#FFFFFF;stroke:none" width="300.0" height="300.0" x="0.0" y="0.0"> </rect>
<path class="bond-0 atom-0 atom-1" d="M 178.4,201.4 L 144.6,176.4" style="fill:none;fill-rule:evenodd;stroke:#000000;stroke-width:2.0px;stroke-linecap:butt;stroke-linejoin:miter;stroke-opacity:1" />
<path class="bond-1 atom-1 atom-2" d="M 144.6,176.4 L 144.9,134.4" style="fill:none;fill-rule:evenodd;stroke:#000000;stroke-width:2.0px;stroke-linecap:butt;stroke-linejoin:miter;stroke-opacity:1" />
<path class="bond-1 atom-1 atom-2" d="M 138.3,171.8 L 138.6,138.9" style="fill:none;fill-rule:evenodd;stroke:#000000;stroke-width:2.0px;stroke-linecap:butt;stroke-linejoin:miter;stroke-opacity:1" />
<path class="bond-2 atom-2 atom-3" d="M 144.9,134.4 L 127.6,128.6" style="fill:none;fill-rule:evenodd;stroke:#000000;stroke-width:2.0px;stroke-linecap:butt;stroke-linejoin:miter;stroke-opacity:1" />
<path class="bond-2 atom-2 atom-3" d="M 127.6,128.6 L 110.2,122.8" style="fill:none;fill-rule:evenodd;stroke:#CCCC00;stroke-width:2.0px;stroke-linecap:butt;stroke-linejoin:miter;stroke-opacity:1" />
<path class="bond-3 atom-3 atom-4" d="M 99.8,128.1 L 89.9,141.5" style="fill:none;fill-rule:evenodd;stroke:#CCCC00;stroke-width:2.0px;stroke-linecap:butt;stroke-linejoin:miter;stroke-opacity:1" />
<path class="bond-3 atom-3 atom-4" d="M 89.9,141.5 L 80.0,154.9" style="fill:none;fill-rule:evenodd;stroke:#000000;stroke-width:2.0px;stroke-linecap:butt;stroke-linejoin:miter;stroke-opacity:1" />
<path class="bond-4 atom-4 atom-5" d="M 80.0,154.9 L 62.0,154.7" style="fill:none;fill-rule:evenodd;stroke:#000000;stroke-width:2.0px;stroke-linecap:butt;stroke-linejoin:miter;stroke-opacity:1" />
<path class="bond-4 atom-4 atom-5" d="M 62.0,154.7 L 43.9,154.6" style="fill:none;fill-rule:evenodd;stroke:#0000FF;stroke-width:2.0px;stroke-linecap:butt;stroke-linejoin:miter;stroke-opacity:1" />
<path class="bond-5 atom-4 atom-6" d="M 80.0,154.9 L 89.6,168.3" style="fill:none;fill-rule:evenodd;stroke:#000000;stroke-width:2.0px;stroke-linecap:butt;stroke-linejoin:miter;stroke-opacity:1" />
<path class="bond-5 atom-4 atom-6" d="M 89.6,168.3 L 99.2,181.7" style="fill:none;fill-rule:evenodd;stroke:#0000FF;stroke-width:2.0px;stroke-linecap:butt;stroke-linejoin:miter;stroke-opacity:1" />
<path class="bond-5 atom-4 atom-6" d="M 87.8,154.9 L 96.1,166.5" style="fill:none;fill-rule:evenodd;stroke:#000000;stroke-width:2.0px;stroke-linecap:butt;stroke-linejoin:miter;stroke-opacity:1" />
<path class="bond-5 atom-4 atom-6" d="M 96.1,166.5 L 104.4,178.1" style="fill:none;fill-rule:evenodd;stroke:#0000FF;stroke-width:2.0px;stroke-linecap:butt;stroke-linejoin:miter;stroke-opacity:1" />
<path class="bond-6 atom-2 atom-7" d="M 144.9,134.4 L 159.1,124.2" style="fill:none;fill-rule:evenodd;stroke:#000000;stroke-width:2.0px;stroke-linecap:butt;stroke-linejoin:miter;stroke-opacity:1" />
<path class="bond-6 atom-2 atom-7" d="M 159.1,124.2 L 173.2,114.1" style="fill:none;fill-rule:evenodd;stroke:#0000FF;stroke-width:2.0px;stroke-linecap:butt;stroke-linejoin:miter;stroke-opacity:1" />
<path class="bond-7 atom-7 atom-8" d="M 185.0,112.6 L 201.2,120.0" style="fill:none;fill-rule:evenodd;stroke:#0000FF;stroke-width:2.0px;stroke-linecap:butt;stroke-linejoin:miter;stroke-opacity:1" />
<path class="bond-7 atom-7 atom-8" d="M 201.2,120.0 L 217.4,127.3" style="fill:none;fill-rule:evenodd;stroke:#000000;stroke-width:2.0px;stroke-linecap:butt;stroke-linejoin:miter;stroke-opacity:1" />
<path class="bond-7 atom-7 atom-8" d="M 182.4,118.3 L 197.1,125.0" style="fill:none;fill-rule:evenodd;stroke:#0000FF;stroke-width:2.0px;stroke-linecap:butt;stroke-linejoin:miter;stroke-opacity:1" />
<path class="bond-7 atom-7 atom-8" d="M 197.1,125.0 L 211.9,131.7" style="fill:none;fill-rule:evenodd;stroke:#000000;stroke-width:2.0px;stroke-linecap:butt;stroke-linejoin:miter;stroke-opacity:1" />
<path class="bond-8 atom-8 atom-9" d="M 217.4,127.3 L 254.0,106.6" style="fill:none;fill-rule:evenodd;stroke:#000000;stroke-width:2.0px;stroke-linecap:butt;stroke-linejoin:miter;stroke-opacity:1" />
<path class="bond-9 atom-9 atom-10" d="M 256.9,109.2 L 258.9,90.9" style="fill:none;fill-rule:evenodd;stroke:#000000;stroke-width:2.0px;stroke-linecap:butt;stroke-linejoin:miter;stroke-opacity:1" />
<path class="bond-9 atom-9 atom-10" d="M 258.9,90.9 L 261.0,72.5" style="fill:none;fill-rule:evenodd;stroke:#0000FF;stroke-width:2.0px;stroke-linecap:butt;stroke-linejoin:miter;stroke-opacity:1" />
<path class="bond-9 atom-9 atom-10" d="M 250.6,108.5 L 252.7,90.2" style="fill:none;fill-rule:evenodd;stroke:#000000;stroke-width:2.0px;stroke-linecap:butt;stroke-linejoin:miter;stroke-opacity:1" />
<path class="bond-9 atom-9 atom-10" d="M 252.7,90.2 L 254.7,71.8" style="fill:none;fill-rule:evenodd;stroke:#0000FF;stroke-width:2.0px;stroke-linecap:butt;stroke-linejoin:miter;stroke-opacity:1" />
<path class="bond-10 atom-9 atom-11" d="M 254.0,106.6 L 285.0,135.0" style="fill:none;fill-rule:evenodd;stroke:#000000;stroke-width:2.0px;stroke-linecap:butt;stroke-linejoin:miter;stroke-opacity:1" />
<path class="bond-11 atom-11 atom-12" d="M 285.0,135.0 L 267.6,173.3" style="fill:none;fill-rule:evenodd;stroke:#000000;stroke-width:2.0px;stroke-linecap:butt;stroke-linejoin:miter;stroke-opacity:1" />
<path class="bond-11 atom-11 atom-12" d="M 277.4,136.5 L 263.7,166.5" style="fill:none;fill-rule:evenodd;stroke:#000000;stroke-width:2.0px;stroke-linecap:butt;stroke-linejoin:miter;stroke-opacity:1" />
<path class="bond-12 atom-12 atom-13" d="M 267.6,173.3 L 276.0,214.5" style="fill:none;fill-rule:evenodd;stroke:#000000;stroke-width:2.0px;stroke-linecap:butt;stroke-linejoin:miter;stroke-opacity:1" />
<path class="bond-13 atom-13 atom-14" d="M 276.0,214.5 L 260.7,223.1" style="fill:none;fill-rule:evenodd;stroke:#000000;stroke-width:2.0px;stroke-linecap:butt;stroke-linejoin:miter;stroke-opacity:1" />
<path class="bond-13 atom-13 atom-14" d="M 260.7,223.1 L 245.3,231.8" style="fill:none;fill-rule:evenodd;stroke:#0000FF;stroke-width:2.0px;stroke-linecap:butt;stroke-linejoin:miter;stroke-opacity:1" />
<path class="bond-13 atom-13 atom-14" d="M 268.9,211.2 L 255.6,218.8" style="fill:none;fill-rule:evenodd;stroke:#000000;stroke-width:2.0px;stroke-linecap:butt;stroke-linejoin:miter;stroke-opacity:1" />
<path class="bond-13 atom-13 atom-14" d="M 255.6,218.8 L 242.2,226.4" style="fill:none;fill-rule:evenodd;stroke:#0000FF;stroke-width:2.0px;stroke-linecap:butt;stroke-linejoin:miter;stroke-opacity:1" />
<path class="bond-14 atom-14 atom-15" d="M 233.5,229.8 L 221.0,218.3" style="fill:none;fill-rule:evenodd;stroke:#0000FF;stroke-width:2.0px;stroke-linecap:butt;stroke-linejoin:miter;stroke-opacity:1" />
<path class="bond-14 atom-14 atom-15" d="M 221.0,218.3 L 208.4,206.8" style="fill:none;fill-rule:evenodd;stroke:#000000;stroke-width:2.0px;stroke-linecap:butt;stroke-linejoin:miter;stroke-opacity:1" />
<path class="bond-15 atom-15 atom-16" d="M 208.4,206.8 L 225.8,168.5" style="fill:none;fill-rule:evenodd;stroke:#000000;stroke-width:2.0px;stroke-linecap:butt;stroke-linejoin:miter;stroke-opacity:1" />
<path class="bond-15 atom-15 atom-16" d="M 216.0,205.2 L 229.6,175.3" style="fill:none;fill-rule:evenodd;stroke:#000000;stroke-width:2.0px;stroke-linecap:butt;stroke-linejoin:miter;stroke-opacity:1" />
<path class="bond-16 atom-6 atom-1" d="M 110.4,187.2 L 127.5,181.8" style="fill:none;fill-rule:evenodd;stroke:#0000FF;stroke-width:2.0px;stroke-linecap:butt;stroke-linejoin:miter;stroke-opacity:1" />
<path class="bond-16 atom-6 atom-1" d="M 127.5,181.8 L 144.6,176.4" style="fill:none;fill-rule:evenodd;stroke:#000000;stroke-width:2.0px;stroke-linecap:butt;stroke-linejoin:miter;stroke-opacity:1" />
<path class="bond-17 atom-16 atom-8" d="M 225.8,168.5 L 217.4,127.3" style="fill:none;fill-rule:evenodd;stroke:#000000;stroke-width:2.0px;stroke-linecap:butt;stroke-linejoin:miter;stroke-opacity:1" />
<path class="bond-18 atom-16 atom-12" d="M 225.8,168.5 L 267.6,173.3" style="fill:none;fill-rule:evenodd;stroke:#000000;stroke-width:2.0px;stroke-linecap:butt;stroke-linejoin:miter;stroke-opacity:1" />
<path d="M 252.2,107.6 L 254.0,106.6 L 255.5,108.0" style="fill:none;stroke:#000000;stroke-width:2.0px;stroke-linecap:butt;stroke-linejoin:miter;stroke-opacity:1;" />
<path d="M 283.4,133.6 L 285.0,135.0 L 284.1,136.9" style="fill:none;stroke:#000000;stroke-width:2.0px;stroke-linecap:butt;stroke-linejoin:miter;stroke-opacity:1;" />
<path d="M 275.6,212.4 L 276.0,214.5 L 275.2,214.9" style="fill:none;stroke:#000000;stroke-width:2.0px;stroke-linecap:butt;stroke-linejoin:miter;stroke-opacity:1;" />
<path d="M 209.0,207.4 L 208.4,206.8 L 209.3,204.9" style="fill:none;stroke:#000000;stroke-width:2.0px;stroke-linecap:butt;stroke-linejoin:miter;stroke-opacity:1;" />
<path class="atom-3" d="M 101.7 125.1 Q 101.8 125.2, 102.3 125.4 Q 102.9 125.6, 103.5 125.8 Q 104.1 125.9, 104.7 125.9 Q 105.9 125.9, 106.5 125.4 Q 107.2 124.8, 107.2 123.9 Q 107.2 123.2, 106.8 122.8 Q 106.5 122.4, 106.0 122.2 Q 105.5 122.0, 104.7 121.7 Q 103.6 121.4, 103.0 121.1 Q 102.3 120.8, 101.9 120.2 Q 101.5 119.5, 101.5 118.4 Q 101.5 116.9, 102.5 116.0 Q 103.5 115.1, 105.5 115.1 Q 106.9 115.1, 108.5 115.8 L 108.1 117.1 Q 106.6 116.5, 105.6 116.5 Q 104.4 116.5, 103.8 116.9 Q 103.1 117.4, 103.1 118.2 Q 103.1 118.9, 103.5 119.3 Q 103.8 119.7, 104.3 119.9 Q 104.8 120.1, 105.6 120.3 Q 106.6 120.7, 107.3 121.0 Q 107.9 121.4, 108.4 122.0 Q 108.8 122.7, 108.8 123.9 Q 108.8 125.5, 107.7 126.4 Q 106.6 127.3, 104.8 127.3 Q 103.7 127.3, 102.9 127.1 Q 102.1 126.8, 101.2 126.5 L 101.7 125.1 " fill="#CCCC00" />
<path class="atom-5" d="M 15.0 148.6 L 16.6 148.6 L 16.6 153.6 L 22.7 153.6 L 22.7 148.6 L 24.3 148.6 L 24.3 160.5 L 22.7 160.5 L 22.7 155.0 L 16.6 155.0 L 16.6 160.5 L 15.0 160.5 L 15.0 148.6 " fill="#0000FF" />
<path class="atom-5" d="M 26.6 160.1 Q 26.9 159.3, 27.6 158.9 Q 28.3 158.5, 29.3 158.5 Q 30.5 158.5, 31.1 159.1 Q 31.8 159.8, 31.8 160.9 Q 31.8 162.1, 30.9 163.2 Q 30.1 164.2, 28.3 165.5 L 31.9 165.5 L 31.9 166.4 L 26.6 166.4 L 26.6 165.7 Q 28.1 164.6, 29.0 163.9 Q 29.8 163.1, 30.3 162.4 Q 30.7 161.7, 30.7 161.0 Q 30.7 160.2, 30.3 159.8 Q 29.9 159.4, 29.3 159.4 Q 28.6 159.4, 28.2 159.6 Q 27.8 159.9, 27.5 160.4 L 26.6 160.1 " fill="#0000FF" />
<path class="atom-5" d="M 35.4 148.6 L 39.3 154.9 Q 39.6 155.5, 40.3 156.6 Q 40.9 157.7, 40.9 157.8 L 40.9 148.6 L 42.5 148.6 L 42.5 160.5 L 40.9 160.5 L 36.7 153.6 Q 36.2 152.8, 35.7 151.8 Q 35.2 150.9, 35.0 150.6 L 35.0 160.5 L 33.5 160.5 L 33.5 148.6 L 35.4 148.6 " fill="#0000FF" />
<path class="atom-6" d="M 101.8 183.1 L 105.7 189.4 Q 106.1 190.0, 106.8 191.2 Q 107.4 192.3, 107.4 192.4 L 107.4 183.1 L 109.0 183.1 L 109.0 195.0 L 107.4 195.0 L 103.2 188.1 Q 102.7 187.3, 102.2 186.4 Q 101.7 185.5, 101.5 185.2 L 101.5 195.0 L 100.0 195.0 L 100.0 183.1 L 101.8 183.1 " fill="#0000FF" />
<path class="atom-7" d="M 176.5 104.0 L 180.4 110.3 Q 180.8 110.9, 181.4 112.0 Q 182.0 113.1, 182.1 113.2 L 182.1 104.0 L 183.6 104.0 L 183.6 115.9 L 182.0 115.9 L 177.8 109.0 Q 177.3 108.2, 176.8 107.2 Q 176.3 106.3, 176.2 106.0 L 176.2 115.9 L 174.6 115.9 L 174.6 104.0 L 176.5 104.0 " fill="#0000FF" />
<path class="atom-10" d="M 256.1 58.9 L 260.0 65.2 Q 260.4 65.8, 261.0 66.9 Q 261.6 68.0, 261.6 68.1 L 261.6 58.9 L 263.2 58.9 L 263.2 70.8 L 261.6 70.8 L 257.4 63.9 Q 256.9 63.1, 256.4 62.1 Q 255.9 61.2, 255.7 60.9 L 255.7 70.8 L 254.2 70.8 L 254.2 58.9 L 256.1 58.9 " fill="#0000FF" />
<path class="atom-10" d="M 265.5 58.9 L 267.2 58.9 L 267.2 63.9 L 273.2 63.9 L 273.2 58.9 L 274.9 58.9 L 274.9 70.8 L 273.2 70.8 L 273.2 65.3 L 267.2 65.3 L 267.2 70.8 L 265.5 70.8 L 265.5 58.9 " fill="#0000FF" />
<path class="atom-14" d="M 236.8 229.2 L 240.7 235.5 Q 241.1 236.2, 241.7 237.3 Q 242.3 238.4, 242.3 238.5 L 242.3 229.2 L 243.9 229.2 L 243.9 241.1 L 242.3 241.1 L 238.1 234.2 Q 237.6 233.4, 237.1 232.5 Q 236.6 231.6, 236.4 231.3 L 236.4 241.1 L 234.9 241.1 L 234.9 229.2 L 236.8 229.2 " fill="#0000FF" />
<text x="150" y="20" fill="blue" font-size="16" text-anchor="middle" font-family="Arial">DFT: 1.404 eV</text><text x="150" y="40" fill="lightcoral" font-size="16" text-anchor="middle" font-family="Arial">Predicted: 1.461 eV</text><text x="5" y="15" fill="black" font-size="14" font-family="Arial" text-anchor="start">(13)</text></svg>